SplineFontDB: 3.0
FontName: Muli-Semi-BoldItalic
FullName: Muli Semi-Bold Italic
FamilyName: Muli
Weight: Semi-Bold
Copyright: Digitized data Copyright (c) 2011-2014, vernon adams.
Version: 2
ItalicAngle: -7
UnderlinePosition: 0
UnderlineWidth: 0
Ascent: 1638
Descent: 410
sfntRevision: 0x00000000
UFOAscent: 1560
UFODescent: -556
LayerCount: 2
Layer: 0 0 "Back"  1
Layer: 1 0 "Fore"  0
FSType: 0
OS2Version: 0
OS2_WeightWidthSlopeOnly: 0
OS2_UseTypoMetrics: 1
CreationTime: 1391728726
ModificationTime: 1391734404
PfmFamily: 17
TTFWeight: 600
TTFWidth: 5
LineGap: 0
VLineGap: 0
OS2TypoAscent: 2364
OS2TypoAOffset: 0
OS2TypoDescent: -582
OS2TypoDOffset: 0
OS2TypoLinegap: 0
OS2WinAscent: 2364
OS2WinAOffset: 0
OS2WinDescent: 582
OS2WinDOffset: 0
HheadAscent: 2364
HheadAOffset: 0
HheadDescent: -582
HheadDOffset: 0
OS2Vendor: 'NeWT'
Lookup: 258 0 0 "kernHorizontalKerninginLatinloo"  {"kernHorizontalKerninginLatinloo subtable"  } ['kern' ('latn' <'dflt' > ) ]
MarkAttachClasses: 1
DEI: 91125
LangName: 1033 "" "" "" "" "" "Version 2.0" "" "Muli is a trademark of Vernon Adams and may be registered in certain jurisdictions." "newtypography" "Vernon Adams" "" "newtypography.co.uk" "newtypography.co.uk" "Copyright (c) 2014, vernon adams.+AAoACgAA-This Font Software is licensed under the SIL Open Font License, Version 1.1.+AAoA-This license is available with a FAQ at:+AAoA-http://scripts.sil.org/OFL+AAoA" "http://scripts.sil.org/OFL" "" "Muli" "Bold" 
PickledData: "(dp1
S'com.typemytype.robofont.foreground.layerStrokeColor'
p2
(F0.5
F0
F0.5
F0.69999999999999996
tp3
sS'com.schriftgestaltung.fontMasterID'
p4
S'CAA31E91-2985-420A-82BA-6B4D8404D924'
p5
sS'GSDimensionPlugin.Dimensions'
p6
(dp7
S'CAA31E91-2985-420A-82BA-6B4D8404D924'
p8
(dp9
ssS'com.superpolator.editor.generateInfo'
p10
S'Generated with LTR Superpolator version 120823_1018_beta_'
p11
sS'com.typemytype.robofont.b.layerStrokeColor'
p12
(F1
F0.75
F0
F0.69999999999999996
tp13
sS'com.schriftgestaltung.useNiceNames'
p14
I01

StartChar: A
Encoding: 65 65 0
Width: 1434
VWidth: 0
Flags: HW
PickledData: "(dp1
S'org.robofab.postScriptHintData'
p2
(dp3
sS'com.typemytype.robofont.layerData'
p4
(dp5
s."
AnchorPoint: "top" 809 1456 basechar 0
LayerCount: 2
Fore
SplineSet
-71 0 m 257
 686 1456 l 257
 922 1456 l 257
 1328 0 l 257
 1071 0 l 257
 969 373 l 257
 369 373 l 257
 180 0 l 257
 -71 0 l 257
467 576 m 257
 913 576 l 257
 866 785 818 992 769 1199 c 257
 669 991 568 783 467 576 c 257
EndSplineSet
EndChar

StartChar: AE
Encoding: 198 198 1
Width: 2157
VWidth: 0
Flags: HW
PickledData: "(dp1
S'org.robofab.postScriptHintData'
p2
(dp3
sS'com.typemytype.robofont.layerData'
p4
(dp5
S'b'
(dp6
S'name'
p7
S'AE'
p8
sS'lib'
p9
(dp10
sS'unicodes'
p11
(tsS'width'
p12
F2073.5500000000002
sS'contours'
p13
(tsS'components'
p14
(tsS'anchors'
p15
(tsss."
AnchorPoint: "top" 1433 1456 basechar 0
LayerCount: 2
Fore
SplineSet
-68 0 m 257
 965 1456 l 257
 2027 1456 l 257
 2003 1254 l 257
 1334 1254 l 257
 1319 844 l 257
 1939 844 l 257
 1915 648 l 257
 1319 648 l 257
 1305 202 l 257
 1899 202 l 257
 1875 0 l 257
 1047 0 l 257
 1061 373 l 257
 467 373 l 257
 210 0 l 257
 -68 0 l 257
580 554 m 257
 1068 554 l 257
 1103 1254 l 257
 1064 1254 l 257
 580 554 l 257
EndSplineSet
EndChar

StartChar: B
Encoding: 66 66 18
Width: 1361
VWidth: 0
Flags: HW
PickledData: "(dp1
S'org.robofab.postScriptHintData'
p2
(dp3
sS'com.typemytype.robofont.layerData'
p4
(dp5
S'b'
(dp6
S'name'
p7
S'B'
sS'lib'
p8
(dp9
sS'unicodes'
p10
(tsS'width'
p11
F1346.45
sS'contours'
p12
(tsS'components'
p13
(tsS'anchors'
p14
(tsss."
AnchorPoint: "top" 738 1456 basechar 0
LayerCount: 2
Fore
SplineSet
105 0 m 257
 283 1456 l 257
 672 1456 l 258
 914 1456 1229 1432 1229 1148 c 0
 1229 1131 1227 1112 1225 1093 c 256
 1209 957 1132 838 973 778 c 257
 1134 741 1214 625 1214 474 c 0
 1214 455 1212 437 1210 417 c 256
 1183 197 989 0 630 0 c 258
 105 0 l 257
969 476 m 0
 969 619 876 662 654 662 c 258
 417 662 l 257
 360 197 l 257
 613 197 l 258
 842 197 969 285 969 476 c 0
980 1096 m 0
 980 1231 862 1260 673 1260 c 258
 489 1260 l 257
 439 852 l 257
 662 852 l 258
 816 852 980 904 980 1096 c 0
EndSplineSet
EndChar

StartChar: C
Encoding: 67 67 20
Width: 1416
VWidth: 0
Flags: HW
PickledData: "(dp1
S'org.robofab.postScriptHintData'
p2
(dp3
sS'com.typemytype.robofont.guides'
p4
(tsS'com.typemytype.robofont.layerData'
p5
(dp6
S'b'
(dp7
S'name'
p8
S'C'
sS'lib'
p9
(dp10
sS'unicodes'
p11
(tsS'width'
p12
F1394.1500000000001
sS'contours'
p13
((dp14
S'points'
p15
((dp16
S'segmentType'
p17
S'curve'
p18
sS'x'
F785
sS'smooth'
p19
I01
sS'y'
F-23
s(dp20
S'y'
F-23
sS'x'
F346
sg19
I00
s(dp21
S'y'
F309
sS'x'
F108
sg19
I00
s(dp22
g17
S'curve'
p23
sS'x'
F108
sg19
I01
sS'y'
F713
s(dp24
S'y'
F1125
sS'x'
F108
sg19
I00
s(dp25
S'y'
F1483
sS'x'
F371
sg19
I00
s(dp26
g17
S'curve'
p27
sS'x'
F814
sg19
I01
sS'y'
F1483
s(dp28
S'y'
F1483
sS'x'
F995
sg19
I00
s(dp29
S'y'
F1437
sS'x'
F1144
sg19
I00
s(dp30
g17
S'curve'
p31
sS'x'
F1265
sg19
I00
sS'y'
F1329
s(dp32
g17
S'line'
p33
sS'x'
F1200
sg19
I00
sS'y'
F1219
s(dp34
S'y'
F1295
sS'x'
F1099
sg19
I00
s(dp35
S'y'
F1334
sS'x'
F969
sg19
I00
s(dp36
g17
S'curve'
p37
sS'x'
F833
sg19
I01
sS'y'
F1334
s(dp38
S'y'
F1334
sS'x'
F464
sg19
I00
s(dp39
S'y'
F1022
sS'x'
F291
sg19
I00
s(dp40
g17
S'curve'
p41
sS'x'
F291
sg19
I01
sS'y'
F712
s(dp42
S'y'
F398
sS'x'
F291
sg19
I00
s(dp43
S'y'
F125
sS'x'
F453
sg19
I00
s(dp44
g17
S'curve'
p45
sS'x'
F811
sg19
I01
sS'y'
F125
s(dp46
S'y'
F125
sS'x'
F974
sg19
I00
s(dp47
S'y'
F172
sS'x'
F1134
sg19
I00
s(dp48
g17
S'curve'
p49
sS'x'
F1243
sg19
I00
sS'y'
F268
s(dp50
g17
S'line'
p51
sS'x'
F1301
sg19
I00
sS'y'
F127
s(dp52
S'y'
F28
sS'x'
F1178
sg19
I00
s(dp53
S'y'
F-23
sS'x'
F996
sg19
I00
stp54
stp55
sS'components'
p56
(tsS'anchors'
p57
(tsss."
AnchorPoint: "top" 913 1456 basechar 0
LayerCount: 2
Fore
SplineSet
342 633 m 0
 342 347 520 175 776 175 c 256
 908 175 1050 216 1200 322 c 257
 1255 139 l 257
 1089 23 913 -22 739 -22 c 256
 395 -22 98 193 98 607 c 0
 98 644 100 683 105 723 c 256
 164 1204 533 1483 907 1483 c 256
 1077 1483 1234 1444 1364 1328 c 257
 1254 1169 l 257
 1139 1259 1022 1286 902 1286 c 256
 600 1286 342 1012 342 633 c 0
EndSplineSet
EndChar

StartChar: D
Encoding: 68 68 27
Width: 1555
VWidth: 0
Flags: HW
PickledData: "(dp1
S'org.robofab.postScriptHintData'
p2
(dp3
sS'com.typemytype.robofont.layerData'
p4
(dp5
S'b'
(dp6
S'name'
p7
S'D'
sS'lib'
p8
(dp9
sS'unicodes'
p10
(tsS'width'
p11
F1526.5999999999999
sS'contours'
p12
(tsS'components'
p13
(tsS'anchors'
p14
(tsss."
AnchorPoint: "top" 801 1456 basechar 0
LayerCount: 2
Fore
SplineSet
358 196 m 257
 579 196 l 258
 949 196 1164 392 1206 734 c 256
 1210 769 1213 803 1213 835 c 0
 1213 1119 1035 1260 658 1260 c 258
 489 1260 l 257
 358 196 l 257
105 0 m 257
 283 1456 l 257
 659 1456 l 258
 1180 1456 1458 1259 1458 857 c 0
 1458 818 1455 776 1450 733 c 256
 1392 263 1073 0 542 0 c 258
 105 0 l 257
EndSplineSet
EndChar

StartChar: DEL
Encoding: 127 127 28
Width: 1521
VWidth: 0
Flags: HW
PickledData: "(dp1
S'org.robofab.postScriptHintData'
p2
(dp3
s."
LayerCount: 2
Fore
SplineSet
286 124 m 257
 1087 124 l 257
 1235 1330 l 257
 434 1330 l 257
 286 124 l 257
99 0 m 257
 277 1456 l 257
 1422 1456 l 257
 1244 0 l 257
 99 0 l 257
EndSplineSet
EndChar

StartChar: Delta
Encoding: 916 916 32
Width: 1390
VWidth: 0
Flags: HW
PickledData: "(dp1
S'org.robofab.postScriptHintData'
p2
(dp3
s."
LayerCount: 2
Fore
SplineSet
-28 0 m 257
 -11 147 l 257
 678 1456 l 257
 899 1456 l 257
 1257 154 l 257
 1239 0 l 257
 -28 0 l 257
233 183 m 257
 997 183 l 257
 739 1195 l 257
 233 183 l 257
EndSplineSet
EndChar

StartChar: E
Encoding: 69 69 35
Width: 1221
VWidth: 0
Flags: HW
PickledData: "(dp1
S'org.robofab.postScriptHintData'
p2
(dp3
sS'com.typemytype.robofont.layerData'
p4
(dp5
s."
AnchorPoint: "top" 748 1456 basechar 0
LayerCount: 2
Fore
SplineSet
105 0 m 257
 283 1456 l 257
 1184 1456 l 257
 1160 1260 l 257
 489 1260 l 257
 439 849 l 257
 1072 849 l 257
 1048 652 l 257
 416 652 l 257
 360 196 l 257
 1059 196 l 257
 1035 0 l 257
 105 0 l 257
EndSplineSet
EndChar

StartChar: Eng
Encoding: 330 330 46
Width: 1602
VWidth: 0
Flags: HW
PickledData: "(dp1
S'org.robofab.postScriptHintData'
p2
(dp3
sS'com.typemytype.robofont.layerData'
p4
(dp5
s."
LayerCount: 2
Fore
SplineSet
1527 1456 m 257
 1354 41 l 258
 1312 -301 1111 -454 785 -454 c 256
 687 -454 579 -438 461 -408 c 257
 512 -229 l 257
 614 -258 713 -277 802 -277 c 256
 970 -277 1101 -226 1125 -25 c 258
 1138 82 l 257
 580 989 l 257
 488 1158 l 257
 345 0 l 257
 130 0 l 257
 308 1456 l 257
 555 1456 l 257
 762 1105 979 764 1179 406 c 257
 1307 1456 l 257
 1527 1456 l 257
EndSplineSet
EndChar

StartChar: Euro
Encoding: 8364 8364 50
Width: 1492
VWidth: 0
Flags: HW
PickledData: "(dp1
S'org.robofab.postScriptHintData'
p2
(dp3
sS'com.typemytype.robofont.layerData'
p4
(dp5
S'b'
(dp6
S'name'
p7
S'Euro'
p8
sS'lib'
p9
(dp10
sS'unicodes'
p11
(tsS'width'
p12
I1190
sS'contours'
p13
(tsS'components'
p14
(tsS'anchors'
p15
(tsss."
LayerCount: 2
Fore
SplineSet
269 832 m 1
 101 832 l 1
 120 950 l 1
 305 950 l 1
 434 1291 741 1483 1052 1483 c 0
 1222 1483 1379 1444 1509 1328 c 1
 1399 1169 l 1
 1284 1259 1167 1286 1047 1286 c 0
 837 1286 652 1154 556 950 c 1
 1034 950 l 1
 1013 832 l 1
 513 832 l 1
 497 774 487 704 487 633 c 0
 487 630 487 627 487 624 c 1
 958 624 l 1
 938 512 l 1
 499 512 l 1
 542 299 703 175 921 175 c 0
 1053 175 1195 216 1345 322 c 1
 1400 139 l 1
 1234 23 1058 -22 884 -22 c 0
 567 -22 290 160 248 512 c 1
 63 512 l 1
 81 624 l 1
 243 624 l 1
 244 697 254 770 269 832 c 1
EndSplineSet
EndChar

StartChar: F
Encoding: 70 70 51
Width: 1133
VWidth: 0
Flags: HW
PickledData: "(dp1
S'org.robofab.postScriptHintData'
p2
(dp3
sS'com.typemytype.robofont.layerData'
p4
(dp5
s."
AnchorPoint: "top" 735 1456 basechar 0
LayerCount: 2
Fore
SplineSet
105 0 m 257
 283 1456 l 257
 1152 1456 l 257
 1129 1260 l 257
 489 1260 l 257
 438 847 l 257
 1038 847 l 257
 1014 650 l 257
 414 650 l 257
 335 0 l 257
 105 0 l 257
EndSplineSet
EndChar

StartChar: G
Encoding: 71 71 53
Width: 1534
VWidth: 0
Flags: HW
PickledData: "(dp1
S'org.robofab.postScriptHintData'
p2
(dp3
sS'com.typemytype.robofont.layerData'
p4
(dp5
S'b'
(dp6
S'name'
p7
S'G'
sS'lib'
p8
(dp9
sS'unicodes'
p10
(tsS'width'
p11
F1528.2
sS'contours'
p12
((dp13
S'points'
p14
((dp15
S'segmentType'
p16
S'curve'
p17
sS'x'
F841
sS'smooth'
p18
I01
sS'y'
F-23
s(dp19
S'y'
F-23
sS'x'
F361
sg18
I00
s(dp20
S'y'
F267
sS'x'
F108
sg18
I00
s(dp21
g16
S'curve'
p22
sS'x'
F108
sg18
I01
sS'y'
F701
s(dp23
S'y'
F1129
sS'x'
F108
sg18
I00
s(dp24
S'y'
F1483
sS'x'
F382
sg18
I00
s(dp25
g16
S'curve'
p26
sS'x'
F852
sg18
I01
sS'y'
F1483
s(dp27
S'y'
F1483
sS'x'
F1059
sg18
I00
s(dp28
S'y'
F1415
sS'x'
F1233
sg18
I00
s(dp29
g16
S'curve'
p30
sS'x'
F1334
sg18
I00
sS'y'
F1308
s(dp31
g16
S'line'
p32
sS'x'
F1262
sg18
I00
sS'y'
F1196
s(dp33
S'y'
F1291
sS'x'
F1164
sg18
I00
s(dp34
S'y'
F1334
sS'x'
F1034
sg18
I00
s(dp35
g16
S'curve'
p36
sS'x'
F848
sg18
I01
sS'y'
F1334
s(dp37
S'y'
F1334
sS'x'
F477
sg18
I00
s(dp38
S'y'
F1033
sS'x'
F286
sg18
I00
s(dp39
g16
S'curve'
p40
sS'x'
F286
sg18
I01
sS'y'
F714
s(dp41
S'y'
F365
sS'x'
F286
sg18
I00
s(dp42
S'y'
F125
sS'x'
F472
sg18
I00
s(dp43
g16
S'curve'
p44
sS'x'
F855
sg18
I01
sS'y'
F125
s(dp45
S'y'
F125
sS'x'
F968
sg18
I00
s(dp46
S'y'
F143
sS'x'
F1088
sg18
I00
s(dp47
g16
S'curve'
p48
sS'x'
F1184
sg18
I00
sS'y'
F182
s(dp49
g16
S'line'
p50
sS'x'
F1184
sg18
I00
sS'y'
F608
s(dp51
g16
S'line'
p52
sS'x'
F811
sg18
I00
sS'y'
F608
s(dp53
g16
S'line'
p54
sS'x'
F811
sg18
I00
sS'y'
F757
s(dp55
g16
S'line'
p56
sS'x'
F1356
sg18
I00
sS'y'
F757
s(dp57
g16
S'line'
p58
sS'x'
F1356
sg18
I00
sS'y'
F81
s(dp59
S'y'
F6
sS'x'
F1195
sg18
I00
s(dp60
S'y'
F-23
sS'x'
F1012
sg18
I00
stp61
stp62
sS'components'
p63
(tsS'anchors'
p64
(tsss."
AnchorPoint: "top" 923 1456 basechar 0
LayerCount: 2
Fore
SplineSet
757 -23 m 256
 318 -23 96 213 96 579 c 0
 96 619 99 661 104 704 c 256
 157 1138 492 1483 963 1483 c 256
 1219 1483 1348 1404 1429 1338 c 257
 1317 1176 l 257
 1240 1235 1127 1286 942 1286 c 256
 604 1286 382 1021 344 715 c 256
 340 680 338 647 338 615 c 0
 338 351 481 174 791 174 c 256
 882 174 983 188 1071 216 c 257
 1116 586 l 257
 766 586 l 257
 791 783 l 257
 1373 783 l 257
 1287 86 l 257
 1101 6 925 -23 757 -23 c 256
EndSplineSet
EndChar

StartChar: H
Encoding: 72 72 60
Width: 1564
VWidth: 0
Flags: HW
PickledData: "(dp1
S'org.robofab.postScriptHintData'
p2
(dp3
sS'com.typemytype.robofont.layerData'
p4
(dp5
S'b'
(dp6
S'name'
p7
S'H'
sS'lib'
p8
(dp9
sS'unicodes'
p10
(tsS'width'
p11
F1576.45
sS'contours'
p12
(tsS'components'
p13
(tsS'anchors'
p14
(tsss."
AnchorPoint: "top" 866 1456 basechar 0
LayerCount: 2
Fore
SplineSet
105 0 m 257
 283 1456 l 257
 513 1456 l 257
 438 845 l 257
 1155 845 l 257
 1230 1456 l 257
 1460 1456 l 257
 1282 0 l 257
 1055 0 l 257
 1134 649 l 257
 417 649 l 257
 338 0 l 257
 105 0 l 257
EndSplineSet
EndChar

StartChar: Hbar
Encoding: 294 294 61
Width: 1564
VWidth: 0
Flags: HW
PickledData: "(dp1
S'org.robofab.postScriptHintData'
p2
(dp3
sS'com.typemytype.robofont.layerData'
p4
(dp5
S'b'
(dp6
S'name'
p7
S'Hbar'
p8
sS'lib'
p9
(dp10
sS'unicodes'
p11
(tsS'width'
p12
F1532.55
sS'contours'
p13
(tsS'components'
p14
(tsS'anchors'
p15
(tsss."
LayerCount: 2
Fore
SplineSet
138 1110 m 257
 154 1243 l 257
 1525 1243 l 257
 1509 1110 l 257
 138 1110 l 257
EndSplineSet
Refer: 60 72 N 1 0 0 1 0 0 2
EndChar

StartChar: I
Encoding: 73 73 63
Width: 596
VWidth: 0
Flags: HW
PickledData: "(dp1
S'org.robofab.postScriptHintData'
p2
(dp3
sS'com.typemytype.robofont.layerData'
p4
(dp5
s."
AnchorPoint: "top" 401 1456 basechar 0
LayerCount: 2
Fore
SplineSet
101 0 m 257
 279 1456 l 257
 509 1456 l 257
 331 0 l 257
 101 0 l 257
EndSplineSet
EndChar

StartChar: J
Encoding: 74 74 77
Width: 903
VWidth: 0
Flags: HW
PickledData: "(dp1
S'org.robofab.postScriptHintData'
p2
(dp3
sS'com.typemytype.robofont.layerData'
p4
(dp5
S'b'
(dp6
S'name'
p7
S'J'
sS'lib'
p8
(dp9
sS'unicodes'
p10
(tsS'width'
p11
F731.54999999999995
sS'contours'
p12
(tsS'components'
p13
(tsS'anchors'
p14
(tsss."
AnchorPoint: "top" 716 1456 basechar 0
LayerCount: 2
Fore
SplineSet
219 -331 m 256
 126 -331 26 -308 -66 -273 c 257
 -7 -96 l 257
 68 -120 140 -136 205 -136 c 256
 352 -136 408 -43 427 114 c 258
 592 1456 l 257
 822 1456 l 257
 658 120 l 258
 622 -176 463 -331 219 -331 c 256
EndSplineSet
EndChar

StartChar: K
Encoding: 75 75 79
Width: 1329
VWidth: 0
Flags: HW
PickledData: "(dp1
S'org.robofab.postScriptHintData'
p2
(dp3
sS'com.typemytype.robofont.layerData'
p4
(dp5
S'b'
(dp6
S'name'
p7
S'K'
sS'lib'
p8
(dp9
sS'unicodes'
p10
(tsS'width'
p11
F1289.95
sS'contours'
p12
(tsS'components'
p13
(tsS'anchors'
p14
(tsss."
AnchorPoint: "top" 779 1456 basechar 0
LayerCount: 2
Fore
SplineSet
105 0 m 257
 283 1456 l 257
 513 1456 l 257
 434 812 l 257
 1098 1456 l 257
 1385 1456 l 257
 652 753 l 257
 1256 0 l 257
 960 0 l 257
 418 667 l 257
 336 0 l 257
 105 0 l 257
EndSplineSet
EndChar

StartChar: L
Encoding: 76 76 82
Width: 1145
VWidth: 0
Flags: HW
PickledData: "(dp1
S'org.robofab.postScriptHintData'
p2
(dp3
sS'com.typemytype.robofont.layerData'
p4
(dp5
s."
AnchorPoint: "caron.alt" 357 1026 basechar 0
AnchorPoint: "top" 437 1456 basechar 0
LayerCount: 2
Fore
SplineSet
105 0 m 257
 283 1456 l 257
 513 1456 l 257
 358 196 l 257
 1033 196 l 257
 1009 0 l 257
 105 0 l 257
EndSplineSet
EndChar

StartChar: Lslash
Encoding: 321 321 88
Width: 1152
VWidth: 0
Flags: HW
PickledData: "(dp1
S'org.robofab.postScriptHintData'
p2
(dp3
sS'com.typemytype.robofont.layerData'
p4
(dp5
s."
LayerCount: 2
Fore
SplineSet
8 441 m 257
 32 640 l 257
 709 1076 l 257
 685 877 l 257
 8 441 l 257
EndSplineSet
Refer: 82 76 N 1 0 0 1 0 0 2
EndChar

StartChar: M
Encoding: 77 77 89
Width: 1961
VWidth: 0
Flags: HW
PickledData: "(dp1
S'org.robofab.postScriptHintData'
p2
(dp3
sS'com.typemytype.robofont.layerData'
p4
(dp5
S'b'
(dp6
S'name'
p7
S'M'
sS'lib'
p8
(dp9
sS'unicodes'
p10
(tsS'width'
p11
F1905.0999999999999
sS'contours'
p12
(tsS'components'
p13
(tsS'anchors'
p14
(tsss."
AnchorPoint: "top" 1074 1456 basechar 0
LayerCount: 2
Fore
SplineSet
105 0 m 257
 283 1456 l 257
 557 1456 l 257
 681 1069 806 683 930 296 c 257
 1147 684 1366 1069 1584 1456 c 257
 1856 1456 l 257
 1678 0 l 257
 1462 0 l 257
 1594 1080 l 257
 1385 723 1183 360 977 0 c 257
 808 0 l 257
 691 358 575 716 458 1073 c 257
 326 0 l 257
 105 0 l 257
EndSplineSet
EndChar

StartChar: N
Encoding: 78 78 91
Width: 1616
VWidth: 0
Flags: HW
PickledData: "(dp1
S'org.robofab.postScriptHintData'
p2
(dp3
sS'com.typemytype.robofont.layerData'
p4
(dp5
S'b'
(dp6
S'name'
p7
S'N'
sS'lib'
p8
(dp9
sS'unicodes'
p10
(tsS'width'
p11
F1578.1500000000001
sS'contours'
p12
(tsS'components'
p13
(tsS'anchors'
p14
(tsss."
AnchorPoint: "top" 912 1456 basechar 0
LayerCount: 2
Fore
SplineSet
105 0 m 257
 283 1456 l 257
 528 1456 l 257
 737 1081 951 711 1155 332 c 257
 1293 1456 l 257
 1511 1456 l 257
 1333 0 l 257
 1087 0 l 257
 877 375 659 741 455 1122 c 257
 318 0 l 257
 105 0 l 257
EndSplineSet
EndChar

StartChar: O
Encoding: 79 79 98
Width: 1653
VWidth: 0
Flags: HW
PickledData: "(dp1
S'org.robofab.postScriptHintData'
p2
(dp3
sS'com.typemytype.robofont.guides'
p4
((dp5
S'y'
I727
sS'x'
I231
sS'magnetic'
p6
I5
sS'angle'
p7
I0
sS'isGlobal'
p8
I00
s(dp9
S'y'
I1254
sS'x'
I804
sg6
I5
sg7
F90
sg8
I00
stp10
sS'com.typemytype.robofont.layerData'
p11
(dp12
S'b'
(dp13
S'name'
p14
S'O'
sS'lib'
p15
(dp16
sS'unicodes'
p17
(tsS'width'
p18
F1630.8
sS'contours'
p19
(tsS'components'
p20
(tsS'anchors'
p21
(tsss."
AnchorPoint: "top" 922 1456 basechar 0
LayerCount: 2
Fore
SplineSet
346 611 m 0
 346 337 481 174 758 174 c 256
 1075 174 1255 388 1297 733 c 256
 1302 773 1305 812 1305 849 c 0
 1305 1115 1174 1286 898 1286 c 256
 552 1286 346 1008 346 611 c 0
738 -23 m 256
 329 -23 98 218 98 603 c 0
 98 645 101 688 106 733 c 256
 161 1177 468 1483 925 1483 c 256
 1323 1483 1555 1234 1555 857 c 0
 1555 817 1552 776 1547 733 c 256
 1491 275 1190 -23 738 -23 c 256
EndSplineSet
EndChar

StartChar: OE
Encoding: 338 338 99
Width: 2053
VWidth: 0
Flags: HW
PickledData: "(dp1
S'org.robofab.postScriptHintData'
p2
(dp3
sS'com.typemytype.robofont.layerData'
p4
(dp5
S'b'
(dp6
S'name'
p7
S'OE'
p8
sS'lib'
p9
(dp10
sS'unicodes'
p11
(tsS'width'
p12
F2049.1500000000001
sS'contours'
p13
(tsS'components'
p14
(tsS'anchors'
p15
(tsss."
LayerCount: 2
Fore
SplineSet
891 1482 m 0
 1097 1482 1173 1403 1182 1394 c 257
 1189 1456 l 257
 2015 1456 l 257
 1992 1259 l 257
 1396 1259 l 257
 1345 844 l 257
 1903 844 l 257
 1879 646 l 257
 1322 646 l 257
 1267 197 l 257
 1891 197 l 257
 1866 0 l 257
 1010 0 l 257
 1020 75 l 257
 1003 58 890 -19 722 -24 c 256
 713 -24 704 -24 695 -24 c 0
 344 -24 97 184 97 592 c 0
 97 1138 460 1482 891 1482 c 0
1042 255 m 257
 1158 1199 l 257
 1117 1240 1043 1287 905 1287 c 0
 890 1287 874 1286 858 1285 c 256
 615 1270 398 1091 354 725 c 256
 349 684 346 646 346 609 c 0
 346 326 493 160 747 160 c 0
 940 160 1027 241 1042 255 c 257
EndSplineSet
EndChar

StartChar: Omega
Encoding: 937 937 111
Width: 1603
VWidth: 0
Flags: HW
PickledData: "(dp1
S'org.robofab.postScriptHintData'
p2
(dp3
sS'com.typemytype.robofont.layerData'
p4
(dp5
s."
LayerCount: 2
Fore
SplineSet
887 1481 m 256
 1261 1481 1502 1251 1502 905 c 0
 1502 873 1500 841 1496 808 c 256
 1463 546 1330 324 1134 180 c 257
 1441 181 l 257
 1400 0 l 257
 820 0 l 257
 839 156 l 257
 1047 283 1220 518 1252 781 c 256
 1255 809 1257 836 1257 865 c 0
 1257 1072 1161 1290 862 1290 c 256
 533 1290 371 1020 341 782 c 256
 337 752 336 721 336 692 c 0
 336 466 441 267 598 156 c 257
 579 0 l 257
 -9 0 l 257
 -9 181 l 257
 308 180 l 257
 170 304 98 483 98 692 c 0
 98 1179 451 1481 887 1481 c 256
EndSplineSet
EndChar

StartChar: Oslash
Encoding: 216 216 113
Width: 1653
VWidth: 0
Flags: HW
PickledData: "(dp1
S'org.robofab.postScriptHintData'
p2
(dp3
sS'com.typemytype.robofont.layerData'
p4
(dp5
S'b'
(dp6
S'name'
p7
S'Oslash'
p8
sS'lib'
p9
(dp10
sS'unicodes'
p11
(tsS'width'
p12
F1663
sS'contours'
p13
(tsS'components'
p14
(tsS'anchors'
p15
(tsss."
LayerCount: 2
Fore
SplineSet
346 611 m 0
 346 462 386 346 467 271 c 1
 1104 1243 l 1
 1048 1271 979 1286 898 1286 c 0
 552 1286 346 1008 346 611 c 0
1195 1177 m 1
 561 210 l 1
 616 186 681 174 758 174 c 0
 1075 174 1255 388 1297 733 c 0
 1302 773 1305 812 1305 849 c 0
 1305 988 1269 1101 1195 1177 c 1
738 -23 m 0
 626 -23 526 -4 442 30 c 1
 340 -126 l 1
 240 -75 l 1
 343 82 l 1
 184 188 98 368 98 603 c 0
 98 645 101 688 106 733 c 0
 161 1177 468 1483 925 1483 c 0
 1039 1483 1139 1463 1224 1425 c 1
 1318 1569 l 1
 1418 1517 l 1
 1321 1369 l 1
 1472 1261 1555 1082 1555 857 c 0
 1555 817 1552 776 1547 733 c 0
 1491 275 1190 -23 738 -23 c 0
EndSplineSet
EndChar

StartChar: P
Encoding: 80 80 116
Width: 1283
VWidth: 0
Flags: HW
PickledData: "(dp1
S'org.robofab.postScriptHintData'
p2
(dp3
sS'com.typemytype.robofont.layerData'
p4
(dp5
S'b'
(dp6
S'name'
p7
S'P'
sS'lib'
p8
(dp9
sS'unicodes'
p10
(tsS'width'
p11
F1252.6500000000001
sS'contours'
p12
((dp13
S'points'
p14
((dp15
S'segmentType'
p16
S'line'
p17
sS'x'
F360
sS'smooth'
p18
I00
sS'y'
F828
s(dp19
g16
S'line'
p20
sS'x'
F580
sg18
I01
sS'y'
F828
s(dp21
S'y'
F828
sS'x'
F775
sg18
I00
s(dp22
S'y'
F881
sS'x'
F973
sg18
I00
s(dp23
g16
S'curve'
p24
sS'x'
F973
sg18
I01
sS'y'
F1077
s(dp25
S'y'
F1272
sS'x'
F973
sg18
I00
s(dp26
S'y'
F1308
sS'x'
F807
sg18
I00
s(dp27
g16
S'curve'
p28
sS'x'
F592
sg18
I01
sS'y'
F1308
s(dp29
g16
S'line'
p30
sS'x'
F360
sg18
I00
sS'y'
F1308
stp31
s(dp32
g14
((dp33
g16
S'line'
p34
sS'x'
F360
sg18
I00
sS'y'
F148
s(dp35
g16
S'line'
p36
sS'x'
F667
sg18
I01
sS'y'
F148
s(dp37
S'y'
F148
sS'x'
F906
sg18
I00
s(dp38
S'y'
F230
sS'x'
F1041
sg18
I00
s(dp39
g16
S'curve'
p40
sS'x'
F1041
sg18
I01
sS'y'
F406
s(dp41
S'y'
F617
sS'x'
F1041
sg18
I00
s(dp42
S'y'
F680
sS'x'
F889
sg18
I00
s(dp43
g16
S'curve'
p44
sS'x'
F610
sg18
I01
sS'y'
F680
s(dp45
g16
S'line'
p46
sS'x'
F360
sg18
I00
sS'y'
F680
stp47
s(dp48
g14
((dp49
g16
S'line'
p50
sS'x'
F188
sg18
I00
sS'y'
F0
s(dp51
g16
S'line'
p52
sS'x'
F188
sg18
I00
sS'y'
F1456
s(dp53
g16
S'line'
p54
sS'x'
F502
sg18
I01
sS'y'
F1456
s(dp55
S'y'
F1456
sS'x'
F765
sg18
I00
s(dp56
S'y'
F1443
sS'x'
F1154
sg18
I00
s(dp57
g16
S'curve'
p58
sS'x'
F1154
sg18
I01
sS'y'
F1105
s(dp59
S'y'
F944
sS'x'
F1154
sg18
I00
s(dp60
S'y'
F814
sS'x'
F1045
sg18
I00
s(dp61
g16
S'curve'
p62
sS'x'
F889
sg18
I00
sS'y'
F769
s(dp63
S'y'
F734
sS'x'
F1086
sg18
I00
s(dp64
S'y'
F605
sS'x'
F1223
sg18
I00
s(dp65
g16
S'curve'
p66
sS'x'
F1223
sg18
I01
sS'y'
F403
s(dp67
S'y'
F189
sS'x'
F1223
sg18
I00
s(dp68
S'y'
F0
sS'x'
F1059
sg18
I00
s(dp69
g16
S'curve'
p70
sS'x'
F739
sg18
I01
sS'y'
F0
stp71
stp72
sS'components'
p73
(tsS'anchors'
p74
(tsss."
AnchorPoint: "top" 749 1456 basechar 0
LayerCount: 2
Fore
SplineSet
105 0 m 257
 283 1456 l 257
 698 1456 l 258
 1015 1456 1259 1419 1259 1125 c 0
 1259 1101 1257 1075 1254 1047 c 256
 1216 736 991 640 653 640 c 258
 412 640 l 257
 335 0 l 257
 105 0 l 257
1018 1088 m 0
 1018 1247 887 1259 682 1259 c 258
 489 1259 l 257
 437 837 l 257
 674 837 l 258
 880 837 1018 884 1018 1088 c 0
EndSplineSet
EndChar

StartChar: Q
Encoding: 81 81 118
Width: 1653
VWidth: 0
Flags: HW
PickledData: "(dp1
S'org.robofab.postScriptHintData'
p2
(dp3
sS'com.typemytype.robofont.layerData'
p4
(dp5
S'b'
(dp6
S'name'
p7
S'Q'
sS'lib'
p8
(dp9
sS'unicodes'
p10
(tsS'width'
p11
F1628.2
sS'contours'
p12
(tsS'components'
p13
(tsS'anchors'
p14
(tsss."
LayerCount: 2
Fore
SplineSet
1129 -439 m 1
 1129 -439 958 -237 857 -16 c 1
 819 -21 779 -23 738 -23 c 0
 329 -23 98 218 98 603 c 0
 98 645 101 688 106 733 c 0
 161 1177 468 1483 925 1483 c 0
 1323 1483 1555 1234 1555 857 c 0
 1555 817 1552 776 1547 733 c 0
 1506 395 1332 144 1062 36 c 1
 1140 -127 1300 -329 1300 -329 c 5
 1129 -439 l 1
346 611 m 0
 346 337 481 174 758 174 c 0
 1075 174 1255 388 1297 733 c 0
 1302 773 1305 812 1305 849 c 0
 1305 1115 1174 1286 898 1286 c 0
 552 1286 346 1008 346 611 c 0
EndSplineSet
EndChar

StartChar: R
Encoding: 82 82 119
Width: 1372
VWidth: 0
Flags: HW
PickledData: "(dp1
S'org.robofab.postScriptHintData'
p2
(dp3
sS'com.typemytype.robofont.guides'
p4
(tsS'com.typemytype.robofont.layerData'
p5
(dp6
S'b'
(dp7
S'name'
p8
S'R'
sS'lib'
p9
(dp10
sS'unicodes'
p11
(tsS'width'
p12
F1341
sS'contours'
p13
((dp14
S'points'
p15
((dp16
S'segmentType'
p17
S'line'
p18
sS'x'
F360
sS'smooth'
p19
I00
sS'y'
F799
s(dp20
g17
S'line'
p21
sS'x'
F615
sg19
I01
sS'y'
F799
s(dp22
S'y'
F799
sS'x'
F795
sg19
I00
s(dp23
S'y'
F854
sS'x'
F932
sg19
I00
s(dp24
g17
S'curve'
p25
sS'x'
F932
sg19
I01
sS'y'
F1058
s(dp26
S'y'
F1259
sS'x'
F932
sg19
I00
s(dp27
S'y'
F1308
sS'x'
F833
sg19
I00
s(dp28
g17
S'curve'
p29
sS'x'
F626
sg19
I01
sS'y'
F1308
s(dp30
g17
S'line'
p31
sS'x'
F360
sg19
I00
sS'y'
F1308
stp32
s(dp33
g15
((dp34
g17
S'line'
p35
sS'x'
F188
sg19
I00
sS'y'
F0
s(dp36
g17
S'line'
p37
sS'x'
F188
sg19
I00
sS'y'
F1456
s(dp38
g17
S'line'
p39
sS'x'
F533
sg19
I01
sS'y'
F1456
s(dp40
S'y'
F1456
sS'x'
F771
sg19
I00
s(dp41
S'y'
F1452
sS'x'
F1114
sg19
I00
s(dp42
g17
S'curve'
p43
sS'x'
F1114
sg19
I01
sS'y'
F1074
s(dp44
S'y'
F890
sS'x'
F1114
sg19
I00
s(dp45
S'y'
F762
sS'x'
F1035
sg19
I00
s(dp46
g17
S'curve'
p47
sS'x'
F847
sg19
I00
sS'y'
F715
s(dp48
g17
S'line'
p49
sS'x'
F848
sg19
I00
sS'y'
F715
s(dp50
S'y'
F662
sS'x'
F1012
sg19
I00
s(dp51
S'y'
F510
sS'x'
F1039
sg19
I00
s(dp52
g17
S'curve'
p53
sS'x'
F1159
sg19
I01
sS'y'
F214
s(dp54
g17
S'line'
p55
sS'x'
F1246
sg19
I00
sS'y'
F0
s(dp56
g17
S'line'
p57
sS'x'
F1061
sg19
I00
sS'y'
F0
s(dp58
g17
S'line'
p59
sS'x'
F896
sg19
I01
sS'y'
F419
s(dp60
S'y'
F600
sS'x'
F825
sg19
I00
s(dp61
S'y'
F652
sS'x'
F797
sg19
I00
s(dp62
g17
S'curve'
p63
sS'x'
F619
sg19
I01
sS'y'
F652
s(dp64
g17
S'line'
p65
sS'x'
F360
sg19
I00
sS'y'
F652
s(dp66
g17
S'line'
p67
sS'x'
F360
sg19
I00
sS'y'
F0
stp68
stp69
sS'components'
p70
(tsS'anchors'
p71
(tsss."
AnchorPoint: "top" 756 1456 basechar 0
LayerCount: 2
Fore
SplineSet
105 0 m 257
 283 1456 l 257
 778 1456 l 258
 1038 1456 1242 1399 1242 1136 c 0
 1242 1113 1240 1088 1237 1062 c 256
 1217 900 1117 762 909 715 c 257
 997 674 1049 587 1085 459 c 258
 1214 0 l 257
 965 0 l 257
 853 433 l 258
 814 586 774 630 629 630 c 258
 411 630 l 257
 335 0 l 257
 105 0 l 257
995 1098 m 0
 995 1228 915 1260 756 1260 c 258
 486 1260 l 257
 433 825 l 257
 680 825 l 258
 853 825 995 887 995 1098 c 0
EndSplineSet
EndChar

StartChar: S
Encoding: 83 83 125
Width: 1244
VWidth: 0
Flags: HW
PickledData: "(dp1
S'org.robofab.postScriptHintData'
p2
(dp3
sS'com.typemytype.robofont.layerData'
p4
(dp5
S'b'
(dp6
S'name'
p7
S'S'
sS'lib'
p8
(dp9
sS'unicodes'
p10
(tsS'width'
p11
F1211
sS'contours'
p12
((dp13
S'points'
p14
((dp15
S'segmentType'
p16
S'curve'
p17
sS'x'
F596
sS'smooth'
p18
I01
sS'y'
F-23
s(dp19
S'y'
F-23
sS'x'
F321
sg18
I00
s(dp20
S'y'
F120
sS'x'
F158
sg18
I00
s(dp21
g16
S'curve'
p22
sS'x'
F140
sg18
I00
sS'y'
F141
s(dp23
g16
S'line'
p24
sS'x'
F219
sg18
I00
sS'y'
F271
s(dp25
S'y'
F243
sS'x'
F256
sg18
I00
s(dp26
S'y'
F125
sS'x'
F393
sg18
I00
s(dp27
g16
S'curve'
p28
sS'x'
F595
sg18
I01
sS'y'
F125
s(dp29
S'y'
F125
sS'x'
F797
sg18
I00
s(dp30
S'y'
F204
sS'x'
F898
sg18
I00
s(dp31
g16
S'curve'
p32
sS'x'
F898
sg18
I01
sS'y'
F360
s(dp33
S'y'
F536
sS'x'
F898
sg18
I00
s(dp34
S'y'
F601
sS'x'
F709
sg18
I00
s(dp35
g16
S'curve'
p36
sS'x'
F521
sg18
I01
sS'y'
F681
s(dp37
S'y'
F761
sS'x'
F333
sg18
I00
s(dp38
S'y'
F857
sS'x'
F145
sg18
I00
s(dp39
g16
S'curve'
p40
sS'x'
F145
sg18
I01
sS'y'
F1095
s(dp41
S'y'
F1350
sS'x'
F145
sg18
I00
s(dp42
S'y'
F1483
sS'x'
F357
sg18
I00
s(dp43
g16
S'curve'
p44
sS'x'
F620
sg18
I01
sS'y'
F1483
s(dp45
S'y'
F1483
sS'x'
F891
sg18
I00
s(dp46
S'y'
F1362
sS'x'
F1009
sg18
I00
s(dp47
g16
S'curve'
p48
sS'x'
F1034
sg18
I00
sS'y'
F1335
s(dp49
g16
S'line'
p50
sS'x'
F951
sg18
I00
sS'y'
F1217
s(dp51
S'y'
F1242
sS'x'
F921
sg18
I00
s(dp52
S'y'
F1334
sS'x'
F819
sg18
I00
s(dp53
g16
S'curve'
p54
sS'x'
F640
sg18
I01
sS'y'
F1334
s(dp55
S'y'
F1334
sS'x'
F478
sg18
I00
s(dp56
S'y'
F1270
sS'x'
F328
sg18
I00
s(dp57
g16
S'curve'
p58
sS'x'
F328
sg18
I01
sS'y'
F1105
s(dp59
S'y'
F934
sS'x'
F328
sg18
I00
s(dp60
S'y'
F868
sS'x'
F515
sg18
I00
s(dp61
g16
S'curve'
p62
sS'x'
F703
sg18
I01
sS'y'
F785
s(dp63
S'y'
F702
sS'x'
F891
sg18
I00
s(dp64
S'y'
F602
sS'x'
F1078
sg18
I00
s(dp65
g16
S'curve'
p66
sS'x'
F1078
sg18
I01
sS'y'
F364
s(dp67
S'y'
F78
sS'x'
F1078
sg18
I00
s(dp68
S'y'
F-23
sS'x'
F868
sg18
I00
stp69
stp70
sS'components'
p71
(tsS'anchors'
p72
(tsss."
AnchorPoint: "top" 711 1456 basechar 0
LayerCount: 2
Fore
SplineSet
845 434 m 0
 845 518 803 567 628 629 c 256
 592 643 545 657 503 672 c 256
 283 747 168 837 168 1024 c 0
 168 1335 418 1483 715 1483 c 256
 984 1483 1095 1413 1178 1321 c 257
 1042 1167 l 257
 967 1248 845 1286 723 1286 c 256
 547 1286 415 1222 415 1055 c 0
 415 970 458 929 620 871 c 256
 659 858 708 842 750 827 c 256
 999 740 1090 645 1090 467 c 0
 1090 118 819 -23 525 -23 c 256
 307 -23 122 60 49 143 c 257
 169 309 l 257
 241 245 400 174 537 174 c 256
 738 174 845 258 845 434 c 0
EndSplineSet
EndChar

StartChar: T
Encoding: 84 84 132
Width: 1167
VWidth: 0
Flags: HW
PickledData: "(dp1
S'org.robofab.postScriptHintData'
p2
(dp3
sS'com.typemytype.robofont.layerData'
p4
(dp5
s."
AnchorPoint: "top" 679 1456 basechar 0
LayerCount: 2
Fore
SplineSet
377 0 m 257
 531 1260 l 257
 76 1260 l 257
 100 1456 l 257
 1245 1456 l 257
 1221 1260 l 257
 761 1260 l 257
 607 0 l 257
 377 0 l 257
EndSplineSet
EndChar

StartChar: Thorn
Encoding: 222 222 137
Width: 1292
VWidth: 0
Flags: HW
PickledData: "(dp1
S'org.robofab.postScriptHintData'
p2
(dp3
sS'com.typemytype.robofont.layerData'
p4
(dp5
s."
LayerCount: 2
Fore
SplineSet
584 336 m 258
 374 336 l 257
 333 0 l 257
 105 0 l 257
 283 1456 l 257
 512 1456 l 257
 483 1217 l 257
 663 1217 l 258
 979 1217 1226 1155 1226 854 c 0
 1226 483 926 336 584 336 c 258
977 822 m 0
 977 985 854 1023 652 1023 c 258
 458 1023 l 257
 398 531 l 257
 632 531 l 258
 837 531 977 617 977 822 c 0
EndSplineSet
EndChar

StartChar: U
Encoding: 85 85 138
Width: 1503
VWidth: 0
Flags: HW
PickledData: "(dp1
S'org.robofab.postScriptHintData'
p2
(dp3
sS'com.typemytype.robofont.layerData'
p4
(dp5
S'b'
(dp6
S'name'
p7
S'U'
sS'lib'
p8
(dp9
sS'unicodes'
p10
(tsS'width'
p11
F1496.9000000000001
sS'contours'
p12
(tsS'components'
p13
(tsS'anchors'
p14
(tsss."
AnchorPoint: "top" 840 1456 basechar 0
LayerCount: 2
Fore
SplineSet
660 -23 m 257
 261 -23 141 180 141 447 c 0
 141 491 144 537 150 583 c 258
 257 1456 l 257
 487 1456 l 257
 379 576 l 258
 375 541 373 510 373 480 c 0
 373 257 493 174 685 174 c 256
 899 174 1053 279 1090 575 c 258
 1198 1456 l 257
 1428 1456 l 257
 1321 584 l 258
 1279 249 1117 -23 660 -23 c 257
EndSplineSet
EndChar

StartChar: V
Encoding: 86 86 152
Width: 1363
VWidth: 0
Flags: HW
PickledData: "(dp1
S'org.robofab.postScriptHintData'
p2
(dp3
sS'com.typemytype.robofont.layerData'
p4
(dp5
S'b'
(dp6
S'name'
p7
S'V'
sS'lib'
p8
(dp9
sS'unicodes'
p10
(tsS'width'
p11
F1320.1500000000001
sS'contours'
p12
(tsS'components'
p13
(tsS'anchors'
p14
(tsss."
LayerCount: 2
Fore
SplineSet
478 0 m 257
 104 1456 l 257
 363 1456 l 257
 453 1068 540 677 634 293 c 257
 822 680 1007 1068 1194 1456 c 257
 1437 1456 l 257
 710 0 l 257
 478 0 l 257
EndSplineSet
EndChar

StartChar: W
Encoding: 87 87 153
Width: 2052
VWidth: 0
Flags: HW
PickledData: "(dp1
S'org.robofab.postScriptHintData'
p2
(dp3
sS'com.typemytype.robofont.layerData'
p4
(dp5
S'b'
(dp6
S'name'
p7
S'W'
sS'lib'
p8
(dp9
sS'unicodes'
p10
(tsS'width'
p11
F1988.8499999999999
sS'contours'
p12
(tsS'components'
p13
(tsS'anchors'
p14
(tsss."
AnchorPoint: "top" 1122 1456 basechar 0
LayerCount: 2
Fore
SplineSet
335 0 m 257
 105 1456 l 257
 351 1456 l 257
 404 1062 463 673 509 272 c 257
 668 674 843 1062 1010 1456 c 257
 1234 1456 l 257
 1307 1061 1386 672 1451 269 c 257
 1592 669 1742 1060 1887 1456 c 257
 2125 1456 l 257
 1549 0 l 257
 1282 0 l 257
 1077 1141 l 257
 598 0 l 257
 335 0 l 257
EndSplineSet
EndChar

StartChar: X
Encoding: 88 88 158
Width: 1345
VWidth: 0
Flags: HW
PickledData: "(dp1
S'org.robofab.postScriptHintData'
p2
(dp3
sS'com.typemytype.robofont.layerData'
p4
(dp5
S'b'
(dp6
S'name'
p7
S'X'
sS'lib'
p8
(dp9
sS'unicodes'
p10
(tsS'width'
p11
F1257.7
sS'contours'
p12
(tsS'components'
p13
(tsS'anchors'
p14
(tsss."
LayerCount: 2
Fore
SplineSet
-71 0 m 257
 542 738 l 257
 137 1456 l 257
 420 1456 l 257
 709 932 l 257
 1139 1456 l 257
 1404 1456 l 257
 817 747 l 257
 1240 0 l 257
 958 0 l 257
 651 554 l 257
 201 0 l 257
 -71 0 l 257
EndSplineSet
EndChar

StartChar: Y
Encoding: 89 89 159
Width: 1258
VWidth: 0
Flags: HW
PickledData: "(dp1
S'org.robofab.postScriptHintData'
p2
(dp3
sS'com.typemytype.robofont.layerData'
p4
(dp5
S'b'
(dp6
S'name'
p7
S'Y'
sS'lib'
p8
(dp9
sS'unicodes'
p10
(tsS'width'
p11
F1225.45
sS'contours'
p12
(tsS'components'
p13
(tsS'anchors'
p14
(tsss."
AnchorPoint: "top" 742 1456 basechar 0
LayerCount: 2
Fore
SplineSet
420 0 m 257
 490 567 l 257
 87 1456 l 257
 346 1456 l 257
 634 771 l 257
 1089 1456 l 257
 1353 1456 l 257
 720 570 l 257
 650 0 l 257
 420 0 l 257
EndSplineSet
EndChar

StartChar: Z
Encoding: 90 90 166
Width: 1192
VWidth: 0
Flags: HW
PickledData: "(dp1
S'org.robofab.postScriptHintData'
p2
(dp3
sS'com.typemytype.robofont.layerData'
p4
(dp5
S'b'
(dp6
S'name'
p7
S'Z'
sS'lib'
p8
(dp9
sS'unicodes'
p10
(tsS'width'
p11
F1179.45
sS'contours'
p12
(tsS'components'
p13
(tsS'anchors'
p14
(tsss."
AnchorPoint: "top" 709 1456 basechar 0
LayerCount: 2
Fore
SplineSet
-8 0 m 257
 7 124 l 257
 853 1260 l 257
 174 1260 l 257
 198 1456 l 257
 1192 1456 l 257
 1177 1336 l 257
 324 196 l 257
 1035 196 l 257
 1011 0 l 257
 -8 0 l 257
EndSplineSet
EndChar

StartChar: a
Encoding: 97 97 170
Width: 1284
VWidth: 0
Flags: HW
PickledData: "(dp1
S'org.robofab.postScriptHintData'
p2
(dp3
sS'com.typemytype.robofont.layerData'
p4
(dp5
S'b'
(dp6
S'name'
p7
S'a'
sS'lib'
p8
(dp9
sS'unicodes'
p10
(tsS'width'
p11
I1268
sS'contours'
p12
((dp13
S'points'
p14
((dp15
S'segmentType'
p16
S'curve'
p17
sS'x'
F595
sS'smooth'
p18
I01
sS'y'
F-22
s(dp19
S'y'
F-22
sS'x'
F262
sg18
I00
s(dp20
S'y'
F221
sS'x'
F100
sg18
I00
s(dp21
g16
S'curve'
p22
sS'x'
F100
sg18
I01
sS'y'
F518
s(dp23
S'y'
F824
sS'x'
F100
sg18
I00
s(dp24
S'y'
F1052
sS'x'
F287
sg18
I00
s(dp25
g16
S'curve'
p26
sS'x'
F603
sg18
I01
sS'y'
F1052
s(dp27
S'y'
F1052
sS'x'
F816
sg18
I00
s(dp28
S'y'
F903
sS'x'
F905
sg18
I00
s(dp29
g16
S'curve'
p30
sS'x'
F928
sg18
I00
sS'y'
F847
s(dp31
g16
S'line'
p32
sS'x'
F928
sg18
I00
sS'y'
F1026
s(dp33
g16
S'line'
p34
sS'x'
F1092
sg18
I00
sS'y'
F1026
s(dp35
g16
S'line'
p36
sS'x'
F1092
sg18
I00
sS'y'
F0
s(dp37
g16
S'line'
p38
sS'x'
F928
sg18
I00
sS'y'
F0
s(dp39
g16
S'line'
p40
sS'x'
F928
sg18
I00
sS'y'
F185
s(dp41
S'y'
F82
sS'x'
F881
sg18
I00
s(dp42
S'y'
F-22
sS'x'
F769
sg18
I00
stp43
s(dp44
g14
((dp45
g16
S'curve'
p46
sS'x'
F608
sg18
I01
sS'y'
F918
s(dp47
S'y'
F918
sS'x'
F359
sg18
I00
s(dp48
S'y'
F725
sS'x'
F270
sg18
I00
s(dp49
g16
S'curve'
p50
sS'x'
F270
sg18
I01
sS'y'
F516
s(dp51
S'y'
F308
sS'x'
F270
sg18
I00
s(dp52
S'y'
F112
sS'x'
F364
sg18
I00
s(dp53
g16
S'curve'
p54
sS'x'
F609
sg18
I01
sS'y'
F112
s(dp55
S'y'
F112
sS'x'
F813
sg18
I00
s(dp56
S'y'
F277
sS'x'
F934
sg18
I00
s(dp57
g16
S'curve'
p58
sS'x'
F934
sg18
I01
sS'y'
F526
s(dp59
S'y'
F734
sS'x'
F934
sg18
I00
s(dp60
S'y'
F918
sS'x'
F826
sg18
I00
stp61
stp62
sS'components'
p63
(tsS'anchors'
p64
(tsss."
AnchorPoint: "top" 701 1026 basechar 0
LayerCount: 2
Fore
SplineSet
535 -23 m 256
 236 -23 98 188 98 427 c 0
 98 453 100 480 103 506 c 256
 138 792 348 1052 671 1052 c 256
 813 1052 912 984 961 892 c 257
 978 1026 l 257
 1197 1026 l 257
 1071 0 l 257
 848 0 l 257
 867 154 l 257
 796 53 679 -23 535 -23 c 256
928 590 m 0
 928 755 849 871 673 871 c 256
 449 871 324 688 324 445 c 0
 324 280 403 159 589 159 c 256
 811 159 928 346 928 590 c 0
EndSplineSet
EndChar

StartChar: acute
Encoding: 180 180 175
Width: 607
VWidth: 0
Flags: HW
PickledData: "(dp1
S'org.robofab.postScriptHintData'
p2
(dp3
s."
AnchorPoint: "top" 108 1026 mark 0
LayerCount: 2
Fore
SplineSet
31 1170 m 257
 326 1510 l 257
 613 1510 l 257
 231 1170 l 257
 31 1170 l 257
EndSplineSet
EndChar

StartChar: ae
Encoding: 230 230 179
Width: 1782
VWidth: 0
Flags: HW
PickledData: "(dp1
S'org.robofab.postScriptHintData'
p2
(dp3
sS'com.typemytype.robofont.layerData'
p4
(dp5
S'b'
(dp6
S'name'
p7
S'ae'
p8
sS'lib'
p9
(dp10
sS'unicodes'
p11
(tsS'width'
p12
F1790.05
sS'contours'
p13
(tsS'components'
p14
((dp15
S'transformation'
p16
(I1
I0
I0
I1
I642
I0
tp17
sS'baseGlyph'
p18
S'e'
stp19
sS'anchors'
p20
(tsss."
AnchorPoint: "top" 958 1026 basechar 0
LayerCount: 2
Fore
SplineSet
1304 1052 m 0
 1568 1052 1682 873 1682 628 c 0
 1682 593 1679 558 1675 521 c 256
 1672 502 1665 475 1665 475 c 257
 974 475 l 257
 971 452 l 258
 970 441 970 430 970 420 c 0
 970 245 1058 159 1230 159 c 0
 1406 159 1559 269 1559 269 c 257
 1602 106 l 257
 1602 106 1433 -23 1198 -23 c 0
 1018 -23 884 48 828 196 c 257
 737 51 570 -24 404 -24 c 256
 188 -24 47 73 47 248 c 0
 47 262 48 275 50 290 c 256
 84 572 328 630 735 630 c 258
 773 630 l 257
 775 644 775 657 775 670 c 0
 775 792 706 875 566 875 c 256
 474 875 359 841 254 794 c 257
 208 946 l 257
 244 967 402 1052 630 1052 c 256
 743 1052 888 990 932 860 c 257
 1019 983 1166 1052 1304 1052 c 0
270 279 m 0
 270 191 347 157 439 157 c 256
 640 157 733 322 754 475 c 257
 634 475 l 258
 456 475 270 435 270 279 c 0
1492 657 m 0
 1492 801 1403 882 1286 882 c 256
 1136 882 1039 765 994 626 c 257
 1491 626 l 257
 1492 636 1492 646 1492 657 c 0
EndSplineSet
EndChar

StartChar: ampersand
Encoding: 38 38 185
Width: 1567
VWidth: 0
Flags: HW
PickledData: "(dp1
S'org.robofab.postScriptHintData'
p2
(dp3
sS'com.typemytype.robofont.layerData'
p4
(dp5
S'b'
(dp6
S'name'
p7
S'ampersand'
p8
sS'lib'
p9
(dp10
sS'unicodes'
p11
(tsS'width'
p12
F1539.95
sS'contours'
p13
(tsS'components'
p14
(tsS'anchors'
p15
(tsss."
LayerCount: 2
Fore
SplineSet
455 852 m 257
 383 944 333 1021 333 1124 c 0
 333 1356 525 1472 724 1472 c 256
 894 1472 1053 1389 1053 1210 c 0
 1053 1197 1053 1185 1051 1171 c 256
 1032 1020 896 898 748 811 c 257
 1026 459 l 257
 1118 594 1175 759 1195 928 c 257
 1396 887 l 257
 1369 682 1276 458 1151 300 c 257
 1227 208 1332 149 1441 117 c 257
 1279 -15 l 257
 1151 6 1082 70 1006 163 c 257
 885 58 727 -26 536 -26 c 256
 271 -26 78 115 78 357 c 0
 78 620 260 745 455 852 c 257
560 168 m 256
 699 168 800 228 890 306 c 257
 563 710 l 257
 433 641 305 557 305 387 c 0
 305 258 407 168 560 168 c 256
553 1129 m 0
 553 1061 582 1003 633 944 c 257
 735 1004 833 1075 833 1182 c 0
 833 1261 769 1290 710 1290 c 256
 621 1290 553 1237 553 1129 c 0
EndSplineSet
EndChar

StartChar: approxequal
Encoding: 8776 8776 187
Width: 1351
VWidth: 0
Flags: HW
PickledData: "(dp1
S'org.robofab.postScriptHintData'
p2
(dp3
sS'com.typemytype.robofont.layerData'
p4
(dp5
s."
LayerCount: 2
Fore
SplineSet
290 674 m 257
 141 732 l 257
 218 936 331 1014 478 1014 c 256
 562 1014 646 984 743 937 c 256
 829 896 900 873 949 873 c 256
 1019 873 1059 915 1106 1034 c 257
 1256 980 l 257
 1182 776 1086 693 933 693 c 256
 850 693 764 721 651 773 c 256
 579 806 515 833 464 833 c 256
 385 833 339 786 290 674 c 257
230 185 m 257
 82 246 l 257
 162 449 274 527 419 527 c 256
 505 527 594 492 687 451 c 257
 770 416 840 386 889 386 c 256
 959 386 1000 429 1046 547 c 257
 1197 492 l 257
 1123 289 1028 206 874 206 c 256
 794 206 705 236 593 287 c 257
 522 318 455 345 406 345 c 256
 325 345 279 299 230 185 c 257
EndSplineSet
EndChar

StartChar: asciicircum
Encoding: 94 94 190
Width: 1585
VWidth: 0
Flags: HW
PickledData: "(dp1
S'org.robofab.postScriptHintData'
p2
(dp3
sS'com.typemytype.robofont.layerData'
p4
(dp5
S'b'
(dp6
S'name'
p7
S'asciicircum'
p8
sS'lib'
p9
(dp10
sS'unicodes'
p11
(tsS'width'
p12
F1623.3499999999999
sS'contours'
p13
(tsS'components'
p14
(tsS'anchors'
p15
(tsss."
LayerCount: 2
Fore
SplineSet
161 544 m 257
 773 1456 l 257
 917 1456 l 257
 1313 544 l 257
 1090 544 l 257
 812 1205 l 257
 388 544 l 257
 161 544 l 257
EndSplineSet
EndChar

StartChar: asciitilde
Encoding: 126 126 191
Width: 1410
VWidth: 0
Flags: HW
PickledData: "(dp1
S'org.robofab.postScriptHintData'
p2
(dp3
sS'com.typemytype.robofont.layerData'
p4
(dp5
s."
LayerCount: 2
Fore
SplineSet
303 363 m 257
 158 437 l 257
 231 631 341 715 492 715 c 256
 574 715 668 681 764 641 c 257
 833 614 919 582 966 582 c 256
 1038 582 1082 635 1121 748 c 257
 1278 687 l 257
 1204 483 1104 394 953 394 c 256
 880 394 790 425 687 466 c 256
 625 490 532 528 480 528 c 256
 396 528 350 474 303 363 c 257
EndSplineSet
EndChar

StartChar: asterisk
Encoding: 42 42 192
Width: 1076
VWidth: 0
Flags: HW
PickledData: "(dp1
S'org.robofab.postScriptHintData'
p2
(dp3
sS'com.typemytype.robofont.guides'
p4
((dp5
S'y'
I1149
sS'x'
I567
sS'magnetic'
p6
I5
sS'angle'
p7
I0
sS'isGlobal'
p8
I00
stp9
sS'com.typemytype.robofont.layerData'
p10
(dp11
S'b'
(dp12
S'name'
p13
S'asterisk'
p14
sS'lib'
p15
(dp16
sS'unicodes'
p17
(tsS'width'
p18
F1107.9000000000001
sS'contours'
p19
(tsS'components'
p20
(tsS'anchors'
p21
(tsss."
LayerCount: 2
Fore
SplineSet
642 670 m 257
 508 924 l 257
 311 671 l 257
 159 784 l 257
 396 1018 l 257
 133 1118 l 257
 227 1283 l 257
 459 1160 l 257
 466 1456 l 257
 675 1456 l 257
 613 1160 l 257
 870 1283 l 257
 927 1118 l 257
 641 1018 l 257
 823 781 l 257
 642 670 l 257
EndSplineSet
EndChar

StartChar: at
Encoding: 64 64 193
Width: 1796
VWidth: 0
Flags: HW
PickledData: "(dp1
S'org.robofab.postScriptHintData'
p2
(dp3
sS'com.typemytype.robofont.layerData'
p4
(dp5
S'b'
(dp6
S'name'
p7
S'at'
p8
sS'lib'
p9
(dp10
sS'unicodes'
p11
(tsS'width'
p12
F1771.2
sS'contours'
p13
(tsS'components'
p14
(tsS'anchors'
p15
(tsss."
LayerCount: 2
Fore
SplineSet
1264 254 m 256
 1138 254 1073 325 1073 429 c 0
 1073 440 1074 451 1075 462 c 257
 1022 351 910 260 758 260 c 259
 600 260 469 361 469 564 c 0
 469 583 470 603 473 624 c 256
 513 928 786 1138 986 1138 c 256
 1087 1138 1161 1102 1180 1014 c 257
 1215 1116 l 257
 1409 1116 l 257
 1252 628 l 258
 1223 535 1214 495 1209 458 c 256
 1209 454 1208 450 1208 445 c 0
 1208 410 1222 371 1262 371 c 256
 1370 371 1558 600 1558 875 c 0
 1558 1179 1316 1332 1039 1332 c 256
 677 1332 343 1112 289 671 c 256
 285 639 283 608 283 579 c 0
 283 221 560 48 873 48 c 256
 1036 48 1216 95 1372 190 c 257
 1437 86 l 257
 1270 -37 1050 -97 840 -97 c 256
 407 -97 97 154 97 564 c 0
 97 599 99 634 104 671 c 256
 165 1175 591 1481 1051 1481 c 256
 1435 1481 1708 1238 1708 883 c 0
 1708 570 1487 254 1264 254 c 256
808 432 m 256
 952 432 1081 625 1106 821 c 256
 1107 830 1108 839 1108 848 c 0
 1108 927 1064 975 989 975 c 256
 832 975 707 764 686 593 c 256
 685 583 684 574 684 565 c 0
 684 484 732 432 808 432 c 256
EndSplineSet
EndChar

StartChar: b
Encoding: 98 98 195
Width: 1283
VWidth: 0
Flags: HW
PickledData: "(dp1
S'org.robofab.postScriptHintData'
p2
(dp3
sS'com.typemytype.robofont.layerData'
p4
(dp5
S'b'
(dp6
S'name'
p7
S'b'
sS'lib'
p8
(dp9
sS'unicodes'
p10
(tsS'width'
p11
F1270.0999999999999
sS'contours'
p12
(tsS'components'
p13
(tsS'anchors'
p14
(tsss."
AnchorPoint: "top" 772 1026 basechar 0
LayerCount: 2
Fore
SplineSet
613 -23 m 256
 456 -23 345 59 308 145 c 257
 291 0 l 257
 62 0 l 257
 90 179 99 242 103 272 c 258
 250 1469 l 257
 473 1469 l 257
 400 872 l 257
 434 935 552 1052 753 1052 c 256
 1012 1052 1160 878 1160 618 c 0
 1160 236 899 -23 613 -23 c 256
923 589 m 0
 923 752 846 871 688 871 c 256
 485 871 341 687 341 450 c 0
 341 283 426 159 598 159 c 256
 804 159 923 352 923 589 c 0
EndSplineSet
EndChar

StartChar: backslash
Encoding: 92 92 196
Width: 762
VWidth: 0
Flags: HW
PickledData: "(dp1
S'org.robofab.postScriptHintData'
p2
(dp3
sS'com.typemytype.robofont.layerData'
p4
(dp5
s."
LayerCount: 2
Fore
SplineSet
491 -48 m 257
 36 1456 l 257
 259 1456 l 257
 714 -48 l 257
 491 -48 l 257
EndSplineSet
EndChar

StartChar: bar
Encoding: 124 124 197
Width: 607
VWidth: 0
Flags: HW
PickledData: "(dp1
S'org.robofab.postScriptHintData'
p2
(dp3
sS'com.typemytype.robofont.layerData'
p4
(dp5
s."
LayerCount: 2
Fore
SplineSet
75 -465 m 257
 319 1518 l 257
 532 1518 l 257
 288 -465 l 257
 75 -465 l 257
EndSplineSet
EndChar

StartChar: braceleft
Encoding: 123 123 199
Width: 857
VWidth: 0
Flags: HW
PickledData: "(dp1
S'org.robofab.postScriptHintData'
p2
(dp3
sS'com.typemytype.robofont.layerData'
p4
(dp5
s."
LayerCount: 2
Fore
SplineSet
610 1146 m 258
 580 905 l 257
 564 768 479 680 346 659 c 257
 461 636 521 559 521 445 c 0
 521 431 520 415 518 400 c 258
 489 162 l 258
 486 141 485 122 485 105 c 0
 485 -6 544 -18 680 -19 c 257
 659 -194 l 257
 355 -193 254 -117 254 67 c 0
 254 94 256 123 260 154 c 258
 288 388 l 258
 290 408 292 425 292 442 c 0
 292 542 246 584 130 586 c 257
 148 735 l 257
 278 737 337 792 354 925 c 257
 382 1158 l 257
 413 1404 512 1514 869 1514 c 257
 848 1339 l 257
 680 1338 629 1305 610 1146 c 258
EndSplineSet
EndChar

StartChar: braceright
Encoding: 125 125 200
Width: 862
VWidth: 0
Flags: HW
PickledData: "(dp1
S'org.robofab.postScriptHintData'
p2
(dp3
sS'com.typemytype.robofont.layerData'
p4
(dp5
s."
LayerCount: 2
Fore
SplineSet
3 -194 m 257
 25 -18 l 257
 192 -17 243 16 262 175 c 258
 292 416 l 258
 309 553 394 641 526 663 c 257
 411 685 351 762 351 876 c 0
 351 890 352 906 354 921 c 258
 383 1159 l 258
 386 1180 387 1199 387 1216 c 0
 387 1327 328 1339 193 1340 c 257
 213 1514 l 257
 517 1513 619 1438 619 1253 c 0
 619 1226 617 1198 613 1167 c 258
 584 933 l 258
 582 913 580 896 580 879 c 0
 580 779 626 737 742 735 c 257
 724 586 l 257
 594 584 535 529 518 396 c 257
 490 163 l 257
 459 -83 360 -194 3 -194 c 257
EndSplineSet
EndChar

StartChar: bracketleft
Encoding: 91 91 201
Width: 636
VWidth: 0
Flags: HW
PickledData: "(dp1
S'org.robofab.postScriptHintData'
p2
(dp3
sS'com.typemytype.robofont.layerData'
p4
(dp5
s."
LayerCount: 2
Fore
SplineSet
50 -184 m 257
 255 1490 l 257
 672 1490 l 257
 651 1320 l 257
 458 1320 l 257
 294 -14 l 257
 489 -14 l 257
 468 -184 l 257
 50 -184 l 257
EndSplineSet
EndChar

StartChar: bracketright
Encoding: 93 93 202
Width: 636
VWidth: 0
Flags: HW
PickledData: "(dp1
S'org.robofab.postScriptHintData'
p2
(dp3
sS'com.typemytype.robofont.layerData'
p4
(dp5
s."
LayerCount: 2
Fore
SplineSet
0 -184 m 257
 21 -14 l 257
 210 -14 l 257
 373 1320 l 257
 184 1320 l 257
 205 1490 l 257
 618 1490 l 257
 414 -184 l 257
 0 -184 l 257
EndSplineSet
EndChar

StartChar: breve
Encoding: 728 728 203
Width: 668
VWidth: 0
Flags: HW
PickledData: "(dp1
S'org.robofab.postScriptHintData'
p2
(dp3
sS'com.typemytype.robofont.layerData'
p4
(dp5
S'b'
(dp6
S'name'
p7
S'breve'
p8
sS'lib'
p9
(dp10
sS'unicodes'
p11
(tsS'width'
p12
F621.60000000000002
sS'contours'
p13
(tsS'components'
p14
(tsS'anchors'
p15
(tsss."
AnchorPoint: "top" 304 1026 mark 0
LayerCount: 2
Fore
SplineSet
318 1174 m 256
 145 1174 47 1249 47 1427 c 0
 47 1436 47 1446 48 1456 c 257
 206 1456 l 257
 206 1452 206 1449 206 1445 c 0
 206 1352 266 1332 338 1332 c 256
 413 1332 476 1353 499 1456 c 257
 655 1456 l 257
 617 1257 500 1174 318 1174 c 256
EndSplineSet
EndChar

StartChar: brokenbar
Encoding: 166 166 204
Width: 500
VWidth: 0
Flags: HW
PickledData: "(dp1
S'org.robofab.postScriptHintData'
p2
(dp3
sS'com.typemytype.robofont.layerData'
p4
(dp5
s."
LayerCount: 2
Fore
SplineSet
30 -465 m 257
 137 409 l 257
 344 409 l 257
 237 -465 l 257
 30 -465 l 257
159 597 m 257
 272 1518 l 257
 479 1518 l 257
 366 597 l 257
 159 597 l 257
EndSplineSet
EndChar

StartChar: bullet
Encoding: 8226 8226 205
Width: 989
VWidth: 0
Flags: HW
PickledData: "(dp1
S'org.robofab.postScriptHintData'
p2
(dp3
sS'com.typemytype.robofont.layerData'
p4
(dp5
S'b'
(dp6
S'name'
p7
S'bullet'
p8
sS'lib'
p9
(dp10
sS'unicodes'
p11
(tsS'width'
p12
F989.64999999999998
sS'contours'
p13
(tsS'components'
p14
(tsS'anchors'
p15
(tsss."
LayerCount: 2
Fore
SplineSet
537 1010 m 257
 718 1010 837 881 837 724 c 0
 837 522 654 366 457 366 c 257
 273 366 161 492 161 646 c 0
 161 849 340 1010 537 1010 c 257
EndSplineSet
EndChar

StartChar: c
Encoding: 99 99 207
Width: 1073
VWidth: 0
Flags: HW
PickledData: "(dp1
S'org.robofab.postScriptHintData'
p2
(dp3
sS'com.typemytype.robofont.layerData'
p4
(dp5
S'b'
(dp6
S'name'
p7
S'c'
sS'lib'
p8
(dp9
sS'unicodes'
p10
(tsS'width'
p11
F1035.55
sS'contours'
p12
((dp13
S'points'
p14
((dp15
S'segmentType'
p16
S'curve'
p17
sS'x'
F605
sS'smooth'
p18
I01
sS'y'
F-22
s(dp19
S'y'
F-22
sS'x'
F302
sg18
I00
s(dp20
S'y'
F180
sS'x'
F98
sg18
I00
s(dp21
g16
S'curve'
p22
sS'x'
F98
sg18
I01
sS'y'
F503
s(dp23
S'y'
F840
sS'x'
F98
sg18
I00
s(dp24
S'y'
F1052
sS'x'
F301
sg18
I00
s(dp25
g16
S'curve'
p26
sS'x'
F624
sg18
I01
sS'y'
F1052
s(dp27
S'y'
F1052
sS'x'
F750
sg18
I00
s(dp28
S'y'
F1001
sS'x'
F871
sg18
I00
s(dp29
g16
S'curve'
p30
sS'x'
F938
sg18
I00
sS'y'
F922
s(dp31
g16
S'line'
p32
sS'x'
F890
sg18
I00
sS'y'
F805
s(dp33
S'y'
F874
sS'x'
F825
sg18
I00
s(dp34
S'y'
F918
sS'x'
F721
sg18
I00
s(dp35
g16
S'curve'
p36
sS'x'
F619
sg18
I01
sS'y'
F918
s(dp37
S'y'
F918
sS'x'
F406
sg18
I00
s(dp38
S'y'
F756
sS'x'
F268
sg18
I00
s(dp39
g16
S'curve'
p40
sS'x'
F268
sg18
I01
sS'y'
F505
s(dp41
S'y'
F260
sS'x'
F268
sg18
I00
s(dp42
S'y'
F112
sS'x'
F407
sg18
I00
s(dp43
g16
S'curve'
p44
sS'x'
F611
sg18
I01
sS'y'
F112
s(dp45
S'y'
F112
sS'x'
F716
sg18
I00
s(dp46
S'y'
F145
sS'x'
F827
sg18
I00
s(dp47
g16
S'curve'
p48
sS'x'
F901
sg18
I00
sS'y'
F202
s(dp49
g16
S'line'
p50
sS'x'
F953
sg18
I00
sS'y'
F87
s(dp51
S'y'
F19
sS'x'
F873
sg18
I00
s(dp52
S'y'
F-22
sS'x'
F747
sg18
I00
stp53
stp54
sS'components'
p55
(tsS'anchors'
p56
(tsss."
AnchorPoint: "top" 689 1026 basechar 0
LayerCount: 2
Fore
SplineSet
332 449 m 0
 332 272 434 159 613 159 c 256
 742 159 837 218 890 254 c 257
 939 90 l 257
 825 15 710 -23 568 -23 c 256
 265 -23 99 176 99 433 c 0
 99 458 101 484 104 510 c 256
 142 823 376 1052 701 1052 c 256
 852 1052 968 1007 1041 920 c 257
 944 774 l 257
 890 827 809 870 699 870 c 256
 492 870 332 712 332 449 c 0
EndSplineSet
EndChar

StartChar: caron
Encoding: 711 711 209
Width: 699
VWidth: 0
Flags: HW
PickledData: "(dp1
S'org.robofab.postScriptHintData'
p2
(dp3
s."
AnchorPoint: "top" 321 1026 mark 0
LayerCount: 2
Fore
SplineSet
235 1159 m 257
 14 1528 l 257
 228 1528 l 257
 344 1333 l 257
 510 1528 l 257
 732 1528 l 257
 421 1159 l 257
 235 1159 l 257
EndSplineSet
EndChar

StartChar: caron.alt
Encoding: 65537 -1 210
Width: 600
VWidth: 0
Flags: HW
PickledData: "(dp1
S'org.robofab.postScriptHintData'
p2
(dp3
s."
AnchorPoint: "caron.alt" -6 1026 mark 0
LayerCount: 2
Fore
SplineSet
271 963 m 257
 443 1456 l 257
 696 1456 l 257
 459 963 l 257
 271 963 l 257
EndSplineSet
EndChar

StartChar: cedilla
Encoding: 184 184 215
Width: 529
VWidth: 0
Flags: HW
PickledData: "(dp1
S'org.robofab.postScriptHintData'
p2
(dp3
sS'com.typemytype.robofont.layerData'
p4
(dp5
S'b'
(dp6
S'name'
p7
S'cedilla'
p8
sS'lib'
p9
(dp10
sS'unicodes'
p11
(tsS'width'
p12
I529
sS'contours'
p13
(tsS'components'
p14
(tsS'anchors'
p15
(tsss."
LayerCount: 2
Fore
SplineSet
308 -248 m 0
 308 -209 277 -173 163 -166 c 257
 136 -164 l 257
 191 23 l 257
 305 23 l 257
 271 -97 l 257
 424 -111 492 -173 492 -255 c 0
 492 -402 351 -476 201 -476 c 256
 134 -476 56 -459 2 -432 c 257
 30 -302 l 257
 65 -317 130 -333 185 -333 c 256
 250 -333 308 -310 308 -248 c 0
EndSplineSet
EndChar

StartChar: cent
Encoding: 162 162 216
Width: 1058
VWidth: 0
Flags: HW
PickledData: "(dp1
S'org.robofab.postScriptHintData'
p2
(dp3
sS'com.typemytype.robofont.layerData'
p4
(dp5
S'b'
(dp6
S'name'
p7
S'cent'
p8
sS'lib'
p9
(dp10
sS'unicodes'
p11
(tsS'width'
p12
F1033.2
sS'contours'
p13
(tsS'components'
p14
(tsS'anchors'
p15
(tsss."
LayerCount: 2
Fore
SplineSet
507 -230 m 1
 533 -22 l 1
 252 -7 99 186 99 433 c 0
 99 458 101 484 104 510 c 0
 141 811 359 1035 665 1051 c 1
 689 1250 l 1
 796 1250 l 1
 771 1048 l 1
 888 1036 980 993 1041 920 c 1
 944 774 l 1
 899 819 834 856 749 867 c 1
 663 162 l 1
 767 174 844 223 890 254 c 1
 939 90 l 1
 845 28 751 -8 641 -19 c 1
 615 -230 l 1
 507 -230 l 1
642 866 m 1
 466 841 332 688 332 449 c 0
 332 292 412 185 555 163 c 1
 642 866 l 1
EndSplineSet
EndChar

StartChar: circumflex
Encoding: 710 710 217
Width: 699
VWidth: 0
Flags: HW
PickledData: "(dp1
S'org.robofab.postScriptHintData'
p2
(dp3
sS'com.typemytype.robofont.layerData'
p4
(dp5
S'b'
(dp6
S'name'
p7
S'circumflex'
p8
sS'lib'
p9
(dp10
sS'unicodes'
p11
(tsS'width'
p12
I699
sS'contours'
p13
(tsS'components'
p14
(tsS'anchors'
p15
(tsss."
AnchorPoint: "top" 312 1026 mark 0
LayerCount: 2
Fore
SplineSet
-31 1159 m 257
 263 1527 l 257
 478 1527 l 257
 686 1159 l 257
 482 1159 l 257
 349 1355 l 257
 165 1159 l 257
 -31 1159 l 257
EndSplineSet
EndChar

StartChar: colon
Encoding: 58 58 218
Width: 571
VWidth: 0
Flags: HW
PickledData: "(dp1
S'org.robofab.postScriptHintData'
p2
(dp3
sS'com.typemytype.robofont.layerData'
p4
(dp5
S'b'
(dp6
S'name'
p7
S'colon'
p8
sS'lib'
p9
(dp10
sS'unicodes'
p11
(tsS'width'
p12
F544.60000000000002
sS'contours'
p13
(tsS'components'
p14
(tsS'anchors'
p15
(tsss."
LayerCount: 2
Fore
SplineSet
89 -7 m 257
 120 247 l 257
 387 247 l 257
 356 -7 l 257
 89 -7 l 257
196 858 m 257
 227 1111 l 257
 493 1111 l 257
 463 858 l 257
 196 858 l 257
EndSplineSet
EndChar

StartChar: comma
Encoding: 44 44 219
Width: 523
VWidth: 0
Flags: HW
PickledData: "(dp1
S'org.robofab.postScriptHintData'
p2
(dp3
sS'com.typemytype.robofont.layerData'
p4
(dp5
S'b'
(dp6
S'name'
p7
S'comma'
p8
sS'lib'
p9
(dp10
sS'unicodes'
p11
(tsS'width'
p12
F491.10000000000002
sS'contours'
p13
(tsS'components'
p14
(tsS'anchors'
p15
(tsss."
LayerCount: 2
Fore
SplineSet
29 -251 m 257
 201 250 l 257
 453 250 l 257
 216 -251 l 257
 29 -251 l 257
EndSplineSet
EndChar

StartChar: copyright
Encoding: 169 169 220
Width: 1719
VWidth: 0
Flags: HW
PickledData: "(dp1
S'org.robofab.postScriptHintData'
p2
(dp3
sS'com.typemytype.robofont.layerData'
p4
(dp5
S'b'
(dp6
S'name'
p7
S'copyright'
p8
sS'lib'
p9
(dp10
sS'unicodes'
p11
(tsS'width'
p12
I1733
sS'contours'
p13
(tsS'components'
p14
(tsS'anchors'
p15
(tsss."
LayerCount: 2
Fore
SplineSet
630 675 m 0
 630 526 720 436 863 436 c 256
 965 436 1043 482 1091 516 c 257
 1132 383 l 257
 1034 318 938 287 825 287 c 256
 583 287 438 450 438 662 c 0
 438 682 439 702 442 723 c 256
 473 981 666 1169 934 1169 c 256
 1058 1169 1154 1132 1214 1061 c 257
 1134 940 l 257
 1090 984 1023 1020 932 1020 c 256
 765 1020 630 890 630 675 c 0
780 87 m 256
 1127 87 1441 379 1485 727 c 256
 1488 753 1490 779 1490 805 c 0
 1490 1119 1259 1371 938 1371 c 256
 589 1371 275 1076 233 727 c 256
 230 700 228 673 228 646 c 0
 228 335 459 87 780 87 c 256
767 -22 m 257
 384 -22 100 267 100 638 c 0
 100 668 102 699 106 730 c 256
 157 1145 537 1483 951 1483 c 256
 1335 1483 1619 1194 1619 822 c 0
 1619 792 1617 761 1613 730 c 256
 1562 316 1182 -22 767 -22 c 257
EndSplineSet
EndChar

StartChar: currency
Encoding: 164 164 221
Width: 1218
VWidth: 0
Flags: HW
PickledData: "(dp1
S'org.robofab.postScriptHintData'
p2
(dp3
s."
LayerCount: 2
Fore
SplineSet
344 1276 m 257
 173 1471 l 257
 230 1522 l 257
 403 1326 l 257
 475 1378 564 1409 656 1409 c 256
 748 1409 828 1378 889 1327 c 257
 1108 1522 l 257
 1153 1471 l 257
 936 1278 l 257
 979 1221 1004 1151 1004 1072 c 0
 1004 949 955 856 882 779 c 257
 1045 594 l 257
 988 543 l 257
 825 729 l 257
 750 673 658 639 562 639 c 256
 466 639 382 673 321 730 c 257
 111 543 l 257
 66 594 l 257
 276 781 l 257
 237 836 215 903 215 977 c 0
 215 1103 268 1200 344 1276 c 257
913 1064 m 0
 913 1217 806 1331 646 1331 c 256
 462 1331 303 1181 303 979 c 0
 303 826 410 710 569 710 c 256
 751 710 913 863 913 1064 c 0
EndSplineSet
EndChar

StartChar: d
Encoding: 100 100 222
Width: 1267
VWidth: 0
Flags: HW
PickledData: "(dp1
S'org.robofab.postScriptHintData'
p2
(dp3
sS'com.typemytype.robofont.layerData'
p4
(dp5
S'b'
(dp6
S'name'
p7
S'd'
sS'lib'
p8
(dp9
sS'unicodes'
p10
(tsS'width'
p11
F1265.05
sS'contours'
p12
(tsS'components'
p13
(tsS'anchors'
p14
(tsss."
AnchorPoint: "caron.alt" 961 1026 basechar 0
AnchorPoint: "top" 597 1026 basechar 0
LayerCount: 2
Fore
SplineSet
483 -23 m 256
 243 -23 72 146 72 420 c 0
 72 448 74 477 78 508 c 256
 115 809 314 1052 630 1052 c 256
 792 1052 884 964 909 902 c 257
 979 1469 l 257
 1202 1469 l 257
 1055 270 l 258
 1050 232 1047 192 1030 0 c 257
 802 0 l 257
 817 147 l 257
 780 78 670 -23 483 -23 c 256
872 589 m 0
 872 751 797 871 634 871 c 256
 431 871 308 681 308 442 c 0
 308 280 379 159 545 159 c 256
 754 159 872 351 872 589 c 0
EndSplineSet
EndChar

StartChar: dagger
Encoding: 8224 8224 223
Width: 1022
VWidth: 0
Flags: HW
PickledData: "(dp1
S'org.robofab.postScriptHintData'
p2
(dp3
sS'com.typemytype.robofont.layerData'
p4
(dp5
s."
LayerCount: 2
Fore
SplineSet
332 64 m 257
 432 878 l 257
 106 878 l 257
 127 1049 l 257
 453 1049 l 257
 500 1436 l 257
 682 1436 l 257
 635 1049 l 257
 968 1049 l 257
 947 878 l 257
 611 878 l 257
 511 64 l 257
 332 64 l 257
EndSplineSet
EndChar

StartChar: daggerdbl
Encoding: 8225 8225 224
Width: 1140
VWidth: 0
Flags: HW
PickledData: "(dp1
S'org.robofab.postScriptHintData'
p2
(dp3
sS'com.typemytype.robofont.layerData'
p4
(dp5
S'b'
(dp6
S'name'
p7
S'daggerdbl'
p8
sS'lib'
p9
(dp10
sS'unicodes'
p11
(tsS'width'
p12
F1092.6500000000001
sS'contours'
p13
(tsS'components'
p14
(tsS'anchors'
p15
(tsss."
LayerCount: 2
Fore
SplineSet
184 1051 m 257
 520 1051 l 257
 569 1456 l 257
 765 1456 l 257
 716 1051 l 257
 1047 1051 l 257
 1028 899 l 257
 697 899 l 257
 651 524 l 257
 973 524 l 257
 955 378 l 257
 633 378 l 257
 581 -48 l 257
 385 -48 l 257
 437 378 l 257
 96 378 l 257
 114 524 l 257
 455 524 l 257
 501 899 l 257
 165 899 l 257
 184 1051 l 257
EndSplineSet
EndChar

StartChar: degree
Encoding: 176 176 228
Width: 874
VWidth: 0
Flags: HW
PickledData: "(dp1
S'org.robofab.postScriptHintData'
p2
(dp3
sS'com.typemytype.robofont.layerData'
p4
(dp5
S'b'
(dp6
S'name'
p7
S'degree'
p8
sS'lib'
p9
(dp10
sS'unicodes'
p11
(tsS'width'
p12
F856.60000000000002
sS'contours'
p13
(tsS'components'
p14
(tsS'anchors'
p15
(tsss."
LayerCount: 2
Fore
SplineSet
611 1180 m 0
 611 1267 552 1332 458 1332 c 256
 353 1332 264 1245 264 1131 c 0
 264 1043 322 978 415 978 c 256
 522 978 611 1064 611 1180 c 0
474 1460 m 256
 634 1460 749 1345 749 1193 c 0
 749 997 578 851 399 851 c 256
 241 851 125 965 125 1117 c 0
 125 1313 296 1460 474 1460 c 256
EndSplineSet
EndChar

StartChar: dieresis
Encoding: 168 168 229
Width: 743
VWidth: 0
Flags: HW
PickledData: "(dp1
S'org.robofab.postScriptHintData'
p2
(dp3
s."
AnchorPoint: "top" 345 1026 mark 0
LayerCount: 2
Fore
SplineSet
27 1165 m 257
 54 1380 l 257
 279 1380 l 257
 252 1165 l 257
 27 1165 l 257
463 1165 m 257
 490 1380 l 257
 714 1380 l 257
 687 1165 l 257
 463 1165 l 257
EndSplineSet
EndChar

StartChar: divide
Encoding: 247 247 230
Width: 1417
VWidth: 0
Flags: HW
PickledData: "(dp1
S'org.robofab.postScriptHintData'
p2
(dp3
sS'com.typemytype.robofont.layerData'
p4
(dp5
s."
LayerCount: 2
Fore
SplineSet
507 -7 m 257
 539 247 l 257
 772 247 l 257
 741 -7 l 257
 507 -7 l 257
155 459 m 257
 177 646 l 257
 1217 646 l 257
 1194 459 l 257
 155 459 l 257
610 850 m 257
 641 1103 l 257
 874 1103 l 257
 843 850 l 257
 610 850 l 257
EndSplineSet
EndChar

StartChar: dollar
Encoding: 36 36 232
Width: 1222
VWidth: 0
Flags: HW
PickledData: "(dp1
S'org.robofab.postScriptHintData'
p2
(dp3
sS'com.typemytype.robofont.layerData'
p4
(dp5
S'b'
(dp6
S'name'
p7
S'dollar'
p8
sS'lib'
p9
(dp10
sS'unicodes'
p11
(tsS'width'
p12
F1200.0999999999999
sS'contours'
p13
(tsS'components'
p14
(tsS'anchors'
p15
(tsss."
LayerCount: 2
Fore
SplineSet
661 1283 m 1
 515 1268 415 1203 415 1055 c 0
 415 971 456 930 610 874 c 1
 661 1283 l 1
617 179 m 1
 766 200 845 283 845 434 c 0
 845 511 810 558 670 613 c 1
 617 179 l 1
477 -211 m 1
 500 -23 l 1
 293 -17 119 63 49 143 c 1
 169 309 l 1
 239 247 390 178 524 174 c 1
 582 645 l 1
 556 654 529 663 503 672 c 0
 283 747 168 837 168 1024 c 0
 168 1325 401 1472 685 1482 c 1
 703 1628 l 1
 795 1628 l 1
 777 1482 l 1
 1002 1472 1102 1406 1178 1321 c 1
 1042 1167 l 1
 973 1241 865 1279 753 1285 c 1
 699 845 l 1
 716 839 734 833 750 827 c 0
 999 740 1090 645 1090 467 c 0
 1090 144 859 1 592 -20 c 1
 569 -211 l 1
 477 -211 l 1
EndSplineSet
EndChar

StartChar: dotaccent
Encoding: 729 729 233
Width: 524
VWidth: 0
Flags: HW
PickledData: "(dp1
S'org.robofab.postScriptHintData'
p2
(dp3
sS'com.typemytype.robofont.layerData'
p4
(dp5
S'b'
(dp6
S'name'
p7
S'dotaccent'
p8
sS'lib'
p9
(dp10
sS'unicodes'
p11
(tsS'width'
p12
F524
sS'contours'
p13
(tsS'components'
p14
(tsS'anchors'
p15
(tsss."
AnchorPoint: "top" 221 1026 mark 0
LayerCount: 2
Fore
SplineSet
134 1220 m 257
 159 1430 l 257
 381 1430 l 257
 356 1220 l 257
 134 1220 l 257
EndSplineSet
EndChar

StartChar: dotlessi
Encoding: 305 305 234
Width: 521
VWidth: 0
Flags: HW
PickledData: "(dp1
S'org.robofab.postScriptHintData'
p2
(dp3
sS'com.typemytype.robofont.layerData'
p4
(dp5
s."
AnchorPoint: "top" 320 1026 basechar 0
LayerCount: 2
Fore
SplineSet
80 0 m 257
 206 1026 l 257
 431 1026 l 257
 305 0 l 257
 80 0 l 257
EndSplineSet
EndChar

StartChar: dotlessj
Encoding: 567 567 235
Width: 544
VWidth: 0
Flags: HW
PickledData: "(dp1
S'org.robofab.postScriptHintData'
p2
(dp3
s."
AnchorPoint: "top" 381 1026 basechar 0
LayerCount: 2
Fore
SplineSet
-32 -394 m 256
 -107 -394 -165 -379 -186 -375 c 257
 -154 -208 l 257
 -136 -212 -88 -224 -40 -224 c 256
 63 -224 125 -161 149 32 c 258
 271 1026 l 257
 488 1026 l 257
 369 55 l 258
 341 -175 263 -394 -32 -394 c 256
EndSplineSet
EndChar

StartChar: e
Encoding: 101 101 238
Width: 1183
VWidth: 0
Flags: HW
PickledData: "(dp1
S'org.robofab.postScriptHintData'
p2
(dp3
sS'com.typemytype.robofont.guides'
p4
(tsS'com.typemytype.robofont.layerData'
p5
(dp6
S'b'
(dp7
S'name'
p8
S'e'
sS'lib'
p9
(dp10
sS'unicodes'
p11
(tsS'width'
p12
F1169.75
sS'contours'
p13
(tsS'components'
p14
(tsS'anchors'
p15
(tsssS'com.fontlab.hintData'
p16
(dp17
S'vhints'
p18
((dp19
S'position'
p20
I106
sg12
I195
stp21
sS'hhints'
p22
((dp23
g20
I-22
sg12
I154
s(dp24
g20
I486
sg12
I131
s(dp25
g20
I901
sg12
I151
stp26
ss."
HStem: -22 154 486 131 901 151
VStem: 106 195
AnchorPoint: "top" 695 1026 basechar 0
LayerCount: 2
Fore
SplineSet
1064 477 m 257
 334 477 l 257
 333 461 332 446 332 432 c 0
 332 245 450 159 623 159 c 256
 738 159 850 195 959 271 c 257
 1002 107 l 257
 874 19 740 -23 584 -23 c 256
 275 -23 99 157 99 428 c 0
 99 455 100 483 104 512 c 256
 140 809 366 1052 686 1052 c 256
 964 1052 1081 873 1081 628 c 0
 1081 574 1079 525 1064 477 c 257
356 628 m 257
 887 628 l 257
 887 630 887 632 887 634 c 0
 887 794 806 877 675 877 c 256
 524 877 405 783 356 628 c 257
EndSplineSet
EndChar

StartChar: eight
Encoding: 56 56 247
Width: 1258
VWidth: 0
Flags: HW
PickledData: "(dp1
S'org.robofab.postScriptHintData'
p2
(dp3
sS'com.typemytype.robofont.layerData'
p4
(dp5
S'b'
(dp6
S'name'
p7
S'eight'
p8
sS'lib'
p9
(dp10
sS'unicodes'
p11
(tsS'width'
p12
F1235.45
sS'contours'
p13
(tsS'components'
p14
(tsS'anchors'
p15
(tsss."
LayerCount: 2
Fore
SplineSet
858 761 m 257
 990 700 1081 575 1081 428 c 0
 1081 413 1080 398 1078 383 c 256
 1046 121 796 -23 541 -23 c 256
 287 -23 96 106 96 335 c 0
 96 352 97 370 99 389 c 256
 120 558 240 693 414 764 c 257
 297 825 215 922 215 1058 c 0
 215 1073 216 1087 218 1103 c 256
 247 1342 460 1483 720 1483 c 256
 976 1483 1137 1360 1137 1151 c 0
 1137 952 1019 828 858 761 c 257
562 169 m 256
 716 169 832 242 851 397 c 256
 852 406 853 415 853 424 c 0
 853 542 757 644 628 676 c 257
 466 641 329 528 329 360 c 0
 329 236 420 169 562 169 c 256
441 1071 m 0
 441 964 517 884 645 852 c 257
 792 890 892 980 908 1107 c 256
 909 1115 909 1122 909 1129 c 0
 909 1234 816 1292 698 1292 c 256
 563 1292 441 1221 441 1071 c 0
EndSplineSet
EndChar

StartChar: ellipsis
Encoding: 8230 8230 249
Width: 1620
VWidth: 0
Flags: HW
PickledData: "(dp1
S'org.robofab.postScriptHintData'
p2
(dp3
s."
LayerCount: 2
Fore
SplineSet
112 -11 m 257
 143 242 l 257
 420 242 l 257
 389 -11 l 257
 112 -11 l 257
639 -11 m 257
 670 242 l 257
 946 242 l 257
 916 -11 l 257
 639 -11 l 257
1165 -11 m 257
 1196 242 l 257
 1472 242 l 257
 1440 -11 l 257
 1165 -11 l 257
EndSplineSet
EndChar

StartChar: emdash
Encoding: 8212 8212 251
Width: 2171
VWidth: 0
Flags: HW
PickledData: "(dp1
S'org.robofab.postScriptHintData'
p2
(dp3
s."
LayerCount: 2
Fore
SplineSet
19 463 m 257
 42 648 l 257
 2152 648 l 257
 2129 463 l 257
 19 463 l 257
EndSplineSet
EndChar

StartChar: endash
Encoding: 8211 8211 252
Width: 1096
VWidth: 0
Flags: HW
PickledData: "(dp1
S'org.robofab.postScriptHintData'
p2
(dp3
sS'com.typemytype.robofont.layerData'
p4
(dp5
s."
LayerCount: 2
Fore
SplineSet
-14 467 m 257
 9 648 l 257
 1110 648 l 257
 1087 467 l 257
 -14 467 l 257
EndSplineSet
EndChar

StartChar: eng
Encoding: 331 331 253
Width: 1207
VWidth: 0
Flags: HW
PickledData: "(dp1
S'org.robofab.postScriptHintData'
p2
(dp3
sS'com.typemytype.robofont.layerData'
p4
(dp5
s."
LayerCount: 2
Fore
SplineSet
472 -406 m 256
 377 -406 273 -391 159 -362 c 257
 208 -190 l 257
 304 -217 397 -233 479 -233 c 256
 663 -233 788 -150 815 70 c 258
 878 582 l 258
 883 622 886 658 886 690 c 0
 886 812 844 870 721 870 c 256
 599 870 442 760 425 626 c 258
 348 0 l 257
 124 0 l 257
 207 677 l 258
 232 886 234 1026 234 1026 c 257
 470 1026 l 257
 452 880 l 257
 530 995 674 1052 789 1052 c 256
 1001 1052 1110 950 1110 707 c 0
 1110 667 1107 623 1101 575 c 258
 1045 118 l 258
 1003 -227 803 -406 472 -406 c 256
EndSplineSet
EndChar

StartChar: equal
Encoding: 61 61 255
Width: 1407
VWidth: 0
Flags: HW
PickledData: "(dp1
S'org.robofab.postScriptHintData'
p2
(dp3
sS'com.typemytype.robofont.layerData'
p4
(dp5
S'b'
(dp6
S'name'
p7
S'equal'
p8
sS'lib'
p9
(dp10
sS'unicodes'
p11
(tsS'width'
p12
I1229
sS'contours'
p13
(tsS'components'
p14
(tsS'anchors'
p15
(tsss."
LayerCount: 2
Fore
SplineSet
163 273 m 257
 186 455 l 257
 1194 455 l 257
 1172 273 l 257
 163 273 l 257
213 673 m 257
 235 856 l 257
 1242 856 l 257
 1219 673 l 257
 213 673 l 257
EndSplineSet
EndChar

StartChar: estimated
Encoding: 8494 8494 256
Width: 1203
VWidth: 0
Flags: HW
PickledData: "(dp1
S'org.robofab.postScriptHintData'
p2
(dp3
s."
LayerCount: 2
Fore
SplineSet
1069 655 m 257
 337 655 l 257
 332 614 329 576 329 541 c 0
 329 296 448 176 623 176 c 256
 725 176 850 218 985 299 c 257
 1006 247 l 257
 859 158 702 114 560 114 c 256
 299 114 89 265 89 565 c 0
 89 593 91 622 95 652 c 256
 144 1050 425 1199 678 1199 c 256
 891 1199 1085 1097 1085 798 c 0
 1085 752 1084 696 1069 655 c 257
346 713 m 257
 879 713 l 257
 884 756 887 795 887 830 c 0
 887 1062 781 1141 668 1141 c 256
 538 1141 387 1036 346 713 c 257
EndSplineSet
EndChar

StartChar: eth
Encoding: 240 240 257
Width: 1219
VWidth: 0
Flags: HW
PickledData: "(dp1
S'org.robofab.postScriptHintData'
p2
(dp3
sS'com.typemytype.robofont.layerData'
p4
(dp5
S'b'
(dp6
S'name'
p7
S'eth'
p8
sS'lib'
p9
(dp10
sS'unicodes'
p11
(tsS'width'
p12
F1222.55
sS'contours'
p13
(tsS'components'
p14
(tsS'anchors'
p15
(tsss."
LayerCount: 2
Fore
SplineSet
494 -23 m 257
 220 -23 63 164 63 399 c 0
 63 421 64 443 67 465 c 256
 100 728 306 906 584 906 c 256
 720 906 831 844 893 745 c 257
 894 754 895 768 895 786 c 0
 895 868 872 1027 727 1159 c 257
 467 1021 l 257
 414 1142 l 257
 608 1245 l 257
 538 1289 452 1325 353 1348 c 257
 449 1495 l 257
 537 1480 672 1434 796 1344 c 257
 1054 1480 l 257
 1106 1360 l 257
 903 1252 l 257
 1016 1132 1098 966 1098 745 c 0
 1098 707 1095 667 1090 625 c 256
 1036 185 818 -23 494 -23 c 257
295 406 m 0
 295 247 402 164 529 164 c 256
 672 164 806 273 828 459 c 256
 829 470 830 481 830 492 c 0
 830 633 713 719 589 719 c 256
 439 719 295 612 295 406 c 0
EndSplineSet
EndChar

StartChar: exclam
Encoding: 33 33 259
Width: 648
VWidth: 0
Flags: HW
PickledData: "(dp1
S'org.robofab.postScriptHintData'
p2
(dp3
sS'com.typemytype.robofont.layerData'
p4
(dp5
S'b'
(dp6
S'name'
p7
S'exclam'
p8
sS'lib'
p9
(dp10
sS'unicodes'
p11
(tsS'width'
p12
F590
sS'contours'
p13
(tsS'components'
p14
(tsS'anchors'
p15
(tsss."
LayerCount: 2
Fore
SplineSet
119 0 m 257
 149 251 l 257
 394 251 l 257
 363 0 l 257
 119 0 l 257
221 383 m 257
 286 1456 l 257
 551 1456 l 257
 353 383 l 257
 221 383 l 257
EndSplineSet
EndChar

StartChar: exclamdown
Encoding: 161 161 260
Width: 690
VWidth: 0
Flags: HW
PickledData: "(dp1
S'org.robofab.postScriptHintData'
p2
(dp3
sS'com.typemytype.robofont.layerData'
p4
(dp5
S'b'
(dp6
S'name'
p7
S'exclamdown'
p8
sS'lib'
p9
(dp10
sS'unicodes'
p11
(tsS'width'
p12
F614.5
sS'contours'
p13
(tsS'components'
p14
(tsS'anchors'
p15
(tsss."
LayerCount: 2
Fore
SplineSet
130 1152 m 257
 374 1152 l 257
 405 901 l 257
 160 901 l 257
 130 1152 l 257
232 769 m 257
 364 769 l 257
 562 -304 l 257
 297 -304 l 257
 232 769 l 257
EndSplineSet
EndChar

StartChar: f
Encoding: 102 102 261
Width: 784
VWidth: 0
Flags: HW
PickledData: "(dp1
S'org.robofab.postScriptHintData'
p2
(dp3
sS'com.typemytype.robofont.layerData'
p4
(dp5
S'b'
(dp6
S'name'
p7
S'f'
sS'lib'
p8
(dp9
sS'unicodes'
p10
(tsS'width'
p11
F733.10000000000002
sS'contours'
p12
(tsS'components'
p13
(tsS'anchors'
p14
(tsss."
AnchorPoint: "top" 466 1456 basechar 0
LayerCount: 2
Fore
SplineSet
166 0 m 257
 273 876 l 257
 86 876 l 257
 105 1026 l 257
 292 1026 l 257
 299 1080 l 257
 333 1360 385 1483 766 1483 c 258
 817 1483 l 257
 789 1310 l 257
 569 1310 546 1278 523 1089 c 258
 515 1026 l 257
 752 1026 l 257
 733 876 l 257
 497 876 l 257
 389 0 l 257
 166 0 l 257
EndSplineSet
EndChar

StartChar: f_f
Encoding: 64256 64256 262
Width: 1516
VWidth: 0
Flags: HW
PickledData: "(dp1
S'org.robofab.postScriptHintData'
p2
(dp3
sS'com.typemytype.robofont.layerData'
p4
(dp5
s."
LayerCount: 2
Fore
SplineSet
1232 881 m 257
 1124 0 l 257
 907 0 l 257
 1015 881 l 257
 490 881 l 257
 382 0 l 257
 165 0 l 257
 273 881 l 257
 87 881 l 257
 105 1026 l 257
 291 1026 l 257
 298 1084 l 258
 332 1361 385 1483 761 1483 c 258
 811 1483 l 257
 785 1315 l 257
 562 1315 539 1281 516 1095 c 257
 508 1026 l 257
 1033 1026 l 257
 1040 1084 l 258
 1074 1361 1127 1483 1503 1483 c 258
 1553 1483 l 257
 1527 1315 l 257
 1304 1315 1281 1281 1258 1095 c 257
 1250 1026 l 257
 1488 1026 l 257
 1470 881 l 257
 1232 881 l 257
EndSplineSet
EndChar

StartChar: f_f_i
Encoding: 64259 64259 263
Width: 2023
VWidth: 0
Flags: HW
PickledData: "(dp1
S'org.robofab.postScriptHintData'
p2
(dp3
sS'com.typemytype.robofont.layerData'
p4
(dp5
s."
LayerCount: 2
Fore
SplineSet
1778 0 m 257
 1565 0 l 257
 1673 881 l 257
 1223 881 l 257
 1115 0 l 257
 898 0 l 257
 1006 881 l 257
 490 881 l 257
 382 0 l 257
 165 0 l 257
 273 881 l 257
 87 881 l 257
 105 1026 l 257
 291 1026 l 257
 298 1084 l 258
 332 1361 385 1483 761 1483 c 258
 811 1483 l 257
 785 1314 l 257
 562 1314 539 1280 516 1094 c 257
 508 1026 l 257
 1024 1026 l 257
 1032 1084 l 257
 1065 1361 1118 1483 1494 1483 c 258
 1544 1483 l 257
 1517 1314 l 257
 1294 1314 1272 1280 1249 1094 c 257
 1241 1026 l 257
 1904 1026 l 257
 1778 0 l 257
1932 1261 m 257
 1720 1261 l 257
 1744 1456 l 257
 1957 1456 l 257
 1932 1261 l 257
EndSplineSet
EndChar

StartChar: f_f_l
Encoding: 64260 64260 264
Width: 2055
VWidth: 0
Flags: HW
PickledData: "(dp1
S'org.robofab.postScriptHintData'
p2
(dp3
sS'com.typemytype.robofont.layerData'
p4
(dp5
s."
AnchorPoint: "top" 466 1456 basechar 0
LayerCount: 2
Fore
SplineSet
166 0 m 257
 274 881 l 257
 87 881 l 257
 105 1026 l 257
 292 1026 l 257
 299 1080 l 257
 333 1360 385 1483 766 1483 c 258
 817 1483 l 257
 789 1310 l 257
 569 1310 546 1278 523 1089 c 258
 515 1026 l 257
 825 1026 l 257
 807 881 l 257
 497 881 l 257
 389 0 l 257
 166 0 l 257
EndSplineSet
Refer: 269 64258 N 1 0 0 1 645 0 2
EndChar

StartChar: fi
Encoding: 64257 64257 266
Width: 1260
VWidth: 0
Flags: HW
PickledData: "(dp1
S'org.robofab.postScriptHintData'
p2
(dp3
sS'com.typemytype.robofont.layerData'
p4
(dp5
S'b'
(dp6
S'name'
p7
S'fi'
p8
sS'lib'
p9
(dp10
sS'unicodes'
p11
(tsS'width'
p12
F1237.6500000000001
sS'contours'
p13
((dp14
S'points'
p15
((dp16
S'segmentType'
p17
S'line'
p18
sS'x'
F249
sS'smooth'
p19
I00
sS'y'
F0
s(dp20
g17
S'line'
p21
sS'x'
F249
sg19
I00
sS'y'
F919
s(dp22
g17
S'line'
p23
sS'x'
F68
sg19
I00
sS'y'
F919
s(dp24
g17
S'line'
p25
sS'x'
F68
sg19
I00
sS'y'
F1026
s(dp26
g17
S'line'
p27
sS'x'
F249
sg19
I00
sS'y'
F1026
s(dp28
g17
S'line'
p29
sS'x'
F249
sg19
I01
sS'y'
F1127
s(dp30
S'y'
F1378
sS'x'
F249
sg19
I00
s(dp31
S'y'
F1492
sS'x'
F295
sg19
I00
s(dp32
g17
S'curve'
p33
sS'x'
F630
sg19
I01
sS'y'
F1492
s(dp34
g17
S'line'
p35
sS'x'
F676
sg19
I00
sS'y'
F1492
s(dp36
g17
S'line'
p37
sS'x'
F676
sg19
I00
sS'y'
F1364
s(dp38
S'y'
F1364
sS'x'
F431
sg19
I00
s(dp39
S'y'
F1311
sS'x'
F413
sg19
I00
s(dp40
g17
S'curve'
p41
sS'x'
F413
sg19
I01
sS'y'
F1150
s(dp42
g17
S'line'
p43
sS'x'
F413
sg19
I00
sS'y'
F1026
s(dp44
g17
S'line'
p45
sS'x'
F662
sg19
I00
sS'y'
F1026
s(dp46
g17
S'line'
p47
sS'x'
F662
sg19
I00
sS'y'
F919
s(dp48
g17
S'line'
p49
sS'x'
F413
sg19
I00
sS'y'
F919
s(dp50
g17
S'line'
p51
sS'x'
F413
sg19
I00
sS'y'
F0
stp52
s(dp53
g15
((dp54
g17
S'line'
p55
sS'x'
F869
sg19
I00
sS'y'
F0
s(dp56
g17
S'line'
p57
sS'x'
F869
sg19
I00
sS'y'
F1026
s(dp58
g17
S'line'
p59
sS'x'
F1033
sg19
I00
sS'y'
F1026
s(dp60
g17
S'line'
p61
sS'x'
F1033
sg19
I00
sS'y'
F0
stp62
s(dp63
g15
((dp64
g17
S'line'
p65
sS'x'
F869
sg19
I00
sS'y'
F1307
s(dp66
g17
S'line'
p67
sS'x'
F869
sg19
I00
sS'y'
F1462
s(dp68
g17
S'line'
p69
sS'x'
F1033
sg19
I00
sS'y'
F1462
s(dp70
g17
S'line'
p71
sS'x'
F1033
sg19
I00
sS'y'
F1307
stp72
stp73
sS'components'
p74
(tsS'anchors'
p75
(tsss."
LayerCount: 2
Fore
SplineSet
165 0 m 257
 273 881 l 257
 87 881 l 257
 105 1026 l 257
 291 1026 l 257
 298 1084 l 258
 332 1361 385 1483 761 1483 c 258
 811 1483 l 257
 785 1315 l 257
 562 1315 539 1281 516 1095 c 257
 508 1026 l 257
 955 1026 l 257
 937 881 l 257
 490 881 l 257
 382 0 l 257
 165 0 l 257
EndSplineSet
Refer: 295 105 N 1 0 0 1 734 0 2
EndChar

StartChar: five
Encoding: 53 53 267
Width: 1256
VWidth: 0
Flags: HW
PickledData: "(dp1
S'org.robofab.postScriptHintData'
p2
(dp3
sS'com.typemytype.robofont.layerData'
p4
(dp5
s."
LayerCount: 2
Fore
SplineSet
868 523 m 0
 868 648 804 751 678 751 c 256
 603 751 521 728 478 674 c 257
 255 698 l 257
 349 1456 l 257
 1148 1456 l 257
 1124 1259 l 257
 531 1259 l 257
 470 860 l 257
 537 931 640 956 741 956 c 259
 966 956 1106 783 1106 545 c 0
 1106 181 821 -23 527 -23 c 256
 364 -23 203 36 95 165 c 257
 233 337 l 257
 316 223 435 174 547 174 c 256
 719 174 868 305 868 523 c 0
EndSplineSet
EndChar

StartChar: fl
Encoding: 64258 64258 269
Width: 1270
VWidth: 0
Flags: HW
PickledData: "(dp1
S'org.robofab.postScriptHintData'
p2
(dp3
sS'com.typemytype.robofont.layerData'
p4
(dp5
S'b'
(dp6
S'name'
p7
S'fl'
p8
sS'lib'
p9
(dp10
sS'unicodes'
p11
(tsS'width'
p12
F1252.7
sS'contours'
p13
(tsS'components'
p14
((dp15
S'transformation'
p16
(I1
I0
I0
I1
I20
I0
tp17
sS'baseGlyph'
p18
S'f'
s(dp19
g16
(I1
I0
I0
I1
I714
I0
tp20
sg18
S'l'
stp21
sS'anchors'
p22
(tsss."
LayerCount: 2
Fore
SplineSet
172 0 m 257
 280 881 l 257
 88 881 l 257
 106 1026 l 257
 298 1026 l 257
 303 1069 l 257
 337 1346 432 1464 791 1464 c 258
 1208 1464 l 257
 1028 0 l 257
 812 0 l 257
 971 1296 l 257
 802 1296 l 258
 589 1296 542 1251 524 1111 c 257
 514 1026 l 257
 752 1026 l 257
 735 881 l 257
 497 881 l 257
 388 0 l 257
 172 0 l 257
EndSplineSet
EndChar

StartChar: florin
Encoding: 402 402 270
Width: 1095
VWidth: 0
Flags: HW
PickledData: "(dp1
S'org.robofab.postScriptHintData'
p2
(dp3
sS'com.typemytype.robofont.layerData'
p4
(dp5
S'b'
(dp6
S'name'
p7
S'florin'
p8
sS'lib'
p9
(dp10
sS'unicodes'
p11
(tsS'width'
p12
F1073.0999999999999
sS'contours'
p13
(tsS'components'
p14
(tsS'anchors'
p15
(tsss."
LayerCount: 2
Fore
SplineSet
95 -309 m 256
 85 -309 35 -305 -11 -291 c 257
 26 -126 l 257
 35 -128 72 -136 108 -136 c 256
 172 -136 243 -106 295 67 c 258
 489 705 l 257
 344 705 l 257
 395 850 l 257
 533 850 l 257
 614 1115 l 257
 661 1264 745 1458 1005 1458 c 256
 1120 1458 1179 1417 1179 1417 c 257
 1142 1257 l 257
 1125 1262 1071 1277 1027 1277 c 256
 955 1277 889 1245 848 1119 c 257
 763 850 l 257
 945 850 l 257
 898 705 l 257
 714 705 l 257
 519 61 l 258
 439 -205 316 -309 95 -309 c 256
EndSplineSet
EndChar

StartChar: foundryicon
Encoding: 65542 -1 271
Width: 1347
VWidth: 0
Flags: HW
PickledData: "(dp1
S'org.robofab.postScriptHintData'
p2
(dp3
s."
LayerCount: 2
Fore
SplineSet
280 2 m 1
 423 461 l 1
 34 755 l 1
 519 755 l 1
 669 1215 l 1
 828 755 l 1
 1313 755 l 1
 922 461 l 1
 1066 2 l 1
 669 278 l 1
 280 2 l 1
485 405 m 1
 591 405 l 1
 591 552 l 1
 761 405 l 1
 867 405 l 1
 867 672 l 1
 761 672 l 1
 761 523 l 1
 591 672 l 1
 485 672 l 1
 485 405 l 1
EndSplineSet
EndChar

StartChar: four
Encoding: 52 52 272
Width: 1256
VWidth: 0
Flags: HW
PickledData: "(dp1
S'org.robofab.postScriptHintData'
p2
(dp3
sS'com.typemytype.robofont.layerData'
p4
(dp5
S'b'
(dp6
S'name'
p7
S'four'
p8
sS'lib'
p9
(dp10
sS'unicodes'
p11
(tsS'width'
p12
F1234.0999999999999
sS'contours'
p13
(tsS'components'
p14
(tsS'anchors'
p15
(tsss."
LayerCount: 2
Fore
SplineSet
649 0 m 257
 696 383 l 257
 65 383 l 257
 84 542 l 257
 786 1456 l 257
 1050 1456 l 257
 940 556 l 257
 1165 556 l 257
 1144 383 l 257
 922 383 l 257
 875 0 l 257
 649 0 l 257
332 556 m 257
 718 556 l 257
 797 1196 l 257
 644 981 487 769 332 556 c 257
EndSplineSet
EndChar

StartChar: foursuperior
Encoding: 8308 8308 273
Width: 1032
VWidth: 0
Flags: HW
PickledData: "(dp1
S'org.robofab.postScriptHintData'
p2
(dp3
sS'com.typemytype.robofont.layerData'
p4
(dp5
s."
LayerCount: 2
Fore
SplineSet
532 650 m 257
 556 841 l 257
 183 841 l 257
 196 946 l 257
 626 1456 l 257
 790 1456 l 257
 730 965 l 257
 844 965 l 257
 829 841 l 257
 714 841 l 257
 690 650 l 257
 532 650 l 257
365 965 m 257
 569 965 l 257
 604 1253 l 257
 365 965 l 257
EndSplineSet
EndChar

StartChar: fraction
Encoding: 8260 8260 274
Width: 1110
VWidth: 0
Flags: HW
PickledData: "(dp1
S'org.robofab.postScriptHintData'
p2
(dp3
sS'com.typemytype.robofont.layerData'
p4
(dp5
S'b'
(dp6
S'name'
p7
S'fraction'
p8
sS'lib'
p9
(dp10
sS'unicodes'
p11
(tsS'width'
p12
F1077.8
sS'contours'
p13
(tsS'components'
p14
(tsS'anchors'
p15
(tsss."
LayerCount: 2
Fore
SplineSet
-77 0 m 257
 992 1456 l 257
 1211 1456 l 257
 144 0 l 257
 -77 0 l 257
EndSplineSet
EndChar

StartChar: g
Encoding: 103 103 275
Width: 1253
VWidth: 0
Flags: HW
PickledData: "(dp1
S'org.robofab.postScriptHintData'
p2
(dp3
sS'com.typemytype.robofont.layerData'
p4
(dp5
S'b'
(dp6
S'name'
p7
S'g'
sS'lib'
p8
(dp9
sS'unicodes'
p10
(tsS'width'
p11
I1254
sS'contours'
p12
((dp13
S'points'
p14
((dp15
S'segmentType'
p16
S'curve'
p17
sS'x'
F580
sS'smooth'
p18
I01
sS'y'
F134
s(dp19
S'y'
F134
sS'x'
F799
sg18
I00
s(dp20
S'y'
F295
sS'x'
F920
sg18
I00
s(dp21
g16
S'curve'
p22
sS'x'
F920
sg18
I01
sS'y'
F550
s(dp23
S'y'
F775
sS'x'
F920
sg18
I00
s(dp24
S'y'
F918
sS'x'
F796
sg18
I00
s(dp25
g16
S'curve'
p26
sS'x'
F600
sg18
I01
sS'y'
F918
s(dp27
S'y'
F918
sS'x'
F399
sg18
I00
s(dp28
S'y'
F762
sS'x'
F268
sg18
I00
s(dp29
g16
S'curve'
p30
sS'x'
F268
sg18
I01
sS'y'
F515
s(dp31
S'y'
F282
sS'x'
F268
sg18
I00
s(dp32
S'y'
F134
sS'x'
F389
sg18
I00
stp33
s(dp34
g14
((dp35
g16
S'curve'
p36
sS'x'
F534
sg18
I01
sS'y'
F-420
s(dp37
S'y'
F-420
sS'x'
F408
sg18
I00
s(dp38
S'y'
F-381
sS'x'
F289
sg18
I00
s(dp39
g16
S'curve'
p40
sS'x'
F189
sg18
I00
sS'y'
F-331
s(dp41
g16
S'line'
p42
sS'x'
F216
sg18
I00
sS'y'
F-187
s(dp43
S'y'
F-238
sS'x'
F300
sg18
I00
s(dp44
S'y'
F-282
sS'x'
F416
sg18
I00
s(dp45
g16
S'curve'
p46
sS'x'
F528
sg18
I01
sS'y'
F-282
s(dp47
S'y'
F-282
sS'x'
F790
sg18
I00
s(dp48
S'y'
F-183
sS'x'
F920
sg18
I00
s(dp49
g16
S'curve'
p50
sS'x'
F920
sg18
I01
sS'y'
F49
s(dp51
g16
S'line'
p52
sS'x'
F920
sg18
I00
sS'y'
F273
s(dp53
g16
S'line'
p54
sS'x'
F948
sg18
I00
sS'y'
F253
s(dp55
S'y'
F139
sS'x'
F905
sg18
I00
s(dp56
S'y'
F0
sS'x'
F802
sg18
I00
s(dp57
g16
S'curve'
p58
sS'x'
F579
sg18
I01
sS'y'
F0
s(dp59
S'y'
F0
sS'x'
F298
sg18
I00
s(dp60
S'y'
F201
sS'x'
F98
sg18
I00
s(dp61
g16
S'curve'
p62
sS'x'
F98
sg18
I01
sS'y'
F511
s(dp63
S'y'
F843
sS'x'
F98
sg18
I00
s(dp64
S'y'
F1052
sS'x'
F284
sg18
I00
s(dp65
g16
S'curve'
p66
sS'x'
F579
sg18
I01
sS'y'
F1052
s(dp67
S'y'
F1052
sS'x'
F820
sg18
I00
s(dp68
S'y'
F900
sS'x'
F903
sg18
I00
s(dp69
g16
S'curve'
p70
sS'x'
F958
sg18
I00
sS'y'
F798
s(dp71
g16
S'line'
p72
sS'x'
F919
sg18
I00
sS'y'
F787
s(dp73
g16
S'line'
p74
sS'x'
F926
sg18
I00
sS'y'
F1026
s(dp75
g16
S'line'
p76
sS'x'
F1090
sg18
I00
sS'y'
F1026
s(dp77
S'y'
F1026
sS'x'
F1090
sg18
I00
s(dp78
S'y'
F857
sS'x'
F1084
sg18
I00
s(dp79
g16
S'curve'
p80
sS'x'
F1084
sg18
I01
sS'y'
F773
s(dp81
g16
S'line'
p82
sS'x'
F1084
sg18
I01
sS'y'
F143
s(dp83
S'y'
F-255
sS'x'
F1084
sg18
I00
s(dp84
S'y'
F-420
sS'x'
F903
sg18
I00
stp85
stp86
sS'components'
p87
(tsS'anchors'
p88
(tsss."
AnchorPoint: "top" 666 1026 basechar 0
LayerCount: 2
Fore
SplineSet
486 -414 m 256
 349 -414 226 -388 108 -332 c 257
 169 -138 l 257
 283 -209 389 -232 496 -232 c 256
 693 -232 826 -138 850 59 c 258
 862 156 l 257
 809 90 707 12 551 12 c 263
 304.677734375 12 123 171 123 435 c 0
 123 461 125 487 128 515 c 256
 165 811 353 1052 676 1052 c 256
 826 1052 913 980 954 900 c 257
 970 1026 l 257
 1205 1026 l 257
 1205 1026 1170 870 1150 708 c 258
 1081 147 l 258
 1047 -129 906 -414 486 -414 c 256
357 444 m 0
 357 281 435 183 596 183 c 256
 801 183 893 344 916 528 c 256
 919 553 921 578 921 601 c 0
 921 761 845 871 688 871 c 256
 483 871 357 679 357 444 c 0
EndSplineSet
EndChar

StartChar: germandbls
Encoding: 223 223 282
Width: 1259
VWidth: 0
Flags: HW
PickledData: "(dp1
S'org.robofab.postScriptHintData'
p2
(dp3
sS'com.typemytype.robofont.layerData'
p4
(dp5
S'b'
(dp6
S'name'
p7
S'germandbls'
p8
sS'lib'
p9
(dp10
sS'unicodes'
p11
(tsS'width'
p12
F1250.95145088
sS'contours'
p13
(tsS'components'
p14
(tsS'anchors'
p15
(tsss."
LayerCount: 2
Fore
SplineSet
899 370 m 0
 899 516 787 613 564 725 c 257
 585 893 l 257
 729 951 830 1041 844 1158 c 256
 845 1164 845 1171 845 1177 c 0
 845 1261 775 1310 676 1310 c 256
 530 1310 430 1197 407 1011 c 258
 283 0 l 257
 65 0 l 257
 186 1010 l 258
 224 1327 420 1488 698 1488 c 256
 937 1488 1086 1375 1086 1206 c 0
 1086 1011 934 877 742 817 c 257
 953 764 1146 630 1146 403 c 0
 1146 140 940 -22 727 -22 c 256
 548 -22 408 37 408 37 c 257
 468 212 l 258
 468 212 582 156 693 156 c 0
 812 156 899 225 899 370 c 0
EndSplineSet
EndChar

StartChar: grave
Encoding: 96 96 283
Width: 604
VWidth: 0
Flags: HW
PickledData: "(dp1
S'org.robofab.postScriptHintData'
p2
(dp3
sS'com.typemytype.robofont.layerData'
p4
(dp5
s."
AnchorPoint: "top" 415 1026 mark 0
LayerCount: 2
Fore
SplineSet
333 1170 m 257
 29 1511 l 257
 317 1511 l 257
 533 1170 l 257
 333 1170 l 257
EndSplineSet
EndChar

StartChar: greater
Encoding: 62 62 284
Width: 1356
VWidth: 0
Flags: HW
PickledData: "(dp1
S'org.robofab.postScriptHintData'
p2
(dp3
sS'com.typemytype.robofont.layerData'
p4
(dp5
S'b'
(dp6
S'name'
p7
S'greater'
p8
sS'lib'
p9
(dp10
sS'unicodes'
p11
(tsS'width'
p12
F1268.05
sS'contours'
p13
(tsS'components'
p14
(tsS'anchors'
p15
(tsss."
LayerCount: 2
Fore
SplineSet
150 51 m 257
 176 260 l 257
 925 569 l 257
 259 899 l 257
 284 1105 l 257
 1230 616 l 257
 1215 502 l 257
 150 51 l 257
EndSplineSet
EndChar

StartChar: greaterequal
Encoding: 8805 8805 285
Width: 1351
VWidth: 0
Flags: HW
PickledData: "(dp1
S'org.robofab.postScriptHintData'
p2
(dp3
sS'com.typemytype.robofont.layerData'
p4
(dp5
S'b'
(dp6
S'name'
p7
S'greaterequal'
p8
sS'lib'
p9
(dp10
sS'unicodes'
p11
(tsS'width'
p12
F1350.3499999999999
sS'contours'
p13
(tsS'components'
p14
(tsS'anchors'
p15
(tsss."
LayerCount: 2
Fore
SplineSet
90 243 m 257
 115 449 l 257
 872 769 l 257
 198 1091 l 257
 223 1294 l 257
 1170 823 l 257
 1156 716 l 257
 90 243 l 257
52 0 m 257
 72 163 l 257
 1106 163 l 257
 1086 0 l 257
 52 0 l 257
EndSplineSet
EndChar

StartChar: guillemotleft
Encoding: 171 171 286
Width: 1155
VWidth: 0
Flags: HW
PickledData: "(dp1
S'org.robofab.postScriptHintData'
p2
(dp3
sS'com.typemytype.robofont.layerData'
p4
(dp5
S'b'
(dp6
S'name'
p7
S'guillemotright'
p8
sS'lib'
p9
(dp10
sS'unicodes'
p11
(tsS'width'
p12
F1122.45
sS'contours'
p13
(tsS'components'
p14
(tsS'anchors'
p15
(tsss."
LayerCount: 2
Fore
SplineSet
365 162 m 257
 136 541 l 257
 463 920 l 257
 649 920 l 257
 361 541 l 257
 548 162 l 257
 365 162 l 257
801 162 m 257
 573 541 l 257
 900 920 l 257
 1086 920 l 257
 798 541 l 257
 985 162 l 257
 801 162 l 257
EndSplineSet
EndChar

StartChar: guillemotright
Encoding: 187 187 287
Width: 1155
VWidth: 0
Flags: HW
PickledData: "(dp1
S'org.robofab.postScriptHintData'
p2
(dp3
sS'com.typemytype.robofont.layerData'
p4
(dp5
S'b'
(dp6
S'name'
p7
S'guillemotright'
p8
sS'lib'
p9
(dp10
sS'unicodes'
p11
(tsS'width'
p12
F1122.45
sS'contours'
p13
(tsS'components'
p14
(tsS'anchors'
p15
(tsss."
LayerCount: 2
Fore
SplineSet
91 162 m 257
 379 541 l 257
 192 920 l 257
 376 920 l 257
 604 541 l 257
 277 162 l 257
 91 162 l 257
528 162 m 257
 816 541 l 257
 629 920 l 257
 813 920 l 257
 1041 541 l 257
 713 162 l 257
 528 162 l 257
EndSplineSet
EndChar

StartChar: guilsinglleft
Encoding: 8249 8249 288
Width: 709
VWidth: 0
Flags: HW
PickledData: "(dp1
S'org.robofab.postScriptHintData'
p2
(dp3
sS'com.typemytype.robofont.layerData'
p4
(dp5
S'b'
(dp6
S'name'
p7
S'guilsinglleft'
p8
sS'lib'
p9
(dp10
sS'unicodes'
p11
(tsS'width'
p12
F688.39999999999998
sS'contours'
p13
(tsS'components'
p14
(tsS'anchors'
p15
(tsss."
LayerCount: 2
Fore
SplineSet
366 162 m 257
 138 541 l 257
 465 920 l 257
 651 920 l 257
 363 540 l 257
 550 162 l 257
 366 162 l 257
EndSplineSet
EndChar

StartChar: guilsinglright
Encoding: 8250 8250 289
Width: 709
VWidth: 0
Flags: HW
PickledData: "(dp1
S'org.robofab.postScriptHintData'
p2
(dp3
sS'com.typemytype.robofont.layerData'
p4
(dp5
S'b'
(dp6
S'name'
p7
S'guilsinglleft'
p8
sS'lib'
p9
(dp10
sS'unicodes'
p11
(tsS'width'
p12
F688.39999999999998
sS'contours'
p13
(tsS'components'
p14
(tsS'anchors'
p15
(tsss."
LayerCount: 2
Fore
SplineSet
71 161 m 257
 359 541 l 257
 172 919 l 257
 355 919 l 257
 583 540 l 257
 256 161 l 257
 71 161 l 257
EndSplineSet
EndChar

StartChar: h
Encoding: 104 104 290
Width: 1227
VWidth: 0
Flags: HW
PickledData: "(dp1
S'org.robofab.postScriptHintData'
p2
(dp3
sS'com.typemytype.robofont.layerData'
p4
(dp5
S'b'
(dp6
S'name'
p7
S'h'
sS'lib'
p8
(dp9
sS'unicodes'
p10
(tsS'width'
p11
F1237.95
sS'contours'
p12
((dp13
S'points'
p14
((dp15
S'segmentType'
p16
S'line'
p17
sS'x'
F178
sS'smooth'
p18
I00
sS'y'
F0
s(dp19
g16
S'line'
p20
sS'x'
F178
sg18
I01
sS'y'
F779
s(dp21
S'y'
F902
sS'x'
F178
sg18
I00
s(dp22
S'y'
F1026
sS'x'
F172
sg18
I00
s(dp23
g16
S'curve'
p24
sS'x'
F172
sg18
I00
sS'y'
F1026
s(dp25
g16
S'line'
p26
sS'x'
F339
sg18
I00
sS'y'
F1026
s(dp27
g16
S'line'
p28
sS'x'
F343
sg18
I00
sS'y'
F864
s(dp29
S'y'
F976
sS'x'
F423
sg18
I00
s(dp30
S'y'
F1051
sS'x'
F548
sg18
I00
s(dp31
g16
S'curve'
p32
sS'x'
F700
sg18
I01
sS'y'
F1051
s(dp33
S'y'
F1051
sS'x'
F999
sg18
I00
s(dp34
S'y'
F844
sS'x'
F1082
sg18
I00
s(dp35
g16
S'curve'
p36
sS'x'
F1082
sg18
I01
sS'y'
F550
s(dp37
g16
S'line'
p38
sS'x'
F1082
sg18
I00
sS'y'
F0
s(dp39
g16
S'line'
p40
sS'x'
F917
sg18
I00
sS'y'
F0
s(dp41
g16
S'line'
p42
sS'x'
F917
sg18
I01
sS'y'
F531
s(dp43
S'y'
F764
sS'x'
F917
sg18
I00
s(dp44
S'y'
F917
sS'x'
F886
sg18
I00
s(dp45
g16
S'curve'
p46
sS'x'
F670
sg18
I01
sS'y'
F917
s(dp47
S'y'
F917
sS'x'
F471
sg18
I00
s(dp48
S'y'
F742
sS'x'
F344
sg18
I00
s(dp49
g16
S'curve'
p50
sS'x'
F343
sg18
I00
sS'y'
F652
s(dp51
g16
S'line'
p52
sS'x'
F343
sg18
I00
sS'y'
F0
stp53
stp54
sS'components'
p55
(tsS'anchors'
p56
(tsss."
AnchorPoint: "top" 775 1026 basechar 0
LayerCount: 2
Fore
SplineSet
62 0 m 257
 242 1469 l 257
 466 1469 l 257
 394 883 l 257
 464 987 618 1052 738 1052 c 256
 1002 1052 1073 869 1073 687 c 0
 1073 654 1071 621 1067 589 c 258
 995 0 l 257
 771 0 l 257
 843 593 l 258
 847 624 849 653 849 678 c 0
 849 815 792 871 681 871 c 256
 535 871 378 753 362 620 c 258
 286 0 l 257
 62 0 l 257
EndSplineSet
EndChar

StartChar: hungarumlaut
Encoding: 733 733 293
Width: 969
VWidth: 0
Flags: HW
PickledData: "(dp1
S'org.robofab.postScriptHintData'
p2
(dp3
s."
AnchorPoint: "top" 245 1026 mark 0
LayerCount: 2
Fore
SplineSet
44 1138 m 257
 296 1510 l 257
 546 1510 l 257
 205 1138 l 257
 44 1138 l 257
370 1138 m 257
 659 1510 l 257
 922 1510 l 257
 538 1138 l 257
 370 1138 l 257
EndSplineSet
EndChar

StartChar: hyphen
Encoding: 45 45 294
Width: 717
VWidth: 0
Flags: HW
PickledData: "(dp1
S'org.robofab.postScriptHintData'
p2
(dp3
sS'com.typemytype.robofont.layerData'
p4
(dp5
S'b'
(dp6
S'name'
p7
S'hyphen'
p8
sS'lib'
p9
(dp10
sS'unicodes'
p11
(tsS'width'
p12
F683.5
sS'contours'
p13
(tsS'components'
p14
(tsS'anchors'
p15
(tsss."
LayerCount: 2
Fore
SplineSet
47 469 m 257
 68 641 l 257
 670 641 l 257
 649 469 l 257
 47 469 l 257
EndSplineSet
EndChar

StartChar: i
Encoding: 105 105 295
Width: 596
VWidth: 0
Flags: HW
PickledData: "(dp1
S'org.robofab.postScriptHintData'
p2
(dp3
sS'com.typemytype.robofont.layerData'
p4
(dp5
S'b'
(dp6
S'name'
p7
S'i'
sS'lib'
p8
(dp9
sS'unicodes'
p10
(tsS'width'
p11
F521.10000000000002
sS'contours'
p12
(tsS'components'
p13
(tsS'anchors'
p14
(tsss."
LayerCount: 2
Fore
SplineSet
135 0 m 257
 261 1026 l 257
 480 1026 l 257
 354 0 l 257
 135 0 l 257
290 1256 m 257
 314 1456 l 257
 532 1456 l 257
 508 1256 l 257
 290 1256 l 257
EndSplineSet
EndChar

StartChar: increment
Encoding: 8710 8710 307
Width: 1390
VWidth: 0
Flags: HW
PickledData: "(dp1
S'org.robofab.postScriptHintData'
p2
(dp3
sS'com.typemytype.robofont.layerData'
p4
(dp5
S'b'
(dp6
S'name'
p7
S'uni2206'
p8
sS'lib'
p9
(dp10
sS'unicodes'
p11
(tsS'width'
p12
F1312.25
sS'contours'
p13
(tsS'components'
p14
(tsS'anchors'
p15
(tsss."
LayerCount: 2
Fore
SplineSet
-28 0 m 257
 -11 147 l 257
 678 1456 l 257
 899 1456 l 257
 1257 154 l 257
 1239 0 l 257
 -28 0 l 257
233 183 m 257
 997 183 l 257
 739 1195 l 257
 233 183 l 257
EndSplineSet
EndChar

StartChar: infinity
Encoding: 8734 8734 308
Width: 1736
VWidth: 0
Flags: HW
PickledData: "(dp1
S'org.robofab.postScriptHintData'
p2
(dp3
s."
LayerCount: 2
Fore
SplineSet
505 966 m 256
 670 966 787 869 886 711 c 257
 1016 865 1151 966 1321 966 c 256
 1523 966 1643 840 1643 659 c 0
 1643 404 1439 233 1229 233 c 256
 1080 233 968 313 856 486 c 257
 721 334 582 233 420 233 c 256
 220 233 96 383 96 569 c 0
 96 797 297 966 505 966 c 256
252 571 m 0
 252 469 323 377 450 377 c 256
 576 377 694 476 798 597 c 257
 724 724 631 822 495 822 c 256
 351 822 252 711 252 571 c 0
1248 377 m 256
 1395 377 1466 486 1483 625 c 256
 1484 634 1485 642 1485 651 c 0
 1485 745 1415 822 1298 822 c 256
 1170 822 1044 715 949 599 c 257
 1047 454 1128 377 1248 377 c 256
EndSplineSet
EndChar

StartChar: integral
Encoding: 8747 8747 309
Width: 792
VWidth: 0
Flags: HW
PickledData: "(dp1
S'org.robofab.postScriptHintData'
p2
(dp3
sS'com.typemytype.robofont.layerData'
p4
(dp5
S'b'
(dp6
S'name'
p7
S'integral'
p8
sS'lib'
p9
(dp10
sS'unicodes'
p11
(tsS'width'
p12
F754
sS'contours'
p13
(tsS'components'
p14
(tsS'anchors'
p15
(tsss."
LayerCount: 2
Fore
SplineSet
84 -316 m 256
 -16 -316 -74 -292 -74 -292 c 257
 -53 -121 l 257
 -53 -121 28 -137 87 -137 c 256
 187 -137 212 -73 226 44 c 258
 365 1170 l 258
 392 1389 490 1552 719 1552 c 256
 810 1552 878 1528 878 1528 c 257
 856 1351 l 257
 856 1351 788 1371 731 1371 c 256
 629 1371 599 1309 585 1191 c 258
 446 65 l 258
 419 -155 315 -316 84 -316 c 256
EndSplineSet
EndChar

StartChar: j
Encoding: 106 106 312
Width: 544
VWidth: 0
Flags: HW
PickledData: "(dp1
S'org.robofab.postScriptHintData'
p2
(dp3
sS'com.typemytype.robofont.layerData'
p4
(dp5
S'b'
(dp6
S'name'
p7
S'j'
sS'lib'
p8
(dp9
sS'unicodes'
p10
(tsS'width'
p11
F536.89999999999998
sS'contours'
p12
((dp13
S'points'
p14
((dp15
S'segmentType'
p16
S'curve'
p17
sS'x'
F65
sS'smooth'
p18
I01
sS'y'
F-410
s(dp19
S'y'
F-410
sS'x'
F-24
sg18
I00
s(dp20
S'y'
F-390
sS'x'
F-117
sg18
I00
s(dp21
g16
S'curve'
p22
sS'x'
F-117
sg18
I00
sS'y'
F-390
s(dp23
g16
S'line'
p24
sS'x'
F-102
sg18
I00
sS'y'
F-267
s(dp25
S'y'
F-267
sS'x'
F-102
sg18
I00
s(dp26
S'y'
F-280
sS'x'
F-44
sg18
I00
s(dp27
g16
S'curve'
p28
sS'x'
F19
sg18
I01
sS'y'
F-280
s(dp29
S'y'
F-280
sS'x'
F153
sg18
I00
s(dp30
S'y'
F-208
sS'x'
F177
sg18
I00
s(dp31
g16
S'curve'
p32
sS'x'
F177
sg18
I01
sS'y'
F-2
s(dp33
g16
S'line'
p34
sS'x'
F177
sg18
I00
sS'y'
F1026
s(dp35
g16
S'line'
p36
sS'x'
F341
sg18
I00
sS'y'
F1026
s(dp37
g16
S'line'
p38
sS'x'
F341
sg18
I01
sS'y'
F-6
s(dp39
S'y'
F-274
sS'x'
F341
sg18
I00
s(dp40
S'y'
F-410
sS'x'
F246
sg18
I00
stp41
s(dp42
g14
((dp43
g16
S'line'
p44
sS'x'
F177
sg18
I00
sS'y'
F1307
s(dp45
g16
S'line'
p46
sS'x'
F177
sg18
I00
sS'y'
F1462
s(dp47
g16
S'line'
p48
sS'x'
F341
sg18
I00
sS'y'
F1462
s(dp49
g16
S'line'
p50
sS'x'
F341
sg18
I00
sS'y'
F1307
stp51
stp52
sS'components'
p53
(tsS'anchors'
p54
(tsss."
LayerCount: 2
Fore
SplineSet
270 1246 m 257
 296 1456 l 257
 518 1456 l 257
 492 1246 l 257
 270 1246 l 257
EndSplineSet
Refer: 235 567 N 1 0 0 1 0 0 2
EndChar

StartChar: k
Encoding: 107 107 315
Width: 1106
VWidth: 0
Flags: HW
PickledData: "(dp1
S'org.robofab.postScriptHintData'
p2
(dp3
sS'com.typemytype.robofont.layerData'
p4
(dp5
S'b'
(dp6
S'name'
p7
S'k'
sS'lib'
p8
(dp9
sS'unicodes'
p10
(tsS'width'
p11
F1078.6500000000001
sS'contours'
p12
(tsS'components'
p13
(tsS'anchors'
p14
(tsss."
AnchorPoint: "top" 718 1026 basechar 0
LayerCount: 2
Fore
SplineSet
66 0 m 257
 246 1469 l 257
 470 1469 l 257
 364 601 l 257
 814 1026 l 257
 1122 1026 l 257
 561 534 l 257
 1030 0 l 257
 733 0 l 257
 346 460 l 257
 290 0 l 257
 66 0 l 257
EndSplineSet
EndChar

StartChar: kgreenlandic
Encoding: 312 312 318
Width: 1082
VWidth: 0
Flags: HW
PickledData: "(dp1
S'org.robofab.postScriptHintData'
p2
(dp3
sS'com.typemytype.robofont.layerData'
p4
(dp5
s."
LayerCount: 2
Fore
SplineSet
92 0 m 257
 218 1026 l 257
 441 1026 l 257
 389 604 l 257
 828 1026 l 257
 1128 1026 l 257
 553 513 l 257
 726 334 849 193 1038 0 c 257
 745 0 l 257
 366 415 l 257
 315 0 l 257
 92 0 l 257
EndSplineSet
EndChar

StartChar: l
Encoding: 108 108 319
Width: 548
VWidth: 0
Flags: HW
PickledData: "(dp1
S'org.robofab.postScriptHintData'
p2
(dp3
sS'com.typemytype.robofont.layerData'
p4
(dp5
S'b'
(dp6
S'name'
p7
S'l'
sS'lib'
p8
(dp9
sS'unicodes'
p10
(tsS'width'
p11
F521.79999999999995
sS'contours'
p12
(tsS'components'
p13
(tsS'anchors'
p14
(tsss."
AnchorPoint: "caron.alt" 296 1026 basechar 0
AnchorPoint: "top" 390 1456 basechar 0
LayerCount: 2
Fore
SplineSet
93 0 m 257
 274 1469 l 257
 496 1469 l 257
 316 0 l 257
 93 0 l 257
EndSplineSet
EndChar

StartChar: less
Encoding: 60 60 324
Width: 1354
VWidth: 0
Flags: HW
PickledData: "(dp1
S'org.robofab.postScriptHintData'
p2
(dp3
sS'com.typemytype.robofont.layerData'
p4
(dp5
S'b'
(dp6
S'name'
p7
S'less'
p8
sS'lib'
p9
(dp10
sS'unicodes'
p11
(tsS'width'
p12
F1267.3499999999999
sS'contours'
p13
(tsS'components'
p14
(tsS'anchors'
p15
(tsss."
LayerCount: 2
Fore
SplineSet
1072 48 m 257
 125 519 l 257
 138 626 l 257
 1205 1099 l 257
 1180 892 l 257
 424 573 l 257
 1097 251 l 257
 1072 48 l 257
EndSplineSet
EndChar

StartChar: lessequal
Encoding: 8804 8804 325
Width: 1351
VWidth: 0
Flags: HW
PickledData: "(dp1
S'org.robofab.postScriptHintData'
p2
(dp3
sS'com.typemytype.robofont.layerData'
p4
(dp5
S'b'
(dp6
S'name'
p7
S'lessequal'
p8
sS'lib'
p9
(dp10
sS'unicodes'
p11
(tsS'width'
p12
F1350.3499999999999
sS'contours'
p13
(tsS'components'
p14
(tsS'anchors'
p15
(tsss."
LayerCount: 2
Fore
SplineSet
1091 244 m 257
 144 714 l 257
 158 822 l 257
 1225 1294 l 257
 1199 1088 l 257
 443 768 l 257
 1116 446 l 257
 1091 244 l 257
47 0 m 257
 67 163 l 257
 1101 163 l 257
 1081 0 l 257
 47 0 l 257
EndSplineSet
EndChar

StartChar: logicalnot
Encoding: 172 172 327
Width: 1459
VWidth: 0
Flags: HW
PickledData: "(dp1
S'org.robofab.postScriptHintData'
p2
(dp3
sS'com.typemytype.robofont.layerData'
p4
(dp5
S'b'
(dp6
S'name'
p7
S'logicalnot'
p8
sS'lib'
p9
(dp10
sS'unicodes'
p11
(tsS'width'
p12
F1463.2
sS'contours'
p13
(tsS'components'
p14
(tsS'anchors'
p15
(tsss."
LayerCount: 2
Fore
SplineSet
991 226 m 257
 1040 623 l 257
 188 623 l 257
 211 810 l 257
 1272 810 l 257
 1200 226 l 257
 991 226 l 257
EndSplineSet
EndChar

StartChar: lozenge
Encoding: 9674 9674 329
Width: 1248
VWidth: 0
Flags: HW
PickledData: "(dp1
S'org.robofab.postScriptHintData'
p2
(dp3
sS'com.typemytype.robofont.layerData'
p4
(dp5
s."
LayerCount: 2
Fore
SplineSet
434 -40 m 257
 83 703 l 257
 623 1448 l 257
 770 1448 l 257
 1124 704 l 257
 580 -40 l 257
 434 -40 l 257
536 190 m 257
 906 703 l 257
 668 1204 l 257
 300 703 l 257
 536 190 l 257
EndSplineSet
EndChar

StartChar: lslash
Encoding: 322 322 330
Width: 503
VWidth: 0
Flags: HW
PickledData: "(dp1
S'org.robofab.postScriptHintData'
p2
(dp3
s."
LayerCount: 2
Fore
SplineSet
42 0 m 257
 130 715 l 257
 -10 615 l 257
 14 811 l 257
 153 911 l 257
 222 1468 l 257
 447 1468 l 257
 397 1070 l 257
 532 1168 l 257
 507 971 l 257
 374 870 l 257
 267 0 l 257
 42 0 l 257
EndSplineSet
EndChar

StartChar: m
Encoding: 109 109 331
Width: 1853
VWidth: 0
Flags: HW
PickledData: "(dp1
S'org.robofab.postScriptHintData'
p2
(dp3
sS'com.typemytype.robofont.guides'
p4
(tsS'com.typemytype.robofont.layerData'
p5
(dp6
S'b'
(dp7
S'name'
p8
S'm'
sS'lib'
p9
(dp10
sS'unicodes'
p11
(tsS'width'
p12
F1873.95
sS'contours'
p13
(tsS'components'
p14
(tsS'anchors'
p15
(tsss."
AnchorPoint: "top" 1047 1026 basechar 0
LayerCount: 2
Fore
SplineSet
101 0 m 257
 189 714 l 258
 207 864 207 953 212 1026 c 257
 447 1026 l 257
 429 880 l 257
 493 983 626 1052 754 1052 c 256
 886 1052 996 983 1036 850 c 257
 1125 968 1252 1052 1410 1052 c 256
 1626 1052 1729 925 1729 719 c 0
 1729 691 1727 660 1723 629 c 258
 1645 0 l 257
 1421 0 l 257
 1497 612 l 258
 1500 636 1501 659 1501 682 c 0
 1501 787 1467 871 1366 871 c 256
 1214 871 1077 730 1059 583 c 258
 987 0 l 257
 763 0 l 257
 841 629 l 258
 843 648 845 669 845 688 c 0
 845 783 811 871 696 871 c 256
 544 871 418 747 402 617 c 258
 325 0 l 257
 101 0 l 257
EndSplineSet
EndChar

StartChar: macron
Encoding: 175 175 332
Width: 742
VWidth: 0
Flags: HW
PickledData: "(dp1
S'org.robofab.postScriptHintData'
p2
(dp3
sS'com.typemytype.robofont.layerData'
p4
(dp5
S'b'
(dp6
S'name'
p7
S'macron'
p8
sS'lib'
p9
(dp10
sS'unicodes'
p11
(tsS'width'
p12
F723
sS'contours'
p13
(tsS'components'
p14
(tsS'anchors'
p15
(tsss."
AnchorPoint: "top" 342 1026 mark 0
LayerCount: 2
Fore
SplineSet
58 1202 m 257
 75 1347 l 257
 684 1347 l 257
 667 1202 l 257
 58 1202 l 257
EndSplineSet
EndChar

StartChar: minus
Encoding: 8722 8722 335
Width: 1417
VWidth: 0
Flags: HW
PickledData: "(dp1
S'org.robofab.postScriptHintData'
p2
(dp3
s."
LayerCount: 2
Fore
SplineSet
180 346 m 257
 202 528 l 257
 1238 528 l 257
 1216 346 l 257
 180 346 l 257
EndSplineSet
EndChar

StartChar: mu
Encoding: 956 956 336
Width: 1203
VWidth: 0
Flags: HW
PickledData: "(dp1
S'org.robofab.postScriptHintData'
p2
(dp3
s."
LayerCount: 2
Fore
SplineSet
287 -241 m 257
 61 -241 l 257
 217 1026 l 257
 438 1026 l 257
 366 422 l 258
 363 398 362 376 362 355 c 0
 362 226 419 158 544 158 c 256
 702 158 802 233 824 419 c 258
 899 1026 l 257
 1124 1026 l 257
 1030 262 l 258
 1019 176 1012 70 1010 0 c 257
 779 0 l 257
 794 155 l 257
 736 49 618 -23 487 -23 c 256
 420 -23 358 -7 320 21 c 257
 287 -241 l 257
EndSplineSet
EndChar

StartChar: multiply
Encoding: 215 215 337
Width: 1256
VWidth: 0
Flags: HW
PickledData: "(dp1
S'org.robofab.postScriptHintData'
p2
(dp3
sS'com.typemytype.robofont.layerData'
p4
(dp5
s."
LayerCount: 2
Fore
SplineSet
304 128 m 257
 177 272 l 257
 488 549 l 257
 246 826 l 257
 407 971 l 257
 651 693 l 257
 962 971 l 257
 1089 827 l 257
 776 549 l 257
 1020 272 l 257
 859 128 l 257
 615 404 l 257
 304 128 l 257
EndSplineSet
EndChar

StartChar: n
Encoding: 110 110 338
Width: 1234
VWidth: 0
Flags: HW
PickledData: "(dp1
S'org.robofab.postScriptHintData'
p2
(dp3
sS'com.typemytype.robofont.layerData'
p4
(dp5
S'b'
(dp6
S'name'
p7
S'n'
sS'lib'
p8
(dp9
sS'unicodes'
p10
(tsS'width'
p11
F1240.05
sS'contours'
p12
(tsS'components'
p13
(tsS'anchors'
p14
(tsss."
AnchorPoint: "top" 744 1026 basechar 0
LayerCount: 2
Fore
SplineSet
101 0 m 257
 184 677 l 258
 210 886 211 1026 211 1026 c 257
 446 1026 l 257
 429 881 l 257
 517 995 662 1052 777 1052 c 256
 991 1052 1106 949 1106 701 c 0
 1106 663 1104 621 1098 575 c 258
 1027 0 l 257
 803 0 l 257
 875 582 l 258
 879 618 882 652 882 681 c 0
 882 810 835 871 709 871 c 256
 587 871 419 760 402 626 c 258
 325 0 l 257
 101 0 l 257
EndSplineSet
EndChar

StartChar: nine
Encoding: 57 57 343
Width: 1256
VWidth: 0
Flags: HW
PickledData: "(dp1
S'org.robofab.postScriptHintData'
p2
(dp3
sS'com.typemytype.robofont.layerData'
p4
(dp5
S'b'
(dp6
S'name'
p7
S'nine'
p8
sS'lib'
p9
(dp10
sS'unicodes'
p11
(tsS'width'
p12
F1235.4000000000001
sS'contours'
p13
((dp14
S'points'
p15
((dp16
S'segmentType'
p17
S'curve'
p18
sS'x'
F314
sS'smooth'
p19
I01
sS'y'
F1010
s(dp20
S'y'
F827
sS'x'
F314
sg19
I00
s(dp21
S'y'
F687
sS'x'
F393
sg19
I00
s(dp22
g17
S'curve'
p23
sS'x'
F604
sg19
I01
sS'y'
F687
s(dp24
S'y'
F687
sS'x'
F784
sg19
I00
s(dp25
S'y'
F803
sS'x'
F908
sg19
I00
s(dp26
g17
S'curve'
p27
sS'x'
F908
sg19
I01
sS'y'
F991
s(dp28
S'y'
F1166
sS'x'
F908
sg19
I00
s(dp29
S'y'
F1334
sS'x'
F815
sg19
I00
s(dp30
g17
S'curve'
p31
sS'x'
F605
sg19
I01
sS'y'
F1334
s(dp32
S'y'
F1334
sS'x'
F419
sg19
I00
s(dp33
S'y'
F1196
sS'x'
F314
sg19
I00
stp34
s(dp35
g15
((dp36
g17
S'curve'
p37
sS'x'
F555
sg19
I01
sS'y'
F-24
s(dp38
S'y'
F-24
sS'x'
F434
sg19
I00
s(dp39
S'y'
F13
sS'x'
F304
sg19
I00
s(dp40
g17
S'curve'
p41
sS'x'
F175
sg19
I00
sS'y'
F79
s(dp42
g17
S'line'
p43
sS'x'
F232
sg19
I00
sS'y'
F211
s(dp44
S'y'
F152
sS'x'
F346
sg19
I00
s(dp45
S'y'
F124
sS'x'
F450
sg19
I00
s(dp46
g17
S'curve'
p47
sS'x'
F542
sg19
I01
sS'y'
F124
s(dp48
S'y'
F124
sS'x'
F773
sg19
I00
s(dp49
S'y'
F308
sS'x'
F920
sg19
I00
s(dp50
g17
S'curve'
p51
sS'x'
F920
sg19
I01
sS'y'
F657
s(dp52
g17
S'line'
p53
sS'x'
F920
sg19
I00
sS'y'
F722
s(dp54
S'y'
F600
sS'x'
F856
sg19
I00
s(dp55
S'y'
F544
sS'x'
F742
sg19
I00
s(dp56
g17
S'curve'
p57
sS'x'
F577
sg19
I01
sS'y'
F544
s(dp58
S'y'
F544
sS'x'
F298
sg19
I00
s(dp59
S'y'
F735
sS'x'
F138
sg19
I00
s(dp60
g17
S'curve'
p61
sS'x'
F138
sg19
I01
sS'y'
F1004
s(dp62
S'y'
F1275
sS'x'
F138
sg19
I00
s(dp63
S'y'
F1483
sS'x'
F311
sg19
I00
s(dp64
g17
S'curve'
p65
sS'x'
F613
sg19
I01
sS'y'
F1483
s(dp66
S'y'
F1483
sS'x'
F939
sg19
I00
s(dp67
S'y'
F1231
sS'x'
F1095
sg19
I00
s(dp68
g17
S'curve'
p69
sS'x'
F1095
sg19
I01
sS'y'
F774
s(dp70
S'y'
F203
sS'x'
F1095
sg19
I00
s(dp71
S'y'
F-24
sS'x'
F855
sg19
I00
stp72
stp73
sS'components'
p74
(tsS'anchors'
p75
(tsss."
LayerCount: 2
Fore
SplineSet
470 -24 m 256
 359 -24 240 5 113 73 c 257
 216 259 l 257
 299 203 388 174 476 174 c 256
 665 174 833 315 873 637 c 257
 878 675 l 257
 797 564 677 525 554 525 c 256
 299 525 150 684 150 920 c 0
 150 944 152 969 155 995 c 256
 190 1271 402 1483 706 1483 c 256
 982 1483 1130 1303 1130 957 c 0
 1130 900 1126 837 1118 771 c 256
 1057 275 812 -24 470 -24 c 256
385 944 m 0
 385 812 451 716 603 716 c 256
 761 716 888 817 912 1008 c 256
 914 1022 915 1035 915 1049 c 0
 915 1178 838 1286 686 1286 c 256
 507 1286 385 1145 385 944 c 0
EndSplineSet
EndChar

StartChar: notequal
Encoding: 8800 8800 345
Width: 1377
VWidth: 0
Flags: HW
PickledData: "(dp1
S'org.robofab.postScriptHintData'
p2
(dp3
sS'com.typemytype.robofont.layerData'
p4
(dp5
S'b'
(dp6
S'name'
p7
S'notequal'
p8
sS'lib'
p9
(dp10
sS'unicodes'
p11
(tsS'width'
p12
F1362.5
sS'contours'
p13
(tsS'components'
p14
(tsS'anchors'
p15
(tsss."
LayerCount: 2
Fore
SplineSet
433 39 m 257
 263 66 l 257
 408 308 l 257
 131 308 l 257
 152 476 l 257
 514 476 l 257
 652 689 l 257
 178 689 l 257
 199 858 l 257
 754 858 l 257
 915 1122 l 257
 1091 1096 l 257
 944 858 l 257
 1254 858 l 257
 1233 689 l 257
 843 689 l 257
 703 476 l 257
 1207 476 l 257
 1186 308 l 257
 599 308 l 257
 433 39 l 257
EndSplineSet
EndChar

StartChar: numbersign
Encoding: 35 35 347
Width: 1357
VWidth: 0
Flags: HW
PickledData: "(dp1
S'org.robofab.postScriptHintData'
p2
(dp3
sS'com.typemytype.robofont.layerData'
p4
(dp5
s."
LayerCount: 2
Fore
SplineSet
140 10 m 257
 283 459 l 257
 42 459 l 257
 71 608 l 257
 330 608 l 257
 415 874 l 257
 150 874 l 257
 179 1024 l 257
 463 1024 l 257
 598 1450 l 257
 797 1450 l 257
 662 1024 l 257
 890 1024 l 257
 1024 1450 l 257
 1224 1450 l 257
 1088 1024 l 257
 1315 1024 l 257
 1288 874 l 257
 1041 874 l 257
 956 608 l 257
 1208 608 l 257
 1180 459 l 257
 908 459 l 257
 766 10 l 257
 567 10 l 257
 709 459 l 257
 482 459 l 257
 339 10 l 257
 140 10 l 257
529 608 m 257
 757 608 l 257
 842 874 l 257
 614 874 l 257
 529 608 l 257
EndSplineSet
EndChar

StartChar: o
Encoding: 111 111 348
Width: 1274
VWidth: 0
Flags: HW
PickledData: "(dp1
S'org.robofab.postScriptHintData'
p2
(dp3
sS'com.typemytype.robofont.layerData'
p4
(dp5
S'b'
(dp6
S'name'
p7
S'o'
sS'lib'
p8
(dp9
sS'unicodes'
p10
(tsS'width'
p11
F1259.2
sS'contours'
p12
(tsS'components'
p13
(tsS'anchors'
p14
(tsss."
AnchorPoint: "top" 706 1026 basechar 0
LayerCount: 2
Fore
SplineSet
940 583 m 0
 940 750 860 871 682 871 c 256
 462 871 334 685 334 444 c 0
 334 281 411 159 595 159 c 256
 819 159 940 347 940 583 c 0
574 -23 m 256
 254 -23 99 173 99 430 c 0
 99 457 101 485 104 513 c 256
 141 817 357 1052 707 1052 c 256
 1026 1052 1176 863 1176 602 c 0
 1176 573 1174 542 1170 511 c 256
 1133 218 923 -23 574 -23 c 256
EndSplineSet
EndChar

StartChar: oe
Encoding: 339 339 355
Width: 1993
VWidth: 0
Flags: HW
PickledData: "(dp1
S'org.robofab.postScriptHintData'
p2
(dp3
sS'com.typemytype.robofont.layerData'
p4
(dp5
S'b'
(dp6
S'name'
p7
S'oe'
p8
sS'lib'
p9
(dp10
sS'unicodes'
p11
(tsS'width'
p12
F1979.8
sS'contours'
p13
(tsS'components'
p14
((dp15
S'transformation'
p16
(I1
I0
I0
I1
I-6
I0
tp17
sS'baseGlyph'
p18
S'o'
s(dp19
g16
(I1
I0
I0
I1
I811
I0
tp20
sg18
S'e'
stp21
sS'anchors'
p22
(tsss."
LayerCount: 2
Fore
SplineSet
566 -22 m 256
 260 -22 93 166 93 430 c 0
 93 456 95 483 98 511 c 256
 135 813 352 1052 694 1052 c 256
 886 1052 1003 969 1064 853 c 257
 1157 980 1278 1055 1466 1055 c 256
 1727 1055 1866 881 1866 615 c 0
 1866 581 1864 546 1859 509 c 258
 1852 449 l 257
 1125 449 l 257
 1126 448 1124 423 1124 422 c 256
 1124 417 1124 412 1124 407 c 0
 1124 249 1229 159 1412 159 c 256
 1600 159 1744 266 1744 266 c 257
 1788 103 l 257
 1788 103 1629 -22 1365 -22 c 256
 1200 -22 1038 57 981 181 c 257
 899 58 730 -22 566 -22 c 256
912 593 m 0
 912 756 843 871 672 871 c 256
 465 871 327 681 327 443 c 0
 327 282 406 159 592 159 c 256
 802 159 912 363 912 593 c 0
1663 664 m 0
 1663 792 1571 873 1443 873 c 256
 1301 873 1185 773 1150 631 c 257
 1661 631 l 257
 1662 641 1663 653 1663 664 c 0
EndSplineSet
EndChar

StartChar: ogonek
Encoding: 731 731 356
Width: 508
VWidth: 0
Flags: HW
PickledData: "(dp1
S'org.robofab.postScriptHintData'
p2
(dp3
s."
LayerCount: 2
Fore
SplineSet
291 19 m 257
 412 17 l 257
 312 -40 226 -133 226 -203 c 0
 226 -240 257 -256 308 -256 c 256
 363 -256 437 -234 471 -225 c 257
 455 -355 l 257
 378 -378 297 -392 228 -392 c 256
 110 -392 22 -352 22 -262 c 0
 22 -113 199 -24 291 19 c 257
EndSplineSet
EndChar

StartChar: one
Encoding: 49 49 361
Width: 1256
VWidth: 0
Flags: HW
PickledData: "(dp1
S'org.robofab.postScriptHintData'
p2
(dp3
sS'com.typemytype.robofont.layerData'
p4
(dp5
S'b'
(dp6
S'name'
p7
S'one'
p8
sS'lib'
p9
(dp10
sS'unicodes'
p11
(tsS'width'
p12
F1234.0999999999999
sS'contours'
p13
(tsS'components'
p14
(tsS'anchors'
p15
(tsss."
LayerCount: 2
Fore
SplineSet
200 0 m 257
 222 182 l 257
 491 182 l 257
 618 1218 l 257
 540 1180 425 1136 311 1098 c 257
 335 1306 l 257
 446 1342 585 1405 680 1456 c 257
 877 1456 l 257
 721 180 l 257
 983 180 l 257
 961 0 l 257
 200 0 l 257
EndSplineSet
EndChar

StartChar: onehalf
Encoding: 189 189 362
Width: 2390
VWidth: 0
Flags: HW
PickledData: "(dp1
S'org.robofab.postScriptHintData'
p2
(dp3
sS'com.typemytype.robofont.layerData'
p4
(dp5
s."
LayerCount: 2
Fore
SplineSet
1384 0 m 257
 1402 153 l 257
 1701 383 l 258
 1828 481 1860 524 1860 598 c 0
 1860 661 1824 691 1757 691 c 256
 1685 691 1594 654 1518 602 c 257
 1467 738 l 257
 1562 808 1680 847 1788 847 c 256
 1937 847 2046 775 2046 623 c 0
 2046 459 1934 371 1789 262 c 258
 1653 161 l 257
 1982 161 l 257
 1962 0 l 257
 1384 0 l 257
475 0 m 257
 1544 1456 l 257
 1739 1456 l 257
 671 0 l 257
 475 0 l 257
203 623 m 257
 221 766 l 257
 408 766 l 257
 471 1283 l 257
 260 1226 l 257
 279 1375 l 257
 291 1378 518 1451 526 1456 c 257
 668 1456 l 257
 583 764 l 257
 750 764 l 257
 732 623 l 257
 203 623 l 257
EndSplineSet
EndChar

StartChar: onequarter
Encoding: 188 188 363
Width: 2077
VWidth: 0
Flags: HW
PickledData: "(dp1
S'org.robofab.postScriptHintData'
p2
(dp3
sS'com.typemytype.robofont.layerData'
p4
(dp5
s."
LayerCount: 2
Fore
SplineSet
216 623 m 257
 234 766 l 257
 421 766 l 257
 485 1283 l 257
 274 1226 l 257
 292 1375 l 257
 304 1378 531 1451 539 1456 c 257
 681 1456 l 257
 597 764 l 257
 763 764 l 257
 745 623 l 257
 216 623 l 257
1558 1 m 257
 1581 193 l 257
 1210 193 l 257
 1223 300 l 257
 1653 808 l 257
 1821 808 l 257
 1761 319 l 257
 1877 319 l 257
 1861 193 l 257
 1745 193 l 257
 1722 1 l 257
 1558 1 l 257
486 0 m 257
 1555 1456 l 257
 1750 1456 l 257
 682 0 l 257
 486 0 l 257
1388 319 m 257
 1595 319 l 257
 1631 609 l 257
 1388 319 l 257
EndSplineSet
EndChar

StartChar: onesuperior
Encoding: 185 185 364
Width: 991
VWidth: 0
Flags: HW
PickledData: "(dp1
S'org.robofab.postScriptHintData'
p2
(dp3
sS'com.typemytype.robofont.layerData'
p4
(dp5
s."
LayerCount: 2
Fore
SplineSet
212 617 m 257
 230 762 l 257
 409 762 l 257
 471 1270 l 257
 459 1264 280 1217 266 1212 c 257
 285 1365 l 257
 304 1371 512 1437 525 1444 c 257
 663 1448 l 257
 579 760 l 257
 740 760 l 257
 722 617 l 257
 212 617 l 257
EndSplineSet
EndChar

StartChar: ordfeminine
Encoding: 170 170 366
Width: 838
VWidth: 0
Flags: HW
PickledData: "(dp1
S'org.robofab.postScriptHintData'
p2
(dp3
sS'com.typemytype.robofont.layerData'
p4
(dp5
S'b'
(dp6
S'name'
p7
S'ordfeminine'
p8
sS'lib'
p9
(dp10
sS'unicodes'
p11
(tsS'width'
p12
F797.10000000000002
sS'contours'
p13
(tsS'components'
p14
(tsS'anchors'
p15
(tsss."
LayerCount: 2
Fore
SplineSet
297 737 m 256
 177 737 79 801 79 921 c 0
 79 930 80 940 81 950 c 256
 98 1085 197 1164 380 1164 c 258
 556 1164 l 257
 561 1204 l 258
 562 1214 563 1224 563 1233 c 0
 563 1311 517 1339 443 1339 c 256
 334 1339 208 1286 208 1286 c 257
 172 1411 l 257
 172 1411 301 1480 478 1480 c 256
 623 1480 742 1421 742 1252 c 0
 742 1236 741 1220 739 1202 c 256
 729 1118 709 949 704 912 c 257
 696 828 697 804 695 766 c 257
 530 766 l 257
 529 864 l 257
 498 806 417 737 297 737 c 256
326 858 m 256
 415 858 524 919 540 1045 c 257
 542 1063 l 257
 326 1063 251 1059 238 952 c 256
 237 947 237 943 237 938 c 0
 237 887 277 858 326 858 c 256
EndSplineSet
EndChar

StartChar: ordmasculine
Encoding: 186 186 367
Width: 903
VWidth: 0
Flags: HW
PickledData: "(dp1
S'org.robofab.postScriptHintData'
p2
(dp3
sS'com.typemytype.robofont.layerData'
p4
(dp5
S'b'
(dp6
S'name'
p7
S'ordmasculine'
p8
sS'lib'
p9
(dp10
sS'unicodes'
p11
(tsS'width'
p12
F887.85000000000002
sS'contours'
p13
(tsS'components'
p14
(tsS'anchors'
p15
(tsss."
LayerCount: 2
Fore
SplineSet
654 1126 m 0
 654 1238 588 1303 480 1303 c 256
 351 1303 252 1203 252 1050 c 0
 252 939 314 875 427 875 c 256
 557 875 654 974 654 1126 c 0
411 727 m 256
 183 727 72 857 72 1036 c 0
 72 1054 73 1073 75 1092 c 256
 100 1293 258 1451 498 1451 c 256
 717 1451 831 1317 831 1141 c 0
 831 1124 830 1106 828 1088 c 256
 804 890 651 727 411 727 c 256
EndSplineSet
EndChar

StartChar: oslash
Encoding: 248 248 368
Width: 1272
VWidth: 0
Flags: HW
PickledData: "(dp1
S'org.robofab.postScriptHintData'
p2
(dp3
sS'com.typemytype.robofont.layerData'
p4
(dp5
S'b'
(dp6
S'name'
p7
S'oslash'
p8
sS'lib'
p9
(dp10
sS'unicodes'
p11
(tsS'width'
p12
F1255
sS'contours'
p13
(tsS'components'
p14
(tsS'anchors'
p15
(tsss."
LayerCount: 2
Fore
SplineSet
334 444 m 0
 334 351 359 271 415 220 c 1
 785 855 l 1
 755 866 721 871 682 871 c 0
 462 871 334 685 334 444 c 0
940 583 m 0
 940 671 918 747 871 798 c 1
 504 171 l 1
 531 163 561 159 595 159 c 0
 819 159 940 347 940 583 c 0
574 -23 m 0
 511 -23 453 -15 403 -1 c 1
 282 -209 l 1
 189 -166 l 1
 308 38 l 1
 168 115 99 259 99 430 c 0
 99 457 101 485 104 513 c 0
 141 817 357 1052 707 1052 c 0
 774 1052 834 1044 886 1028 c 1
 993 1211 l 1
 1086 1167 l 1
 981 987 l 1
 1113 910 1176 772 1176 602 c 0
 1176 573 1174 542 1170 511 c 0
 1133 218 923 -23 574 -23 c 0
EndSplineSet
EndChar

StartChar: p
Encoding: 112 112 371
Width: 1267
VWidth: 0
Flags: HW
PickledData: "(dp1
S'org.robofab.postScriptHintData'
p2
(dp3
sS'com.typemytype.robofont.layerData'
p4
(dp5
S'b'
(dp6
S'name'
p7
S'p'
sS'lib'
p8
(dp9
sS'unicodes'
p10
(tsS'width'
p11
F1260.25
sS'contours'
p12
(tsS'components'
p13
(tsS'anchors'
p14
(tsss."
AnchorPoint: "top" 767 1026 basechar 0
LayerCount: 2
Fore
SplineSet
77 -405 m 257
 213 703 l 258
 224 797 231 920 237 1026 c 257
 474 1026 l 257
 454 867 l 257
 488 948 628 1052 801 1052 c 256
 1053 1052 1193 862 1193 612 c 0
 1193 584 1192 555 1188 525 c 256
 1153 232 949 -23 660 -23 c 256
 487 -23 378 81 366 149 c 257
 298 -405 l 257
 77 -405 l 257
959 592 m 0
 959 755 885 871 724 871 c 256
 519 871 396 678 396 437 c 0
 396 278 470 159 636 159 c 256
 845 159 959 356 959 592 c 0
EndSplineSet
EndChar

StartChar: paragraph
Encoding: 182 182 372
Width: 1220
VWidth: 0
Flags: HW
PickledData: "(dp1
S'org.robofab.postScriptHintData'
p2
(dp3
sS'com.typemytype.robofont.layerData'
p4
(dp5
S'b'
(dp6
S'name'
p7
S'paragraph'
p8
sS'lib'
p9
(dp10
sS'unicodes'
p11
(tsS'width'
p12
F1211.95
sS'contours'
p13
(tsS'components'
p14
(tsS'anchors'
p15
(tsss."
LayerCount: 2
Fore
SplineSet
346 -178 m 257
 466 799 l 257
 280 811 167 909 167 1079 c 0
 167 1096 168 1113 170 1131 c 256
 201 1389 406 1455 684 1455 c 258
 1162 1455 l 257
 1141 1283 l 257
 1048 1283 l 257
 869 -178 l 257
 695 -178 l 257
 874 1283 l 257
 700 1283 l 257
 521 -178 l 257
 346 -178 l 257
EndSplineSet
EndChar

StartChar: parenleft
Encoding: 40 40 373
Width: 669
VWidth: 0
Flags: HW
PickledData: "(dp1
S'org.robofab.postScriptHintData'
p2
(dp3
sS'com.typemytype.robofont.layerData'
p4
(dp5
S'b'
(dp6
S'name'
p7
S'parenleft'
p8
sS'lib'
p9
(dp10
sS'unicodes'
p11
(tsS'width'
p12
F639.35000000000002
sS'contours'
p13
(tsS'components'
p14
(tsS'anchors'
p15
(tsss."
LayerCount: 2
Fore
SplineSet
304 -171 m 257
 195 33 117 280 117 528 c 0
 117 574 119 619 125 665 c 256
 163 972 306 1253 505 1516 c 257
 723 1516 l 257
 518 1247 383 948 349 663 c 256
 344 620 341 575 341 530 c 0
 341 298 409 43 515 -171 c 257
 304 -171 l 257
EndSplineSet
EndChar

StartChar: parenright
Encoding: 41 41 374
Width: 669
VWidth: 0
Flags: HW
PickledData: "(dp1
S'org.robofab.postScriptHintData'
p2
(dp3
sS'com.typemytype.robofont.layerData'
p4
(dp5
S'b'
(dp6
S'name'
p7
S'parenright'
p8
sS'lib'
p9
(dp10
sS'unicodes'
p11
(tsS'width'
p12
F639.35000000000002
sS'contours'
p13
(tsS'components'
p14
(tsS'anchors'
p15
(tsss."
LayerCount: 2
Fore
SplineSet
-53 -191 m 257
 151 78 286 377 321 661 c 256
 326 704 329 747 329 792 c 0
 329 1025 262 1280 155 1496 c 257
 365 1496 l 257
 475 1292 553 1045 553 797 c 0
 553 751 551 705 545 660 c 256
 507 353 364 72 165 -191 c 257
 -53 -191 l 257
EndSplineSet
EndChar

StartChar: partialdiff
Encoding: 8706 8706 375
Width: 1162
VWidth: 0
Flags: HW
PickledData: "(dp1
S'org.robofab.postScriptHintData'
p2
(dp3
sS'com.typemytype.robofont.layerData'
p4
(dp5
S'b'
(dp6
S'name'
p7
S'partialdiff'
p8
sS'lib'
p9
(dp10
sS'unicodes'
p11
(tsS'width'
p12
F1163.95
sS'contours'
p13
(tsS'components'
p14
(tsS'anchors'
p15
(tsss."
LayerCount: 2
Fore
SplineSet
388 -24 m 257
 137 -24 14 134 14 349 c 0
 14 374 16 399 19 426 c 256
 58 749 323 1002 608 1002 c 256
 743 1002 831 931 850 866 c 257
 851 874 860 946 860 954 c 256
 862 975 863 995 863 1014 c 0
 863 1208 772 1327 622 1327 c 256
 492 1327 378 1273 318 1241 c 257
 325 1406 l 257
 418 1467 544 1507 662 1507 c 257
 794 1351 1088 1351 1088 1004 c 0
 1088 951 1085 894 1077 832 c 256
 1025 409 782 -24 388 -24 c 257
243 368 m 0
 243 241 304 159 411 159 c 256
 582 159 717 301 807 648 c 257
 781 737 705 824 601 824 c 256
 420 824 243 611 243 368 c 0
EndSplineSet
EndChar

StartChar: percent
Encoding: 37 37 377
Width: 1845
VWidth: 0
Flags: HW
PickledData: "(dp1
S'org.robofab.postScriptHintData'
p2
(dp3
sS'com.typemytype.robofont.layerData'
p4
(dp5
S'b'
(dp6
S'name'
p7
S'percent'
p8
sS'lib'
p9
(dp10
sS'unicodes'
p11
(tsS'width'
p12
F1769.3
sS'contours'
p13
(tsS'components'
p14
(tsS'anchors'
p15
(tsss."
LayerCount: 2
Fore
SplineSet
328 1034 m 0
 328 923 373 867 470 867 c 256
 585 867 647 946 665 1101 c 256
 668 1125 669 1147 669 1167 c 0
 669 1273 629 1334 528 1334 c 256
 390 1334 328 1207 328 1034 c 0
545 1478 m 256
 748 1478 861 1354 861 1163 c 0
 861 893 689 723 452 723 c 256
 250 723 136 841 136 1034 c 0
 136 1298 305 1478 545 1478 c 256
283 0 m 257
 1386 1456 l 257
 1573 1456 l 257
 468 0 l 257
 283 0 l 257
1176 288 m 0
 1176 177 1221 122 1318 122 c 256
 1433 122 1495 201 1514 355 c 256
 1517 379 1518 400 1518 421 c 0
 1518 527 1477 589 1376 589 c 256
 1238 589 1176 461 1176 288 c 0
1394 732 m 256
 1598 732 1708 594 1708 412 c 0
 1708 162 1535 -22 1300 -22 c 256
 1098 -22 985 111 985 295 c 0
 985 541 1153 732 1394 732 c 256
EndSplineSet
EndChar

StartChar: period
Encoding: 46 46 378
Width: 541
VWidth: 0
Flags: HW
PickledData: "(dp1
S'org.robofab.postScriptHintData'
p2
(dp3
sS'com.typemytype.robofont.layerData'
p4
(dp5
s."
LayerCount: 2
Fore
SplineSet
111 0 m 257
 142 253 l 257
 411 253 l 257
 380 0 l 257
 111 0 l 257
EndSplineSet
EndChar

StartChar: periodcentered
Encoding: 183 183 379
Width: 546
VWidth: 0
Flags: HW
PickledData: "(dp1
S'org.robofab.postScriptHintData'
p2
(dp3
sS'com.typemytype.robofont.layerData'
p4
(dp5
S'b'
(dp6
S'name'
p7
S'middot'
p8
sS'lib'
p9
(dp10
sS'unicodes'
p11
(tsS'width'
p12
I509
sS'contours'
p13
(tsS'components'
p14
(tsS'anchors'
p15
(tsss."
LayerCount: 2
Fore
SplineSet
232 533 m 257
 261 775 l 257
 516 775 l 257
 486 533 l 257
 232 533 l 257
EndSplineSet
EndChar

StartChar: perthousand
Encoding: 8240 8240 380
Width: 2683
VWidth: 0
Flags: HW
PickledData: "(dp1
S'org.robofab.postScriptHintData'
p2
(dp3
sS'com.typemytype.robofont.layerData'
p4
(dp5
S'b'
(dp6
S'name'
p7
S'perthousand'
p8
sS'lib'
p9
(dp10
sS'unicodes'
p11
(tsS'width'
p12
F2581.1999999999998
sS'contours'
p13
(tsS'components'
p14
(tsS'anchors'
p15
(tsss."
LayerCount: 2
Fore
SplineSet
2014 288 m 0
 2014 177 2059 122 2156 122 c 256
 2271 122 2333 201 2352 355 c 256
 2355 379 2356 400 2356 421 c 0
 2356 527 2315 589 2214 589 c 256
 2077 589 2014 461 2014 288 c 0
2231 732 m 256
 2435 732 2546 594 2546 412 c 0
 2546 162 2374 -22 2138 -22 c 256
 1936 -22 1823 110 1823 294 c 0
 1823 540 1991 732 2231 732 c 256
EndSplineSet
Refer: 377 37 N 1 0 0 1 0 0 2
EndChar

StartChar: pi
Encoding: 960 960 381
Width: 1288
VWidth: 0
Flags: HW
PickledData: "(dp1
S'org.robofab.postScriptHintData'
p2
(dp3
sS'com.typemytype.robofont.layerData'
p4
(dp5
S'b'
(dp6
S'name'
p7
S'pi'
p8
sS'lib'
p9
(dp10
sS'unicodes'
p11
(tsS'width'
p12
F1288
sS'contours'
p13
(tsS'components'
p14
(tsS'anchors'
p15
(tsss."
LayerCount: 2
Fore
SplineSet
110 0 m 257
 232 171 306 561 354 860 c 257
 233 857 146 830 101 799 c 257
 104 963 l 257
 150 998 251 1026 395 1026 c 258
 1278 1026 l 257
 1258 860 l 257
 1055 860 l 257
 987 307 l 258
 985 290 983 271 983 253 c 0
 983 206 997 162 1066 162 c 256
 1087 162 1119 166 1157 175 c 257
 1136 -2 l 257
 1088 -11 1028 -16 989 -16 c 256
 852 -16 770 48 770 204 c 0
 770 225 771 246 774 270 c 258
 846 860 l 257
 558 860 l 257
 558 860 448 160 334 0 c 257
 110 0 l 257
EndSplineSet
EndChar

StartChar: plus
Encoding: 43 43 382
Width: 1242
VWidth: 0
Flags: HW
PickledData: "(dp1
S'org.robofab.postScriptHintData'
p2
(dp3
sS'com.typemytype.robofont.layerData'
p4
(dp5
S'b'
(dp6
S'name'
p7
S'plus'
p8
sS'lib'
p9
(dp10
sS'unicodes'
p11
(tsS'width'
p12
F1206.9000000000001
sS'contours'
p13
(tsS'components'
p14
(tsS'anchors'
p15
(tsss."
LayerCount: 2
Fore
SplineSet
455 87 m 257
 504 488 l 257
 124 488 l 257
 146 676 l 257
 529 676 l 257
 578 1073 l 257
 786 1073 l 257
 737 676 l 257
 1119 676 l 257
 1097 488 l 257
 714 488 l 257
 664 87 l 257
 455 87 l 257
EndSplineSet
EndChar

StartChar: plusminus
Encoding: 177 177 383
Width: 1256
VWidth: 0
Flags: HW
PickledData: "(dp1
S'org.robofab.postScriptHintData'
p2
(dp3
sS'com.typemytype.robofont.layerData'
p4
(dp5
S'b'
(dp6
S'name'
p7
S'plusminus'
p8
sS'lib'
p9
(dp10
sS'unicodes'
p11
(tsS'width'
p12
F1234.75
sS'contours'
p13
(tsS'components'
p14
(tsS'anchors'
p15
(tsss."
LayerCount: 2
Fore
SplineSet
488 277 m 257
 527 592 l 257
 197 592 l 257
 220 776 l 257
 545 776 l 257
 584 1095 l 257
 795 1095 l 257
 756 776 l 257
 1090 776 l 257
 1067 592 l 257
 742 592 l 257
 704 277 l 257
 488 277 l 257
121 0 m 257
 140 160 l 257
 1024 160 l 257
 1005 0 l 257
 121 0 l 257
EndSplineSet
EndChar

StartChar: product
Encoding: 8719 8719 384
Width: 1568
VWidth: 0
Flags: HW
PickledData: "(dp1
S'org.robofab.postScriptHintData'
p2
(dp3
sS'com.typemytype.robofont.guides'
p4
(tsS'com.typemytype.robofont.layerData'
p5
(dp6
S'b'
(dp7
S'name'
p8
S'product'
p9
sS'lib'
p10
(dp11
sS'unicodes'
p12
(tsS'width'
p13
F1568
sS'contours'
p14
(tsS'components'
p15
(tsS'anchors'
p16
(tsss."
LayerCount: 2
Fore
SplineSet
143 -100 m 257
 311 1271 l 257
 153 1271 l 257
 176 1456 l 257
 1536 1456 l 257
 1514 1271 l 257
 1381 1271 l 257
 1212 -100 l 257
 965 -100 l 257
 1134 1271 l 257
 552 1271 l 257
 384 -100 l 257
 143 -100 l 257
EndSplineSet
EndChar

StartChar: q
Encoding: 113 113 385
Width: 1256
VWidth: 0
Flags: HW
PickledData: "(dp1
S'org.robofab.postScriptHintData'
p2
(dp3
sS'com.typemytype.robofont.layerData'
p4
(dp5
S'b'
(dp6
S'name'
p7
S'q'
sS'lib'
p8
(dp9
sS'unicodes'
p10
(tsS'width'
p11
F1254.3
sS'contours'
p12
(tsS'components'
p13
(tsS'anchors'
p14
(tsss."
LayerCount: 2
Fore
SplineSet
791 -405 m 257
 854 108 l 257
 783 26 660 -23 540 -23 c 256
 259 -23 121 180 121 432 c 0
 121 462 123 491 127 522 c 256
 163 815 368 1052 676 1052 c 256
 784 1052 888 1001 953 904 c 257
 968 1026 l 257
 1197 1026 l 257
 1182 950 1163 826 1154 754 c 258
 1012 -405 l 257
 791 -405 l 257
919 592 m 0
 919 754 843 871 681 871 c 256
 475 871 356 677 356 437 c 0
 356 277 427 159 592 159 c 256
 801 159 919 354 919 592 c 0
EndSplineSet
EndChar

StartChar: question
Encoding: 63 63 386
Width: 1034
VWidth: 0
Flags: HW
PickledData: "(dp1
S'org.robofab.postScriptHintData'
p2
(dp3
sS'com.typemytype.robofont.layerData'
p4
(dp5
S'b'
(dp6
S'name'
p7
S'question'
p8
sS'lib'
p9
(dp10
sS'unicodes'
p11
(tsS'width'
p12
F1055.9000000000001
sS'contours'
p13
(tsS'components'
p14
(tsS'anchors'
p15
(tsss."
LayerCount: 2
Fore
SplineSet
289 399 m 257
 306 538 l 258
 337 794 712 910 738 1119 c 256
 739 1128 740 1136 740 1144 c 0
 740 1248 651 1288 537 1288 c 256
 419 1288 283 1242 232 1218 c 257
 256 1413 l 257
 296 1431 422 1483 584 1483 c 256
 802 1483 974 1384 974 1177 c 0
 974 824 513 756 479 476 c 257
 470 399 l 257
 289 399 l 257
214 0 m 257
 245 251 l 257
 490 251 l 257
 459 0 l 257
 214 0 l 257
EndSplineSet
EndChar

StartChar: quotedbl
Encoding: 34 34 388
Width: 737
VWidth: 0
Flags: HW
PickledData: "(dp1
S'org.robofab.postScriptHintData'
p2
(dp3
sS'com.typemytype.robofont.layerData'
p4
(dp5
S'b'
(dp6
S'name'
p7
S'quotedbl'
p8
sS'lib'
p9
(dp10
sS'unicodes'
p11
(tsS'width'
p12
F785.64999999999998
sS'contours'
p13
(tsS'components'
p14
(tsS'anchors'
p15
(tsss."
LayerCount: 2
Fore
SplineSet
112 959 m 257
 124 1456 l 257
 346 1456 l 257
 241 959 l 257
 112 959 l 257
442 959 m 257
 454 1456 l 257
 675 1456 l 257
 571 959 l 257
 442 959 l 257
EndSplineSet
EndChar

StartChar: quotedblbase
Encoding: 8222 8222 389
Width: 1024
VWidth: 0
Flags: HW
PickledData: "(dp1
S'org.robofab.postScriptHintData'
p2
(dp3
s."
LayerCount: 2
Fore
SplineSet
85 -226 m 257
 251 244 l 257
 498 244 l 257
 281 -226 l 257
 85 -226 l 257
473 -226 m 257
 640 244 l 257
 886 244 l 257
 665 -226 l 257
 473 -226 l 257
EndSplineSet
EndChar

StartChar: quotedblleft
Encoding: 8220 8220 390
Width: 1024
VWidth: 0
Flags: HW
PickledData: "(dp1
S'org.robofab.postScriptHintData'
p2
(dp3
sS'com.typemytype.robofont.layerData'
p4
(dp5
S'b'
(dp6
S'name'
p7
S'quotedblleft'
p8
sS'lib'
p9
(dp10
sS'unicodes'
p11
(tsS'width'
p12
F1024
sS'contours'
p13
(tsS'components'
p14
(tsS'anchors'
p15
(tsss."
LayerCount: 2
Fore
SplineSet
108 871 m 257
 361 1456 l 257
 548 1456 l 257
 364 871 l 257
 108 871 l 257
538 871 m 257
 781 1456 l 257
 969 1456 l 257
 786 871 l 257
 538 871 l 257
EndSplineSet
EndChar

StartChar: quotedblright
Encoding: 8221 8221 391
Width: 1024
VWidth: 0
Flags: HW
PickledData: "(dp1
S'org.robofab.postScriptHintData'
p2
(dp3
sS'com.typemytype.robofont.layerData'
p4
(dp5
S'b'
(dp6
S'name'
p7
S'quotedblright'
p8
sS'lib'
p9
(dp10
sS'unicodes'
p11
(tsS'width'
p12
F1024
sS'contours'
p13
(tsS'components'
p14
(tsS'anchors'
p15
(tsss."
LayerCount: 2
Fore
SplineSet
150 871 m 257
 330 1456 l 257
 578 1456 l 257
 341 871 l 257
 150 871 l 257
540 871 m 257
 722 1456 l 257
 968 1456 l 257
 731 871 l 257
 540 871 l 257
EndSplineSet
EndChar

StartChar: quoteleft
Encoding: 8216 8216 392
Width: 552
VWidth: 0
Flags: HW
PickledData: "(dp1
S'org.robofab.postScriptHintData'
p2
(dp3
sS'com.typemytype.robofont.layerData'
p4
(dp5
S'b'
(dp6
S'name'
p7
S'quoteleft'
p8
sS'lib'
p9
(dp10
sS'unicodes'
p11
(tsS'width'
p12
F518.5
sS'contours'
p13
(tsS'components'
p14
(tsS'anchors'
p15
(tsss."
LayerCount: 2
Fore
SplineSet
256 871 m 257
 166 1456 l 257
 430 1456 l 257
 400 871 l 257
 256 871 l 257
EndSplineSet
EndChar

StartChar: quoteright
Encoding: 8217 8217 393
Width: 593
VWidth: 0
Flags: HW
PickledData: "(dp1
S'org.robofab.postScriptHintData'
p2
(dp3
sS'com.typemytype.robofont.layerData'
p4
(dp5
S'b'
(dp6
S'name'
p7
S'quoteright'
p8
sS'lib'
p9
(dp10
g4
(dp11
S'b'
(dp12
g7
S'quoteleft'
p13
sg9
(dp14
sS'unicodes'
p15
(tsS'width'
p16
I494
sS'contours'
p17
(tsS'components'
p18
(tsS'anchors'
p19
(tssssg15
(tsg16
F537.25
sg17
((dp20
S'points'
p21
((dp22
S'segmentType'
p23
S'line'
p24
sS'x'
F416
sS'smooth'
p25
I00
sS'y'
F888
s(dp26
g23
S'line'
p27
sS'x'
F300
sg25
I00
sS'y'
F888
s(dp28
g23
S'line'
p29
sS'x'
F150
sg25
I00
sS'y'
F1456
s(dp30
g23
S'line'
p31
sS'x'
F360
sg25
I00
sS'y'
F1456
stp32
stp33
sg18
(tsg19
(tsss."
LayerCount: 2
Fore
SplineSet
80 872 m 257
 238 1456 l 257
 498 1456 l 257
 244 872 l 257
 80 872 l 257
EndSplineSet
EndChar

StartChar: quotesinglbase
Encoding: 8218 8218 394
Width: 654
VWidth: 0
Flags: HW
PickledData: "(dp1
S'org.robofab.postScriptHintData'
p2
(dp3
sS'com.typemytype.robofont.layerData'
p4
(dp5
S'b'
(dp6
S'name'
p7
S'quotesinglbase'
p8
sS'lib'
p9
(dp10
sS'unicodes'
p11
(tsS'width'
p12
F595.70000000000005
sS'contours'
p13
(tsS'components'
p14
(tsS'anchors'
p15
(tsss."
LayerCount: 2
Fore
SplineSet
115 -321 m 257
 296 244 l 257
 540 244 l 257
 308 -321 l 257
 115 -321 l 257
EndSplineSet
EndChar

StartChar: quotesingle
Encoding: 39 39 395
Width: 494
VWidth: 0
Flags: HW
PickledData: "(dp1
S'org.robofab.postScriptHintData'
p2
(dp3
sS'com.typemytype.robofont.layerData'
p4
(dp5
S'b'
(dp6
S'name'
p7
S'quotesingle'
p8
sS'lib'
p9
(dp10
sS'unicodes'
p11
(tsS'width'
p12
F507.85000000000002
sS'contours'
p13
(tsS'components'
p14
(tsS'anchors'
p15
(tsss."
LayerCount: 2
Fore
SplineSet
149 926 m 257
 175 1456 l 257
 410 1456 l 257
 312 926 l 257
 149 926 l 257
EndSplineSet
EndChar

StartChar: r
Encoding: 114 114 396
Width: 798
VWidth: 0
Flags: HW
PickledData: "(dp1
S'org.robofab.postScriptHintData'
p2
(dp3
sS'com.typemytype.robofont.layerData'
p4
(dp5
S'b'
(dp6
S'name'
p7
S'r'
sS'lib'
p8
(dp9
sS'unicodes'
p10
(tsS'width'
p11
F818.89999999999998
sS'contours'
p12
(tsS'components'
p13
(tsS'anchors'
p14
(tsss."
AnchorPoint: "top" 553 1026 basechar 0
LayerCount: 2
Fore
SplineSet
103 0 m 257
 198 770 l 258
 210 864 213 1026 213 1026 c 257
 451 1026 l 257
 433 881 l 257
 515 987 607 1052 717 1052 c 256
 750 1052 784 1047 819 1037 c 257
 795 840 l 257
 758 853 717 860 677 860 c 256
 538 860 422 764 399 577 c 258
 328 0 l 257
 103 0 l 257
EndSplineSet
EndChar

StartChar: radical
Encoding: 8730 8730 398
Width: 1314
VWidth: 0
Flags: HW
PickledData: "(dp1
S'org.robofab.postScriptHintData'
p2
(dp3
sS'com.typemytype.robofont.layerData'
p4
(dp5
s."
LayerCount: 2
Fore
SplineSet
501 -146 m 257
 287 651 l 257
 284 650 119 621 119 621 c 257
 101 781 l 257
 456 839 l 257
 617 199 l 257
 1153 1566 l 257
 1353 1566 l 257
 686 -146 l 257
 501 -146 l 257
EndSplineSet
EndChar

StartChar: registered
Encoding: 174 174 402
Width: 1719
VWidth: 0
Flags: HW
PickledData: "(dp1
S'org.robofab.postScriptHintData'
p2
(dp3
sS'com.typemytype.robofont.layerData'
p4
(dp5
S'b'
(dp6
S'name'
p7
S'registered'
p8
sS'lib'
p9
(dp10
sS'unicodes'
p11
(tsS'width'
p12
F1727.05
sS'contours'
p13
(tsS'components'
p14
(tsS'anchors'
p15
(tsss."
LayerCount: 2
Fore
SplineSet
474 286 m 257
 583 1177 l 257
 887 1177 l 258
 1147 1177 1258 1099 1258 955 c 0
 1258 942 1257 929 1255 915 c 256
 1243 810 1191 707 1036 671 c 257
 1186 286 l 257
 971 286 l 257
 850 642 l 257
 713 642 l 257
 670 286 l 257
 474 286 l 257
1059 938 m 0
 1059 1014 1014 1023 871 1023 c 258
 760 1023 l 257
 730 784 l 257
 831 784 l 258
 981 784 1059 810 1059 938 c 0
780 87 m 256
 1127 87 1441 379 1485 727 c 256
 1488 753 1490 779 1490 805 c 0
 1490 1119 1259 1371 938 1371 c 256
 589 1371 275 1076 233 727 c 256
 230 700 228 673 228 646 c 0
 228 335 459 87 780 87 c 256
767 -22 m 257
 384 -22 100 267 100 638 c 0
 100 668 102 699 106 730 c 256
 157 1145 537 1483 951 1483 c 256
 1335 1483 1619 1194 1619 822 c 0
 1619 792 1617 761 1613 730 c 256
 1562 316 1182 -22 767 -22 c 257
EndSplineSet
EndChar

StartChar: ring
Encoding: 730 730 403
Width: 672
VWidth: 0
Flags: HW
PickledData: "(dp1
S'org.robofab.postScriptHintData'
p2
(dp3
sS'com.typemytype.robofont.layerData'
p4
(dp5
S'b'
(dp6
S'name'
p7
S'ring'
p8
sS'lib'
p9
(dp10
sS'unicodes'
p11
(tsS'width'
p12
F633.35000000000002
sS'contours'
p13
(tsS'components'
p14
(tsS'anchors'
p15
(tsss."
AnchorPoint: "top" 350 1500 basechar 0
AnchorPoint: "top" 298 1026 mark 0
LayerCount: 2
Fore
SplineSet
439 1355 m 0
 439 1409 399 1450 344 1450 c 256
 283 1450 224 1398 224 1329 c 0
 224 1275 264 1233 318 1233 c 256
 380 1233 439 1286 439 1355 c 0
357 1549 m 256
 466 1549 547 1475 547 1368 c 0
 547 1232 427 1135 306 1135 c 256
 197 1135 116 1210 116 1316 c 0
 116 1453 235 1549 357 1549 c 256
EndSplineSet
EndChar

StartChar: s
Encoding: 115 115 405
Width: 988
VWidth: 0
Flags: HW
PickledData: "(dp1
S'org.robofab.postScriptHintData'
p2
(dp3
sS'com.typemytype.robofont.layerData'
p4
(dp5
S'b'
(dp6
S'name'
p7
S's'
sS'lib'
p8
(dp9
sS'unicodes'
p10
(tsS'width'
p11
F981.89999999999998
sS'contours'
p12
((dp13
S'points'
p14
((dp15
S'segmentType'
p16
S'curve'
p17
sS'x'
F498
sS'smooth'
p18
I01
sS'y'
F-23
s(dp19
S'y'
F-23
sS'x'
F282
sg18
I00
s(dp20
S'y'
F70
sS'x'
F145
sg18
I00
s(dp21
g16
S'curve'
p22
sS'x'
F116
sg18
I00
sS'y'
F94
s(dp23
g16
S'line'
p24
sS'x'
F160
sg18
I00
sS'y'
F222
s(dp25
S'y'
F189
sS'x'
F208
sg18
I00
s(dp26
S'y'
F109
sS'x'
F348
sg18
I00
s(dp27
g16
S'curve'
p28
sS'x'
F484
sg18
I01
sS'y'
F109
s(dp29
S'y'
F109
sS'x'
F589
sg18
I00
s(dp30
S'y'
F141
sS'x'
F711
sg18
I00
s(dp31
g16
S'curve'
p32
sS'x'
F711
sg18
I01
sS'y'
F272
s(dp33
S'y'
F395
sS'x'
F711
sg18
I00
s(dp34
S'y'
F426
sS'x'
F561
sg18
I00
s(dp35
g16
S'curve'
p36
sS'x'
F412
sg18
I00
sS'y'
F474
s(dp37
S'y'
F521
sS'x'
F262
sg18
I00
s(dp38
S'y'
F585
sS'x'
F112
sg18
I00
s(dp39
g16
S'curve'
p40
sS'x'
F112
sg18
I01
sS'y'
F771
s(dp41
S'y'
F970
sS'x'
F112
sg18
I00
s(dp42
S'y'
F1051
sS'x'
F318
sg18
I00
s(dp43
g16
S'curve'
p44
sS'x'
F488
sg18
I01
sS'y'
F1051
s(dp45
S'y'
F1051
sS'x'
F715
sg18
I00
s(dp46
S'y'
F991
sS'x'
F792
sg18
I00
s(dp47
g16
S'curve'
p48
sS'x'
F832
sg18
I00
sS'y'
F966
s(dp49
g16
S'line'
p50
sS'x'
F785
sg18
I00
sS'y'
F851
s(dp51
S'y'
F858
sS'x'
F772
sg18
I00
s(dp52
S'y'
F917
sS'x'
F667
sg18
I00
s(dp53
g16
S'curve'
p54
sS'x'
F504
sg18
I01
sS'y'
F917
s(dp55
S'y'
F917
sS'x'
F355
sg18
I00
s(dp56
S'y'
F882
sS'x'
F283
sg18
I00
s(dp57
g16
S'curve'
p58
sS'x'
F283
sg18
I01
sS'y'
F774
s(dp59
S'y'
F660
sS'x'
F283
sg18
I00
s(dp60
S'y'
F629
sS'x'
F433
sg18
I00
s(dp61
g16
S'curve'
p62
sS'x'
F582
sg18
I01
sS'y'
F581
s(dp63
S'y'
F533
sS'x'
F732
sg18
I00
s(dp64
S'y'
F468
sS'x'
F881
sg18
I00
s(dp65
g16
S'curve'
p66
sS'x'
F881
sg18
I01
sS'y'
F284
s(dp67
S'y'
F62
sS'x'
F881
sg18
I00
s(dp68
S'y'
F-23
sS'x'
F685
sg18
I00
stp69
stp70
sS'components'
p71
(tsS'anchors'
p72
(tsss."
AnchorPoint: "top" 561 1026 basechar 0
LayerCount: 2
Fore
SplineSet
663 305 m 0
 663 359 625 384 486 433 c 257
 394 466 l 258
 256 515 153 567 153 713 c 0
 153 957 363 1050 565 1050 c 256
 709 1050 833 1010 911 955 c 257
 833 799 l 257
 777 830 665 873 565 873 c 256
 443 873 374 837 374 749 c 0
 374 697 409 677 529 633 c 256
 537 630 614 602 625 598 c 256
 771 544 874 491 874 338 c 0
 874 70 651 -23 464 -23 c 256
 264 -23 126 53 68 104 c 257
 146 268 l 257
 214 211 342 156 468 156 c 256
 574 156 663 192 663 305 c 0
EndSplineSet
EndChar

StartChar: section
Encoding: 167 167 412
Width: 1090
VWidth: 0
Flags: HW
PickledData: "(dp1
S'org.robofab.postScriptHintData'
p2
(dp3
sS'com.typemytype.robofont.layerData'
p4
(dp5
S'b'
(dp6
S'name'
p7
S'section'
p8
sS'lib'
p9
(dp10
sS'unicodes'
p11
(tsS'width'
p12
F1071.6500000000001
sS'contours'
p13
(tsS'components'
p14
(tsS'anchors'
p15
(tsss."
LayerCount: 2
Fore
SplineSet
367 951 m 257
 302 1003 259 1063 259 1151 c 0
 259 1162 259 1175 261 1187 c 256
 286 1388 474 1481 684 1481 c 256
 777 1481 869 1468 958 1437 c 257
 937 1265 l 257
 874 1284 783 1314 696 1314 c 256
 598 1314 496 1278 496 1189 c 0
 496 1127 567 1074 700 1010 c 257
 827 944 937 876 937 751 c 0
 937 631 855 546 756 479 c 257
 824 437 871 374 871 285 c 0
 871 274 871 262 869 250 c 256
 843 36 643 -67 419 -67 c 256
 315 -67 205 -47 108 -8 c 257
 130 179 l 257
 225 137 337 112 429 112 c 256
 540 112 624 157 635 244 c 256
 635 247 635 249 635 252 c 0
 635 308 560 342 360 442 c 256
 246 498 177 578 177 683 c 0
 177 803 265 896 367 951 c 257
613 564 m 257
 649 594 693 642 693 708 c 0
 693 786 614 811 515 861 c 257
 482 843 403 788 403 720 c 0
 403 651 485 624 613 564 c 257
EndSplineSet
EndChar

StartChar: semicolon
Encoding: 59 59 413
Width: 541
VWidth: 0
Flags: HW
PickledData: "(dp1
S'org.robofab.postScriptHintData'
p2
(dp3
sS'com.typemytype.robofont.layerData'
p4
(dp5
s."
LayerCount: 2
Fore
SplineSet
-5 -251 m 257
 164 250 l 257
 417 250 l 257
 182 -251 l 257
 -5 -251 l 257
230 858 m 257
 261 1111 l 257
 503 1111 l 257
 472 858 l 257
 230 858 l 257
EndSplineSet
EndChar

StartChar: seven
Encoding: 55 55 414
Width: 1256
VWidth: 0
Flags: HW
PickledData: "(dp1
S'org.robofab.postScriptHintData'
p2
(dp3
sS'com.typemytype.robofont.layerData'
p4
(dp5
s."
LayerCount: 2
Fore
SplineSet
242 0 m 257
 928 1266 l 257
 223 1266 l 257
 246 1456 l 257
 1215 1456 l 257
 1194 1282 l 257
 488 0 l 257
 242 0 l 257
EndSplineSet
EndChar

StartChar: six
Encoding: 54 54 415
Width: 1256
VWidth: 0
Flags: HW
PickledData: "(dp1
S'org.robofab.postScriptHintData'
p2
(dp3
sS'com.typemytype.robofont.layerData'
p4
(dp5
s."
LayerCount: 2
Fore
SplineSet
583 -23 m 256
 276 -23 133 192 133 526 c 0
 133 580 137 637 144 696 c 256
 197 1128 436 1483 820 1483 c 256
 967 1483 1086 1439 1164 1359 c 257
 1067 1188 l 257
 992 1253 903 1286 798 1286 c 256
 606 1286 464 1100 409 859 c 256
 404 837 400 813 396 790 c 257
 486 900 601 954 730 954 c 256
 981 954 1138 800 1138 551 c 0
 1138 526 1136 499 1133 472 c 256
 1099 191 885 -23 583 -23 c 256
899 525 m 0
 899 664 830 766 684 766 c 256
 502 766 371 626 371 429 c 0
 371 268 473 174 604 174 c 256
 775 174 899 326 899 525 c 0
EndSplineSet
EndChar

StartChar: slash
Encoding: 47 47 416
Width: 838
VWidth: 0
Flags: HW
PickledData: "(dp1
S'org.robofab.postScriptHintData'
p2
(dp3
sS'com.typemytype.robofont.layerData'
p4
(dp5
s."
LayerCount: 2
Fore
SplineSet
-61 -101 m 257
 724 1456 l 257
 928 1456 l 257
 138 -101 l 257
 -61 -101 l 257
EndSplineSet
EndChar

StartChar: softhyphen
Encoding: 173 173 418
Width: 717
VWidth: 0
Flags: HW
PickledData: "(dp1
S'org.robofab.postScriptHintData'
p2
(dp3
s."
LayerCount: 2
Fore
SplineSet
47 469 m 257
 68 641 l 257
 670 641 l 257
 649 469 l 257
 47 469 l 257
EndSplineSet
EndChar

StartChar: sterling
Encoding: 163 163 420
Width: 1235
VWidth: 0
Flags: HW
PickledData: "(dp1
S'org.robofab.postScriptHintData'
p2
(dp3
sS'com.typemytype.robofont.layerData'
p4
(dp5
S'b'
(dp6
S'name'
p7
S'sterling'
p8
sS'lib'
p9
(dp10
sS'unicodes'
p11
(tsS'width'
p12
F1207.3
sS'contours'
p13
(tsS'components'
p14
(tsS'anchors'
p15
(tsss."
LayerCount: 2
Fore
SplineSet
61 0 m 257
 82 172 l 257
 179 246 288 346 321 610 c 257
 328 673 l 257
 141 673 l 257
 161 834 l 257
 346 834 l 257
 355 910 l 257
 394 1225 510 1482 895 1482 c 256
 1028 1482 1119 1457 1194 1409 c 257
 1117 1237 l 257
 1052 1269 985 1298 892 1298 c 0
 708 1298 617 1198 588 961 c 257
 573 834 l 257
 921 834 l 257
 901 673 l 257
 553 673 l 257
 545 606 l 258
 521 408 452 262 383 186 c 257
 1040 186 l 257
 1017 0 l 257
 61 0 l 257
EndSplineSet
EndChar

StartChar: summation
Encoding: 8721 8721 421
Width: 1236
VWidth: 0
Flags: HW
PickledData: "(dp1
S'org.robofab.postScriptHintData'
p2
(dp3
sS'com.typemytype.robofont.layerData'
p4
(dp5
S'b'
(dp6
S'name'
p7
S'summation'
p8
sS'lib'
p9
(dp10
sS'unicodes'
p11
(tsS'width'
p12
F1198.3
sS'contours'
p13
(tsS'components'
p14
(tsS'anchors'
p15
(tsss."
LayerCount: 2
Fore
SplineSet
14 -179 m 257
 28 -60 l 257
 620 646 l 257
 222 1340 l 257
 236 1456 l 257
 1208 1456 l 257
 1186 1274 l 257
 518 1274 l 257
 877 650 l 257
 345 9 l 257
 1073 9 l 257
 1050 -179 l 257
 14 -179 l 257
EndSplineSet
EndChar

StartChar: t
Encoding: 116 116 422
Width: 820
VWidth: 0
Flags: HW
PickledData: "(dp1
S'org.robofab.postScriptHintData'
p2
(dp3
sS'com.typemytype.robofont.layerData'
p4
(dp5
S'b'
(dp6
S'name'
p7
S't'
sS'lib'
p8
(dp9
sS'unicodes'
p10
(tsS'width'
p11
F763.89999999999998
sS'contours'
p12
(tsS'components'
p13
(tsS'anchors'
p14
(tsss."
AnchorPoint: "caron.alt" 336 1316 basechar 0
AnchorPoint: "top" 429 1320 basechar 0
LayerCount: 2
Fore
SplineSet
652 1 m 257
 556 1 l 258
 313 1 183 46 183 272 c 0
 183 301 185 333 189 368 c 258
 252 876 l 257
 48 876 l 257
 67 1026 l 257
 277 1026 l 257
 308 1276 l 257
 532 1341 l 257
 494 1026 l 257
 774 1026 l 257
 755 876 l 257
 475 876 l 257
 412 355 l 258
 409 334 408 315 408 298 c 0
 408 187 473 173 673 173 c 257
 652 1 l 257
EndSplineSet
EndChar

StartChar: thorn
Encoding: 254 254 427
Width: 1231
VWidth: 0
Flags: HW
PickledData: "(dp1
S'org.robofab.postScriptHintData'
p2
(dp3
sS'com.typemytype.robofont.layerData'
p4
(dp5
s."
LayerCount: 2
Fore
SplineSet
31 -405 m 257
 260 1462 l 257
 476 1462 l 257
 408 916 l 257
 477 1000 613 1051 721 1051 c 256
 1005 1051 1137 857 1137 614 c 0
 1137 585 1135 555 1131 525 c 256
 1096 240 909 -23 588 -23 c 256
 475 -23 364 20 306 96 c 257
 245 -405 l 257
 31 -405 l 257
901 600 m 0
 901 747 843 869 675 869 c 256
 470 869 379 690 354 494 c 256
 351 471 350 449 350 427 c 0
 350 268 425 157 580 157 c 256
 790 157 901 370 901 600 c 0
EndSplineSet
EndChar

StartChar: three
Encoding: 51 51 428
Width: 1256
VWidth: 0
Flags: HW
PickledData: "(dp1
S'org.robofab.postScriptHintData'
p2
(dp3
sS'com.typemytype.robofont.layerData'
p4
(dp5
S'b'
(dp6
S'name'
p7
S'three'
p8
sS'lib'
p9
(dp10
sS'unicodes'
p11
(tsS'width'
p12
F1234.0999999999999
sS'contours'
p13
((dp14
S'points'
p15
((dp16
S'segmentType'
p17
S'curve'
p18
sS'x'
F344
sS'smooth'
p19
I01
sS'y'
F1010
s(dp20
S'y'
F827
sS'x'
F344
sg19
I00
s(dp21
S'y'
F687
sS'x'
F423
sg19
I00
s(dp22
g17
S'curve'
p23
sS'x'
F634
sg19
I01
sS'y'
F687
s(dp24
S'y'
F687
sS'x'
F814
sg19
I00
s(dp25
S'y'
F803
sS'x'
F938
sg19
I00
s(dp26
g17
S'curve'
p27
sS'x'
F938
sg19
I01
sS'y'
F991
s(dp28
S'y'
F1166
sS'x'
F938
sg19
I00
s(dp29
S'y'
F1334
sS'x'
F845
sg19
I00
s(dp30
g17
S'curve'
p31
sS'x'
F635
sg19
I01
sS'y'
F1334
s(dp32
S'y'
F1334
sS'x'
F449
sg19
I00
s(dp33
S'y'
F1196
sS'x'
F344
sg19
I00
stp34
s(dp35
g15
((dp36
g17
S'curve'
p37
sS'x'
F594
sg19
I01
sS'y'
F-24
s(dp38
S'y'
F-24
sS'x'
F473
sg19
I00
s(dp39
S'y'
F-1
sS'x'
F367
sg19
I00
s(dp40
g17
S'curve'
p41
sS'x'
F238
sg19
I00
sS'y'
F65
s(dp42
g17
S'line'
p43
sS'x'
F287
sg19
I00
sS'y'
F197
s(dp44
S'y'
F138
sS'x'
F401
sg19
I00
s(dp45
S'y'
F124
sS'x'
F489
sg19
I00
s(dp46
g17
S'curve'
p47
sS'x'
F581
sg19
I01
sS'y'
F124
s(dp48
S'y'
F124
sS'x'
F812
sg19
I00
s(dp49
S'y'
F308
sS'x'
F950
sg19
I00
s(dp50
g17
S'curve'
p51
sS'x'
F950
sg19
I01
sS'y'
F657
s(dp52
g17
S'line'
p53
sS'x'
F950
sg19
I00
sS'y'
F722
s(dp54
S'y'
F600
sS'x'
F886
sg19
I00
s(dp55
S'y'
F544
sS'x'
F772
sg19
I00
s(dp56
g17
S'curve'
p57
sS'x'
F607
sg19
I01
sS'y'
F544
s(dp58
S'y'
F544
sS'x'
F328
sg19
I00
s(dp59
S'y'
F735
sS'x'
F168
sg19
I00
s(dp60
g17
S'curve'
p61
sS'x'
F168
sg19
I01
sS'y'
F1004
s(dp62
S'y'
F1275
sS'x'
F168
sg19
I00
s(dp63
S'y'
F1483
sS'x'
F341
sg19
I00
s(dp64
g17
S'curve'
p65
sS'x'
F643
sg19
I01
sS'y'
F1483
s(dp66
S'y'
F1483
sS'x'
F969
sg19
I00
s(dp67
S'y'
F1231
sS'x'
F1125
sg19
I00
s(dp68
g17
S'curve'
p69
sS'x'
F1125
sg19
I01
sS'y'
F774
s(dp70
S'y'
F203
sS'x'
F1125
sg19
I00
s(dp71
S'y'
F-24
sS'x'
F894
sg19
I00
stp72
stp73
sS'components'
p74
(tsS'anchors'
p75
(tsss."
LayerCount: 2
Fore
SplineSet
832 451 m 0
 832 598 696 663 484 663 c 0
 477 663 470 663 462 663 c 258
 396 661 l 257
 417 856 l 257
 486 856 l 258
 732 856 852 914 875 1101 c 256
 876 1108 876 1115 876 1121 c 0
 876 1233 757 1286 634 1286 c 256
 468 1286 361 1211 301 1172 c 257
 217 1333 l 257
 358 1433 474 1483 687 1483 c 256
 907 1483 1109 1374 1109 1153 c 0
 1109 1138 1108 1121 1106 1105 c 256
 1086 949 984 800 794 765 c 257
 966 732 1058 613 1058 458 c 0
 1058 442 1057 426 1055 409 c 256
 1021 138 778 -23 514 -23 c 256
 240 -23 96 90 93 92 c 257
 183 267 l 257
 193 262 336 174 507 174 c 256
 698 174 832 275 832 451 c 0
EndSplineSet
EndChar

StartChar: threequarters
Encoding: 190 190 429
Width: 2376
VWidth: 0
Flags: HW
PickledData: "(dp1
S'org.robofab.postScriptHintData'
p2
(dp3
sS'com.typemytype.robofont.layerData'
p4
(dp5
s."
LayerCount: 2
Fore
SplineSet
662 883 m 0
 662 947 603 984 501 984 c 258
 419 984 l 257
 436 1115 l 257
 514 1115 l 258
 608 1115 683 1159 683 1238 c 0
 683 1298 637 1330 568 1330 c 256
 504 1330 426 1305 346 1260 c 257
 300 1370 l 257
 396 1428 509 1460 609 1460 c 256
 745 1460 853 1400 853 1272 c 0
 853 1262 852 1252 851 1242 c 256
 843 1176 802 1101 686 1064 c 257
 793 1033 835 965 835 891 c 0
 835 883 834 874 833 866 c 256
 811 688 657 603 496 603 c 256
 395 603 296 636 225 697 c 257
 300 814 l 257
 373 762 441 738 500 738 c 256
 591 738 662 797 662 883 c 0
1570 1 m 257
 1594 193 l 257
 1223 193 l 257
 1236 300 l 257
 1666 808 l 257
 1834 808 l 257
 1774 319 l 257
 1890 319 l 257
 1875 193 l 257
 1758 193 l 257
 1734 1 l 257
 1570 1 l 257
508 0 m 257
 1578 1456 l 257
 1773 1456 l 257
 704 0 l 257
 508 0 l 257
1401 319 m 257
 1608 319 l 257
 1643 609 l 257
 1401 319 l 257
EndSplineSet
EndChar

StartChar: threesuperior
Encoding: 179 179 430
Width: 1025
VWidth: 0
Flags: HW
PickledData: "(dp1
S'org.robofab.postScriptHintData'
p2
(dp3
sS'com.typemytype.robofont.layerData'
p4
(dp5
s."
LayerCount: 2
Fore
SplineSet
659 880 m 0
 659 946 598 984 494 984 c 258
 415 984 l 257
 431 1116 l 257
 506 1116 l 258
 603 1116 680 1155 680 1238 c 0
 680 1298 635 1326 565 1326 c 256
 501 1326 420 1301 343 1255 c 257
 298 1368 l 257
 390 1426 505 1459 603 1459 c 256
 739 1459 846 1397 846 1269 c 0
 846 1259 845 1249 844 1239 c 256
 836 1172 798 1095 677 1061 c 257
 786 1033 827 964 827 889 c 0
 827 880 826 872 825 863 c 256
 803 688 652 602 491 602 c 256
 391 602 291 635 222 697 c 257
 296 815 l 257
 367 762 437 738 496 738 c 256
 587 738 659 793 659 880 c 0
EndSplineSet
EndChar

StartChar: tilde
Encoding: 732 732 431
Width: 711
VWidth: 0
Flags: HW
PickledData: "(dp1
S'org.robofab.postScriptHintData'
p2
(dp3
sS'com.typemytype.robofont.layerData'
p4
(dp5
S'b'
(dp6
S'name'
p7
S'tilde'
p8
sS'lib'
p9
(dp10
sS'unicodes'
p11
(tsS'width'
p12
F672.35000000000002
sS'contours'
p13
(tsS'components'
p14
(tsS'anchors'
p15
(tsss."
AnchorPoint: "top" 357 1026 mark 0
LayerCount: 2
Fore
SplineSet
212 1271 m 256
 179 1271 145 1243 129 1171 c 257
 -15 1171 l 257
 5 1332 100 1442 223 1442 c 256
 342 1442 432 1338 506 1338 c 0
 542 1338 568 1360 580 1442 c 257
 727 1442 l 257
 705 1261 613 1166 486 1166 c 0
 392 1166 278 1271 212 1271 c 256
EndSplineSet
EndChar

StartChar: trademark
Encoding: 8482 8482 432
Width: 1869
VWidth: 0
Flags: HW
PickledData: "(dp1
S'org.robofab.postScriptHintData'
p2
(dp3
sS'com.typemytype.robofont.layerData'
p4
(dp5
S'b'
(dp6
S'name'
p7
S'trademark'
p8
sS'lib'
p9
(dp10
sS'unicodes'
p11
(tsS'width'
p12
F1869
sS'contours'
p13
(tsS'components'
p14
(tsS'anchors'
p15
(tsss."
LayerCount: 2
Fore
SplineSet
771 658 m 257
 867 1436 l 257
 1065 1436 l 257
 1238 904 l 257
 1543 1436 l 257
 1740 1436 l 257
 1644 658 l 257
 1478 658 l 257
 1540 1161 l 257
 1260 658 l 257
 1152 658 l 257
 992 1152 l 257
 932 658 l 257
 771 658 l 257
255 658 m 257
 332 1286 l 257
 102 1286 l 257
 121 1436 l 257
 755 1436 l 257
 737 1286 l 257
 506 1286 l 257
 429 658 l 257
 255 658 l 257
EndSplineSet
EndChar

StartChar: two
Encoding: 50 50 433
Width: 1256
VWidth: 0
Flags: HW
PickledData: "(dp1
S'org.robofab.postScriptHintData'
p2
(dp3
sS'com.typemytype.robofont.layerData'
p4
(dp5
S'b'
(dp6
S'name'
p7
S'two'
p8
sS'lib'
p9
(dp10
sS'unicodes'
p11
(tsS'width'
p12
F1244.5
sS'contours'
p13
(tsS'components'
p14
(tsS'anchors'
p15
(tsss."
LayerCount: 2
Fore
SplineSet
108 0 m 257
 129 173 l 257
 612 629 l 258
 792 800 863 899 863 1071 c 0
 863 1217 777 1286 651 1286 c 256
 464 1286 272 1158 271 1158 c 258
 218 1339 l 257
 218 1339 419 1481 693 1481 c 256
 930 1481 1088 1341 1088 1098 c 0
 1088 1085 1088 1072 1087 1058 c 256
 1072 824 928 665 742 493 c 258
 413 190 l 257
 974 190 l 257
 950 0 l 257
 108 0 l 257
EndSplineSet
EndChar

StartChar: twosuperior
Encoding: 178 178 434
Width: 1120
VWidth: 0
Flags: HW
PickledData: "(dp1
S'org.robofab.postScriptHintData'
p2
(dp3
sS'com.typemytype.robofont.layerData'
p4
(dp5
s."
LayerCount: 2
Fore
SplineSet
237 615 m 257
 255 755 l 257
 551 998 l 258
 668 1094 710 1160 716 1211 c 256
 717 1216 717 1221 717 1226 c 0
 717 1281 675 1307 610 1307 c 256
 537 1307 448 1271 375 1215 c 257
 321 1345 l 257
 412 1419 530 1460 640 1460 c 256
 784 1460 896 1392 896 1249 c 0
 896 1238 895 1225 894 1213 c 256
 879 1092 771 984 642 882 c 258
 498 769 l 257
 831 769 l 257
 811 615 l 257
 237 615 l 257
EndSplineSet
EndChar

StartChar: u
Encoding: 117 117 435
Width: 1206
VWidth: 0
Flags: HW
PickledData: "(dp1
S'org.robofab.postScriptHintData'
p2
(dp3
sS'com.typemytype.robofont.layerData'
p4
(dp5
S'b'
(dp6
S'name'
p7
S'u'
sS'lib'
p8
(dp9
sS'unicodes'
p10
(tsS'width'
p11
F1227.2
sS'contours'
p12
(tsS'components'
p13
(tsS'anchors'
p14
(tsss."
AnchorPoint: "top" 665 1026 basechar 0
LayerCount: 2
Fore
SplineSet
474 -23 m 257
 236 -23 122 113 122 311 c 0
 122 334 124 358 127 382 c 258
 206 1026 l 257
 428 1026 l 257
 349 384 l 258
 347 369 346 354 346 340 c 0
 346 216 418 159 539 159 c 256
 697 159 793 244 814 413 c 258
 889 1026 l 257
 1113 1026 l 257
 1020 268 l 258
 1012 204 998 14 997 0 c 257
 767 0 l 257
 782 156 l 257
 747 91 648 -23 474 -23 c 257
EndSplineSet
EndChar

StartChar: underscore
Encoding: 95 95 446
Width: 984
VWidth: 0
Flags: HW
PickledData: "(dp1
S'org.robofab.postScriptHintData'
p2
(dp3
sS'com.typemytype.robofont.layerData'
p4
(dp5
s."
LayerCount: 2
Fore
SplineSet
-21 -260 m 257
 0 -83 l 257
 1005 -83 l 257
 984 -260 l 257
 -21 -260 l 257
EndSplineSet
EndChar

StartChar: uni0307
Encoding: 775 775 459
Width: 524
VWidth: 0
Flags: HW
PickledData: "(dp1
S'org.robofab.postScriptHintData'
p2
(dp3
s."
AnchorPoint: "top" 227 1026 mark 0
LayerCount: 2
Fore
SplineSet
142 1221 m 257
 166 1426 l 257
 382 1426 l 257
 358 1221 l 257
 142 1221 l 257
EndSplineSet
EndChar

StartChar: uni030F
Encoding: 783 783 460
Width: 969
VWidth: 0
Flags: HW
PickledData: "(dp1
S'org.robofab.postScriptHintData'
p2
(dp3
s."
AnchorPoint: "top" 579 1026 mark 0
LayerCount: 2
Fore
SplineSet
342 1170 m 257
 55 1550 l 257
 304 1550 l 257
 504 1170 l 257
 342 1170 l 257
680 1170 m 257
 434 1550 l 257
 673 1550 l 257
 837 1170 l 257
 680 1170 l 257
EndSplineSet
EndChar

StartChar: uni0311
Encoding: 785 785 461
Width: 629
VWidth: 0
Flags: HW
PickledData: "(dp1
S'org.robofab.postScriptHintData'
p2
(dp3
sS'com.typemytype.robofont.layerData'
p4
(dp5
s."
AnchorPoint: "top" 281 1026 mark 0
LayerCount: 2
Fore
SplineSet
2 1173 m 257
 38 1353 167 1440 331 1440 c 256
 488 1440 594 1361 594 1194 c 0
 594 1187 593 1180 593 1173 c 257
 453 1173 l 257
 452 1264 381 1295 314 1295 c 256
 247 1295 166 1263 145 1173 c 257
 2 1173 l 257
EndSplineSet
EndChar

StartChar: uni0312
Encoding: 786 786 462
Width: 600
VWidth: 0
Flags: HW
PickledData: "(dp1
S'org.robofab.postScriptHintData'
p2
(dp3
s."
AnchorPoint: "top" 239 1026 mark 0
LayerCount: 2
Fore
SplineSet
575 1704 m 257
 403 1203 l 257
 151 1203 l 257
 387 1704 l 257
 575 1704 l 257
EndSplineSet
EndChar

StartChar: uni0326
Encoding: 806 806 463
Width: 540
VWidth: 0
Flags: HW
PickledData: "(dp1
S'org.robofab.postScriptHintData'
p2
(dp3
s."
LayerCount: 2
Fore
SplineSet
58 -631 m 257
 230 -138 l 257
 482 -138 l 257
 246 -631 l 257
 58 -631 l 257
EndSplineSet
EndChar

StartChar: uni2015
Encoding: 8213 8213 464
Width: 4097
VWidth: 0
Flags: HW
PickledData: "(dp1
S'org.robofab.postScriptHintData'
p2
(dp3
s."
LayerCount: 2
Fore
SplineSet
47 463 m 257
 68 637 l 257
 4049 637 l 257
 4028 463 l 257
 47 463 l 257
EndSplineSet
EndChar

StartChar: v
Encoding: 118 118 469
Width: 1102
VWidth: 0
Flags: HW
PickledData: "(dp1
S'org.robofab.postScriptHintData'
p2
(dp3
sS'com.typemytype.robofont.layerData'
p4
(dp5
S'b'
(dp6
S'name'
p7
S'v'
sS'lib'
p8
(dp9
sS'unicodes'
p10
(tsS'width'
p11
F1056.8
sS'contours'
p12
(tsS'components'
p13
(tsS'anchors'
p14
(tsss."
LayerCount: 2
Fore
SplineSet
384 0 m 257
 78 1026 l 257
 326 1026 l 257
 393 765 460 504 527 243 c 257
 650 508 781 765 908 1026 c 257
 1149 1026 l 257
 591 0 l 257
 384 0 l 257
EndSplineSet
EndChar

StartChar: w
Encoding: 119 119 470
Width: 1669
VWidth: 0
Flags: HW
PickledData: "(dp1
S'org.robofab.postScriptHintData'
p2
(dp3
sS'com.typemytype.robofont.layerData'
p4
(dp5
S'b'
(dp6
S'name'
p7
S'w'
sS'lib'
p8
(dp9
sS'unicodes'
p10
(tsS'width'
p11
F1634.0999999999999
sS'contours'
p12
(tsS'components'
p13
(tsS'anchors'
p14
(tsss."
AnchorPoint: "top" 921 1026 basechar 0
LayerCount: 2
Fore
SplineSet
319 0 m 257
 85 1026 l 257
 323 1026 l 257
 371 774 419 522 468 271 c 257
 583 523 699 774 815 1026 c 257
 1017 1026 l 257
 1067 774 1118 522 1167 269 c 257
 1279 520 1388 774 1499 1026 c 257
 1710 1026 l 257
 1213 0 l 257
 1020 0 l 257
 968 246 915 490 865 738 c 257
 747 492 630 246 513 0 c 257
 319 0 l 257
EndSplineSet
EndChar

StartChar: x
Encoding: 120 120 475
Width: 1048
VWidth: 0
Flags: HW
PickledData: "(dp1
S'org.robofab.postScriptHintData'
p2
(dp3
sS'com.typemytype.robofont.layerData'
p4
(dp5
S'b'
(dp6
S'name'
p7
S'x'
sS'lib'
p8
(dp9
sS'unicodes'
p10
(tsS'width'
p11
F1062.8499999999999
sS'contours'
p12
(tsS'components'
p13
(tsS'anchors'
p14
(tsssS'com.fontlab.hintData'
p15
(dp16
S'hhints'
p17
((dp18
S'position'
p19
I0
sg11
I21
s(dp20
g19
I1006
sg11
I20
stp21
ss."
HStem: 0 21<-34 201 201 201 711 956 956 956> 1006 20<111 357 111 111 846 1078 846 846>
LayerCount: 2
Fore
SplineSet
-34 0 m 257
 400 504 l 257
 111 1026 l 257
 357 1026 l 257
 547 675 l 257
 846 1026 l 257
 1078 1026 l 257
 653 530 l 257
 956 0 l 257
 711 0 l 257
 507 359 l 257
 201 0 l 257
 -34 0 l 257
EndSplineSet
EndChar

StartChar: y
Encoding: 121 121 476
Width: 1098
VWidth: 0
Flags: HW
PickledData: "(dp1
S'org.robofab.postScriptHintData'
p2
(dp3
sS'com.typemytype.robofont.layerData'
p4
(dp5
S'b'
(dp6
S'name'
p7
S'y'
sS'lib'
p8
(dp9
sS'unicodes'
p10
(tsS'width'
p11
F1065.05
sS'contours'
p12
(tsS'components'
p13
(tsS'anchors'
p14
(tsss."
AnchorPoint: "top" 665 1026 basechar 0
LayerCount: 2
Fore
SplineSet
146 -441 m 257
 71 -289 l 257
 268 -219 363 -136 409 -31 c 257
 429 19 l 257
 124 1026 l 257
 356 1026 l 257
 567 258 l 257
 933 1026 l 257
 1160 1026 l 257
 611 -56 l 258
 504 -266 329 -389 146 -441 c 257
EndSplineSet
EndChar

StartChar: yen
Encoding: 165 165 480
Width: 1258
VWidth: 0
Flags: HW
PickledData: "(dp1
S'org.robofab.postScriptHintData'
p2
(dp3
sS'com.typemytype.robofont.layerData'
p4
(dp5
S'b'
(dp6
S'name'
p7
S'yen'
p8
sS'lib'
p9
(dp10
sS'unicodes'
p11
(tsS'width'
p12
F1225.45
sS'contours'
p13
(tsS'components'
p14
(tsS'anchors'
p15
(tsss."
LayerCount: 2
Fore
SplineSet
420 0 m 1
 453 269 l 1
 104 269 l 1
 123 417 l 1
 471 417 l 1
 488 549 l 1
 139 549 l 1
 157 703 l 1
 428 703 l 1
 87 1456 l 1
 346 1456 l 1
 634 771 l 1
 1089 1456 l 1
 1353 1456 l 1
 815 703 l 1
 1098 703 l 1
 1080 549 l 1
 717 549 l 1
 701 417 l 1
 1065 417 l 1
 1047 269 l 1
 683 269 l 1
 650 0 l 1
 420 0 l 1
EndSplineSet
EndChar

StartChar: z
Encoding: 122 122 484
Width: 987
VWidth: 0
Flags: HW
PickledData: "(dp1
S'org.robofab.postScriptHintData'
p2
(dp3
sS'com.typemytype.robofont.layerData'
p4
(dp5
S'b'
(dp6
S'name'
p7
S'z'
sS'lib'
p8
(dp9
sS'unicodes'
p10
(tsS'width'
p11
F971.85000000000002
sS'contours'
p12
(tsS'components'
p13
(tsS'anchors'
p14
(tsss."
AnchorPoint: "top" 597 1026 basechar 0
LayerCount: 2
Fore
SplineSet
40 0 m 257
 54 119 l 257
 643 846 l 257
 163 846 l 257
 185 1026 l 257
 954 1026 l 257
 940 909 l 257
 349 179 l 257
 874 179 l 257
 852 0 l 257
 40 0 l 257
EndSplineSet
EndChar

StartChar: zero
Encoding: 48 48 488
Width: 1256
VWidth: 0
Flags: HW
PickledData: "(dp1
S'org.robofab.postScriptHintData'
p2
(dp3
sS'com.typemytype.robofont.layerData'
p4
(dp5
s."
LayerCount: 2
Fore
SplineSet
566 174 m 256
 764 174 856 412 896 736 c 256
 904 803 909 868 909 929 c 0
 909 1133 855 1286 702 1286 c 256
 496 1286 397 1029 361 737 c 256
 352 664 347 596 347 533 c 0
 347 317 406 174 566 174 c 256
538 -23 m 256
 255 -23 113 204 113 552 c 0
 113 610 117 672 125 737 c 256
 182 1203 391 1483 724 1483 c 256
 1008 1483 1145 1271 1145 928 c 0
 1145 868 1141 804 1133 737 c 256
 1078 287 873 -23 538 -23 c 256
EndSplineSet
EndChar

